<?xml version="1.0" encoding="utf-8"?>
<!-- Generator: Adobe Illustrator 18.0.0, SVG Export Plug-In . SVG Version: 6.00 Build 0)  -->
<!DOCTYPE svg PUBLIC "-//W3C//DTD SVG 1.1//EN" "http://www.w3.org/Graphics/SVG/1.1/DTD/svg11.dtd">
<svg version="1.1" id="Layer_1" xmlns="http://www.w3.org/2000/svg" xmlns:xlink="http://www.w3.org/1999/xlink" x="0px" y="0px"
	 viewBox="0 0 140 72" enable-background="new 0 0 140 72" xml:space="preserve">
<path fill="#D9D9D9" d="M116.2,61.6H23.8c-2.1,0-3.8-1.7-3.8-3.8V14.2c0-2.1,1.7-3.8,3.8-3.8h92.4c2.1,0,3.8,1.7,3.8,3.8v43.7
	C120,59.9,118.3,61.6,116.2,61.6z"/>
<path fill="#FFFFFF" d="M94.2,58.3c-1.4-2.3-2.9-4.7-4.4-7c-0.6-1-1.2-2.2-1.8-3.2c-1.6-2.8-0.8-4.6,2.4-5.5
	c2.3-0.6,4.4-1.5,5.9-3.4c1.2-1.5,1.2-3.4-0.2-4.7c-1.1-1-2.3-1.8-3.5-2.5c-1.7-0.9-3.6-1.6-5.3-2.5c-1.7-0.9-3.3-1.8-4.8-2.9
	c-1.3-0.9-1.5-1.9-0.9-3.4c0.3-0.8,0.9-1.5,1.4-2.2c1.2-1.9,1.3-4.4,0-6.1c-0.9-1.1-2-2-2.6-3.4c-0.2-0.5-1.1-0.6-1.6-0.9
	c-0.5-0.3-1.1-0.4-1.5-0.8c-2.2-2-4.6-2.9-7.1-2.8c-2.4-0.1-4.9,0.8-7.1,2.8c-0.4,0.4-1,0.5-1.5,0.8c-0.6,0.3-1.4,0.5-1.6,0.9
	c-0.6,1.3-1.8,2.3-2.6,3.4c-1.3,1.7-1.2,4.3,0,6.1c0.5,0.7,1,1.4,1.4,2.2c0.6,1.5,0.4,2.5-0.9,3.4c-1.5,1.1-3.2,2-4.8,2.9
	c-1.7,0.9-3.6,1.6-5.3,2.5c-1.3,0.7-2.5,1.5-3.5,2.5c-1.4,1.3-1.4,3.2-0.2,4.7c1.6,1.9,3.7,2.8,5.9,3.4c3.2,0.8,4,2.7,2.4,5.5
	c-0.6,1.1-1.2,2.2-1.8,3.2c-1.4,2.3-2.9,4.7-4.4,7c-0.6,1-1.2,2.1-1.8,3.2c-0.4,0.9-0.7,1.8-0.2,2.8c0.3,0.1,0.5,0.2,0.8,0.2
	c4.9,0.2,9.9,0.3,14.8,0.5c1.8,0.1,3.1-0.7,4-2.2c1.5-2.4,3-4.8,4.5-7.2c0.2-0.4,0.4-0.8,0.7-1.1c0.4-0.4,0.8-0.8,1.3-0.8
	c0.5,0,0.9,0.4,1.3,0.8c0.3,0.3,0.5,0.7,0.7,1.1c1.5,2.4,3,4.8,4.5,7.2c0.9,1.4,2.2,2.3,4,2.2c4.9-0.2,9.9-0.3,14.8-0.5
	c0.3,0,0.5-0.1,0.8-0.2c0.5-1,0.3-1.9-0.2-2.8C95.4,60.4,94.8,59.4,94.2,58.3z"/>
</svg>
