<?xml version="1.0" encoding="utf-8"?>
<!-- Generator: Adobe Illustrator 18.0.0, SVG Export Plug-In . SVG Version: 6.00 Build 0)  -->
<!DOCTYPE svg PUBLIC "-//W3C//DTD SVG 1.1//EN" "http://www.w3.org/Graphics/SVG/1.1/DTD/svg11.dtd">
<svg version="1.1" id="Layer_1" xmlns="http://www.w3.org/2000/svg" xmlns:xlink="http://www.w3.org/1999/xlink" x="0px" y="0px"
	 viewBox="0 0 140 72" enable-background="new 0 0 140 72" xml:space="preserve">
<path fill="#D9D9D9" d="M116.2,61.6H23.8c-2.1,0-3.8-1.7-3.8-3.8V14.2c0-2.1,1.7-3.8,3.8-3.8h92.4c2.1,0,3.8,1.7,3.8,3.8v43.7
	C120,59.9,118.3,61.6,116.2,61.6z"/>
<g>
	<g>
		<path fill="#989898" d="M43.8,46.9c-0.7,2.7-7-0.9-5-2.9c-2,2-5.6-4.3-2.9-5c-2.7,0.7-2.7-6.5,0-5.8c-2.7-0.7,0.9-7,2.9-5
			c-2-2,4.3-5.6,5-2.9c-0.7-2.7,6.5-2.7,5.8,0c0.7-2.7,7,0.9,5,2.9c2-2,5.6,4.3,2.9,5c2.7-0.7,2.7,6.5,0,5.8c2.7,0.7-0.9,7-2.9,5
			c2,2-4.3,5.6-5,2.9C50.3,49.6,43,49.6,43.8,46.9z"/>
	</g>
	<g>
		<path fill="#989898" d="M90.4,46.9c-0.7,2.7-7-0.9-5-2.9c-2,2-5.6-4.3-2.9-5c-2.7,0.7-2.7-6.5,0-5.8c-2.7-0.7,0.9-7,2.9-5
			c-2-2,4.3-5.6,5-2.9c-0.7-2.7,6.5-2.7,5.8,0c0.7-2.7,7,0.9,5,2.9c2-2,5.6,4.3,2.9,5c2.7-0.7,2.7,6.5,0,5.8c2.7,0.7-0.9,7-2.9,5
			c2,2-4.3,5.6-5,2.9C97,49.6,89.7,49.6,90.4,46.9z"/>
	</g>
	<g>
		<path fill="#D8A235" d="M65.1,51.1c-1,3.7-9.7-1.3-7-4c-2.7,2.7-7.8-6-4-7c-3.7,1-3.7-9.1,0-8.1c-3.7-1,1.3-9.7,4-7
			c-2.7-2.7,6-7.8,7-4c-1-3.7,9.1-3.7,8.1,0c1-3.7,9.7,1.3,7,4c2.7-2.7,7.8,6,4,7c3.7-1,3.7,9.1,0,8.1c3.7,1-1.3,9.7-4,7
			c2.7,2.7-6,7.8-7,4C74.2,54.8,64.1,54.8,65.1,51.1z"/>
	</g>
</g>
</svg>
