<?xml version="1.0" encoding="utf-8"?>
<!-- Generator: Adobe Illustrator 18.0.0, SVG Export Plug-In . SVG Version: 6.00 Build 0)  -->
<!DOCTYPE svg PUBLIC "-//W3C//DTD SVG 1.1//EN" "http://www.w3.org/Graphics/SVG/1.1/DTD/svg11.dtd">
<svg version="1.1" id="Layer_1" xmlns="http://www.w3.org/2000/svg" xmlns:xlink="http://www.w3.org/1999/xlink" x="0px" y="0px"
	 viewBox="0 0 960 560" enable-background="new 0 0 960 560" xml:space="preserve">
<g>
	<path fill="#FFFFFF" d="M236.1,275.6c-17.9,7-34,14-52.4,10.4c-4.9-1-7.5,0.5-9.1,5.4c-9.9,29.6-18.9,59.2-22.6,90
		c-1,8.6-0.3,17.4-0.3,26.5c-4.9-0.8-8-5.2-11.2-9.6c-7.3-11.4-8.8-24.1-6.7-37.1c2.6-17.4,6.2-34.5,9.9-51.6
		c1.8-8.8,4.7-17.6,7.3-26.5c1.3-3.9,0.8-6.5-3.6-8c-8.8-3.1-17.1-7.3-25.9-10.1c-9.3-3.1-17.9-2.1-24.1,7c-0.5-0.3-1-0.8-1.6-1
		c1.3-2.6,2.1-6.5,4.4-7.8c6.2-3.6,12.7-7.5,19.5-8.6c10.6-1.8,21.5-1.8,32.2-1.6c6,0,8.6-2.1,10.1-7.5c3.9-13,8.3-25.9,12.2-38.9
		c2.1,0,3.6,0,5.2,0c0.3-0.5,0.3-0.8,0.5-1.3c-1.3-0.8-2.6-1.8-3.9-2.6c0-0.3-0.3-0.8,0-1c2.6-9.9,2.6-10.9-8.6-13
		c-18.9-3.9-38.1-7.3-57.3-9.9c-16.1-2.1-32.2-3.4-48.3-3.4c-9.3,0-18.9,2.1-27.8,4.9c-15.8,5.2-23.4,17.4-22.6,33.5
		c2.6,45.7,21,84.3,51.9,118.1c-3.4-2.9-7-5.4-10.4-8.6c-16.6-16.1-27.2-35.8-36.3-56.6c-5.4-12.5-10.6-25.2-14-38.4
		c-8.8-34,3.9-56.3,37.9-66.2c9.9-2.9,20.2-3.6,30.6-5.2c3.9-0.5,8.6-1.3,10.1,5.2c1.6-7,6.7-5.7,10.9-5.2
		c30.4,2.1,60.7,4.4,91.1,6.5c2.6,0.3,5.2-1.3,7.8-2.1c6.7-1.6,13.8-2.6,20.2-4.4c4.9-1.3,9.9-3.1,15.3-5.2c-1.8,4.9-3.4,9.6-5.2,15
		c6,0.8,11.2,1.6,16.3,2.1c25.2,1.6,50.3,3.4,75.5-0.8c2.3-0.3,4.7-0.3,6.7-1.3c9.1-4.2,16.9-1,24.4,3.9c4.7,3.1,9.6,5.4,15,8.6
		c-7.5,6.5-16.1,11.4-25.2,15c-26.2,10.4-53.4,9.6-80.7,6c-11.9-1.6-23.9-2.6-35.8-3.4c-2.9-0.3-7,1.3-8.3,3.6
		c-10.4,16.1-14.8,34.2-22.1,54C209.4,249.4,221.3,263.4,236.1,275.6z"/>
	<path fill="#FFFFFF" d="M544.1,358.1c-6.2-4.4-11.9-8.3-17.1-12.5c-1.3-1-2.1-3.6-2.1-5.4c2.6-30.1,12.7-57.1,33.7-79.7
		c2.6-2.9,4.9-3.6,8.6-1.6c6,3.4,12.5,6,19.7,9.3c-12.7,13.5-23.6,26.5-29.3,43.3c0.5,0.3,1,0.8,1.6,1c2.1-2.3,4.2-4.7,6-7
		c13.5-17.4,28.3-33.5,46.2-46.4c1.3-1,3.6-2.1,4.7-1.6c7.5,3.1,14.8,6.7,22.1,10.1c-3.1,7.3-6.2,13.5-8.8,20
		c-0.8,2.1-0.5,6,0.8,6.5c1.8,1,4.9,0.5,7.3-0.3c7.3-2.3,9.3-9.3,12.5-15.3c2.6-4.9,3.6-12.2,7.8-14.3c3.9-2.1,10.4,1,15.8,1.3
		c3.6,0.3,7.3-0.5,10.9-1.3c3.4-0.5,6.7-1.8,11.9-3.1c-12.2,14.8-22.1,29.3-28,45.9c-5.7,16.6-9.1,33.5-9.1,52.4
		c-9.1-6.2-17.1-11.4-24.6-17.4c-1.6-1.3-1.6-5.4-1-8c1.8-9.3,3.9-18.7,6-27.8c0.5-2.1,0.8-4.2,1.6-7.8c-4.4,2.3-7.3,4.4-10.4,5.7
		c-5.7,2.3-11.4,4.9-17.4,5.7c-10.1,1.3-16.3-5.7-15.8-15.8c0.3-3.4,1-6.7,0.8-10.6C574.4,304.1,555.5,327.5,544.1,358.1z"/>
	<path fill="#FFFFFF" d="M343.8,226.8c2.6-6,4.4-12.5,8-17.9c9.3-13.8,23.6-21.5,38.7-26.7c17.6-6.2,36.1-10.4,54.2-15.3
		c2.6-0.8,5.7,0.3,8.8,0.3c2.3-1,5.2-2.9,8-3.1c35.5-2.6,70.8-6.5,106.4-7c45.1-0.8,90.3,1.6,135.2,2.1c8.6,0,13.8,3.9,17.1,11.7
		c2.1,4.9,5.7,8.8,9.6,14.5c-2.6,1-6.2,3.4-9.9,3.4c-18.7,0.3-37.1,0.5-55.8-0.5c-55-3.4-109.8-8-164.8-10.9
		c-32.4-1.8-64.9,0-96.5,8.6c-19.2,5.4-37.1,13-49.8,29.3c-3.1,3.9-5.4,8.3-8,12.2C345.1,227.3,344.3,227.1,343.8,226.8z"/>
	<path fill="#FFFFFF" d="M898.2,254.3c2.3,1.6,3.9,2.6,5.7,3.6c0.3-1.8,0.5-3.6,1-6.5c6,2.1,12.2,4.2,19.7,6.5
		c-5.4,4.2-10.1,7.3-14.5,10.9c-2.3,2.1-4.7,4.7-5.2,7.5c-0.3,3.1,0.8,7,2.6,9.6c0.8,1.3,4.9,1,7,0.5c13.8-4.2,27.2-8.6,40.7-12.7
		c1.3-0.5,2.6-0.8,4.4,0c-13,4.7-25.7,9.3-38.7,14c-1.8,0.8-3.9,1.6-5.7,2.3c-4.2,1.3-3.6,4.9-1.8,6.7c22.6,23.9,8.3,51.4-14.5,59.9
		c-16.9,6.2-33.7,6.5-49.8-1.8c-4.7-2.3-8.3-6.5-13-10.4c-0.5,0.5-1.8,1.3-3.1,2.3c-13.2,10.9-25.9,11.9-40,2.9
		c-11.9-7.5-16.1-20.2-11.7-36.1c4.4-15.6,13.2-29.1,23.4-41.3c4.2-4.9,16.3-7.3,19.7-5.4c4.2-2.3,7.5-4.7,11.2-6
		c6-2.3,11.9-3.9,18.7-6c-1,15-9.9,32.2,13.2,38.7c-7.3,1.3-14.8,2.6-22.1,4.2c-9.3,2.3-18.9,4.7-28,7.5
		c-6.7,2.1-10.9,6.5-11.4,13.8c-0.5,8.3-1.3,16.6,6.5,22.6c9.3,7,21.5,3.9,26.2-7c5.2-12.2,15.6-19.2,25.9-25.9
		c5.4-3.4,11.2-6.5,16.9-9.3c3.1-1.6,4.4-3.4,2.1-6.7C870,275.1,883.7,259,898.2,254.3z M868.2,353.2c9.9-0.8,17.6-3.9,23.6-11.4
		c6.7-8.6,6-29.3-1.6-37.6c-1-1-4.4-1.3-5.7-0.5c-7.5,4.4-15.3,8.6-21.8,14c-5.4,4.4-10.4,10.1-14.3,16.1
		c-3.9,6.2-2.1,11.7,4.7,14.8C857.8,350.8,863.2,351.6,868.2,353.2z M827.2,279.2c-7,6.5-12.2,13.5-15.3,24.1
		c8.8-3.9,15.8-7,23.4-10.1C832.3,288,830,283.9,827.2,279.2z"/>
	<path fill="#FFFFFF" d="M790.3,206.3c-23.1-3.9-36.3,9.3-45.7,27.5c-9.6,19.2-17.9,38.9-26.7,58.4c0.8,0.5,1.3,0.8,2.1,1.3
		c1.3-1.6,2.6-3.1,4.2-4.7c9.3-9.3,18.2-19.2,28-28c5.4-5.2,14.8-2.1,17.9,4.9c8.8-1.6,12.7,2.1,11.2,10.6
		c-3.4,18.7-7.8,37.4-16.3,54.5c-2.9,5.7-6.2,11.2-10.4,16.1c-8.3,9.9-19.7,11.2-30.6,3.9c-3.9-2.6-7.5-6-10.6-9.3
		c-3.6-3.6-6.2-2.9-6.7,1.8c-1,7.3-1,14.8-1.6,22.8c-5.2-6.5-10.1-13.2-16.1-19.2c-6.7-6.5-7-13.2-4.4-21.8
		c9.3-32.7,21.8-64.3,38.1-94.2c7.3-13.5,16.6-25.4,31.7-30.9C767.5,195.4,779.4,198.3,790.3,206.3z M755,274c-3.1,1-3.6,1-4.2,1.3
		c-17.1,13.2-28.5,30.6-37.1,50.1c-0.5,1.6-0.5,3.9,0.3,5.2c6.2,11.2,16.3,11.9,22.1,0.5c5.2-10.1,8.6-21,12.2-31.7
		C750.9,291.9,752.4,283.6,755,274z"/>
	<path fill="#FFFFFF" d="M566.1,186.6c-1.8,4.4-3.6,8.6-5.4,13c-15.8,38.1-31.9,76.5-47,115.2c-8.8,22.6-14.5,46.2-16.3,70.3
		c-0.5,6.7,0,13.5,0,20.8c-2.1-1.6-5.2-3.1-7.8-5.4c-7.3-7.5-10.1-16.9-10.9-27c-1.3-20.2,2.6-40.2,8.3-59.4
		c10.6-35.5,22.8-70.8,33.5-106.4c3.9-13.2,12.2-18.2,24.9-18.4C552.1,188.9,559.1,190.7,566.1,186.6z"/>
	<path fill="#FFFFFF" d="M330,265.5c-14.3,31.1-17.6,54-9.3,68c1.8-2.1,3.6-3.9,5.2-5.7c13.8-20.2,27.5-40.2,41-60.7
		c12.5-18.7,29.6-29.1,52.2-29.6c1.6,0,3.4,0,4.9,0.3c1,0,2.1,0.3,4.7,0.5c-2.9,1.3-4.2,1.8-5.4,2.3c-20.8,6.7-38.1,17.6-49.8,37.1
		c-15.6,25.9-32.7,50.9-49,76.3c-2.9,4.7-4.9,4.9-10.1,2.3c-16.9-8.8-21-24.6-24.6-41c-4.2-18.4-2.9-36.3,8.3-52.4
		c6.2-9.1,7.5-9.3,16.9-4.9C319.7,260.3,324.6,262.9,330,265.5z"/>
	<path fill="#FFFFFF" d="M442.6,254.8c-1,6-2.3,10.1-2.9,14.8c-1.6,14.8,2.3,20.5,16.1,25.2c-4.9,1-10.1,1.8-15,3.1
		c-12.7,3.1-25.9,5.4-38.4,9.6c-13.8,4.7-16.3,27.2-5.2,36.6c7,5.7,15.8,6,23.6,0.3c2.9-2.1,5.2-4.4,8.3-7
		c-11.2,23.6-41.3,28.3-58.1,9.6c-7.5-8.3-8.3-18.4-5.7-28.5c4.2-17.6,14.3-31.9,25.4-45.7c0.8-1,2.3-1.8,3.6-2.3
		C409.9,265.2,425.8,260.3,442.6,254.8z M413.3,280.3c-7,7-12.5,13.8-15,22.3c0.5,0.5,1,1,1.6,1.3c7.3-3.1,14.8-6.2,22.1-9.3
		C419,289.6,416.4,285.4,413.3,280.3z"/>
	<path fill="#FFFFFF" d="M289,262.1c-24.6,28-36.1,59.9-36.3,97.3c-9.3-6.5-17.4-11.9-25.4-17.6c-1-0.8-1-3.9-0.8-5.7
		c3.4-24.4,10.4-47.7,22.6-69.3c0.8-1.3,2.9-3.1,4.4-3.1c5.7,0.5,11.4,2.3,17.1,2.3C276.1,265.7,281.5,263.7,289,262.1z"/>
	<path fill="#FFFFFF" d="M705,224c2.3,18.4-2.6,32.2-15.3,36.8c-5.7,2.1-13,2.9-19.2,1.8c-8.6-1.3-11.2-10.1-4.9-16.3
		c3.9-3.9,9.1-6.5,14-8.8c5.2-2.6,10.6-4.2,15.8-6.7C698.7,229.1,701.6,226.6,705,224z"/>
	<path fill="#FFFFFF" d="M267.2,240.8c2.3,1,3.6,1.8,5.2,2.6c0.3-1.8,0.8-3.4,1-4.9c8.3-4.4,16.6-8.8,24.6-13
		c3.4,21.3-6,36.8-26.2,38.7c-7.5,0.8-14-2.3-15.6-6.7c-1.8-5.2,1.6-11.2,8.6-15.6C265.4,241.6,266.5,241.1,267.2,240.8z"/>
	<path fill="#FFFFFF" d="M47.2,197.2c-1.6-0.8-4.7-2.1-4.4-2.6c0.8-2.9,2.3-5.2,3.6-8c5.7,3.9,4.2,7.3,1.6,10.6
		C47.7,197,47.2,197.2,47.2,197.2z"/>
	<path fill="#FFFFFF" d="M29.1,198.8c2.6,0.8,4.2,1.3,6,2.1c-0.5,4.9-4.7,8.6-10.1,7c2.1-0.8,3.6-1.6,5.7-2.3
		C23.6,202.9,27,200.6,29.1,198.8z"/>
	<path fill="#FFFFFF" d="M38.9,223.2c-3.4-5.2-3.4-5.2,3.4-9.9C47,218.2,41.5,220.1,38.9,223.2z"/>
	<path fill="#FFFFFF" d="M47.2,197.2h0.5c2.1-1.8,3.9-3.6,6.7-6.2c0.5,4.4-2.6,6.5-4.9,8.6c-1.6,1.6-4.2,2.1-6.7,1.8
		C44.1,199.8,45.7,198.5,47.2,197.2z"/>
	<path fill="#FFFFFF" d="M37.6,226c3.4-3.4,6.7-6.5,10.1-9.6C47.7,221.4,42.6,226.6,37.6,226z"/>
</g>
</svg>
