<?xml version="1.0" encoding="utf-8"?>
<!-- Generator: Adobe Illustrator 18.0.0, SVG Export Plug-In . SVG Version: 6.00 Build 0)  -->
<!DOCTYPE svg PUBLIC "-//W3C//DTD SVG 1.1//EN" "http://www.w3.org/Graphics/SVG/1.1/DTD/svg11.dtd">
<svg version="1.1" id="Layer_1" xmlns="http://www.w3.org/2000/svg" xmlns:xlink="http://www.w3.org/1999/xlink" x="0px" y="0px"
	 viewBox="0 0 140 72" enable-background="new 0 0 140 72" xml:space="preserve">
<path fill="#D2FAA5" d="M115.2,60.8H22.8c-2.1,0-3.8-1.7-3.8-3.8V13.4c0-2.1,1.7-3.8,3.8-3.8h92.4c2.1,0,3.8,1.7,3.8,3.8V57
	C119,59.1,117.3,60.8,115.2,60.8z"/>
<g>
	<g>
		<path d="M61.7,777.4c1.3-2.2,3.7-1.5,5.7-2.2c0.6-0.2,1.3-0.2,2.1-0.3c-1.1-1.9-1.4-3.7-0.2-5.5c1.6-2.5,4.3-4.4,6.5-4.7
			c-0.5,0.6-1.1,1.2-1.5,1.9c-0.4,0.8-0.7,1.7-1.1,2.7c6.3,2.2,12.2,0.8,17.9-1.6c0,0-0.3-0.3-0.6-0.6c-0.3-0.4-0.4-0.9-0.7-1.5
			c0.7-0.2,1.3-0.4,1.9-0.6c0-0.1,0-0.2,0.1-0.3c-2.3-0.5-4.7-1-7-1.4c0-0.2,0.1-0.4,0.1-0.5c2.4,0.4,4.8,0.5,7.1,1.3
			c2.4,0.7,3,4.6,1.5,7.2c-0.4,0.7-0.9,1.4-1.5,2.2c2.7,0,5.2,0,8,0c-2-1.6-3.3-3.5-3.8-6c-0.5-2.5,1.6-5.5,4.1-5.9
			c1.4-0.2,2.9-0.6,4.3-0.8c1.3-0.2,2.7-0.3,4-0.3c1.2,0,2.5,0.4,3.8,0.8c-4-0.9-7.3,0.6-10.4,3.2c0,0,0,0.6,0.3,0.7
			c3,1.6,6,3.4,9.2,4.7c3,1.3,5.8,0.1,8.3-1.8c0.5-0.4,1-0.7,1.6-1.1c0.3,0.8,0.5,1.3,0.8,2.1c0.1-0.9,0.2-1.6,0.3-2.3
			c5.4,0.6,6.4,3.3,2.9,8.2c3.3,2.5,6.7,4.9,10,7.5c2.9,2.3,6.1,4.3,8.4,7.1c1.4,1.7,1.3,4.6,1.6,7c0.1,0.4-1.2,1.1-2,1.5
			c-5.3,3.2-11.1,2.1-16.8,1.8c-2.2-0.1-4.3-0.4-6.4-0.5c-1.7,0-2.2-0.7-2.2-2.4c0-4.4-0.4-8.8-0.6-13.2c0-0.2-0.2-0.3-0.6-0.4
			c0.3,4.8,0.5,9.5,0.8,14.3c-0.1,0-0.3,0-0.4,0.1c-0.4-3.5-0.8-7-1.2-10.2c-1.6,1.1-3.4,2.2-5.1,3.6c-2.2,1.7-4.6,2.2-7.3,2.4
			c-4.7,0.4-9.3,0.6-13.9-0.8c-0.4-0.1-1.3,0.4-1.6,0.9c-1,1.5-1.9,3.1-2.8,4.8c-1.5,2.8-4.1,4.5-6.2,6.6
			c-5.2,5.3-11.6,6.4-18.6,6.1c-0.7,0-1.4-0.1-2.1-0.1c-6,0.4-8.5-4-10.5-7.4c-1.5-2.7-0.4-5.3,0.3-7.7c1.1-3.9,2.7-7.6,4.3-11.4
			c0.3-0.8,1.3-1.3,2-2c-0.2,0.4-0.4,0.8-0.7,1.1c-1.8,2.7-3.1,5.4-0.6,8.4c3-1.5,5.7,0.8,7.9,0.5c1.6,1.9,2.8,3.4,4,4.8
			c1.9-0.5,3.6-1,5.3-1.5c0,0.1,0.1,0.2,0.1,0.4c-1.9,0.9-3.9,1.8-5.5,2.6c3.2,1,6.7,2.1,9.9,3.1c-0.6-0.9-1.3-2-2.2-3.4
			c1.2,0.2,1.8,0.4,2.6,0.5c0-0.8,0-1.4,0-2.2c1.7,0,3.4,0.1,5-0.1c0.4,0,1.3-0.9,1.2-1.1c-0.9-2.5-1.9-5-3.1-7.8
			c-1.8,1.8-3.3,3.3-4.8,4.7c-0.1-0.1-0.2-0.2-0.3-0.3c0.4-0.8,0.9-1.7,1.4-2.8c-2.6,1-5.4,0.4-6.1-1.1c0.6-0.4,1.3-0.9,1.6-1.1
			c-0.5-1.2-1.2-2.2-1.1-3c0.2-1.3,1-2.5,1.3-3.8c0.2-0.9,0.1-1.9,0.2-2.6c2.3-0.7,4.8-0.6,7,1.2c0.1-0.2,0.1-0.4,0.2-0.6
			c-0.9-0.7-1.9-1.3-2.9-2.1c0.8-0.6,1.5-1.1,2.6-1.9c-2.4,0-4.4,0-6.3,0c-0.1,0.5-0.1,0.9-0.1,1.1
			C67.7,775.7,64.5,775.6,61.7,777.4z M110,787.8c0.1,0.3,0.3,0.7,0.4,1c0.1-0.1,0.3-0.2,0.4-0.3c-0.2-0.2-0.5-0.4-0.7-0.6
			c0.1-0.3,0.4-0.5,0.4-0.7c-0.6-2.1-1.2-4.2-1.8-6.3c0.6-0.1,0.9-0.1,1.5-0.1c-1.6-1.4-2.9-2.6-4.5-4c1,0,1.5-0.1,2.1-0.1
			c0-0.1,0-0.2,0.1-0.3c-2-0.6-3.9-1.2-5.9-1.8c0,0.1-0.1,0.3-0.1,0.4c1.2,0.4,2.5,0.8,3.7,1.2c0,0.2-0.1,0.4-0.1,0.6
			c-1-0.2-2.1-0.3-3.1-0.6c-2.9-0.9-5.8-1.2-8.8-0.7c-0.9,0.1-1.8,0.5-2.6,0.3c-2.2-0.6-3.8,0.3-5.4,1.8c1.9,1.8,3.1,4.5,6.1,4.9
			c1.9,0.2,3.1,0.7,2.4,2.4c0.4-0.4,1-1.7,1.7-1.7c3.6-0.3,7.2-0.3,10.6-0.3c-0.9,0.3-2,0.6-3.3,1c0.5,2.1,0.9,4.1,1.3,5.8
			c1.2,0.1,2.3,0.5,3.2,0.2C108.4,789.3,109.2,788.4,110,787.8z M111.1,771.1c-3-0.9-5.3-3.9-9-3.1c0.7,1.3,1.3,2.5,2,3.7
			c0.6,1.1,1.5,1.2,2.6,0.9C108.2,772.1,109.6,771.6,111.1,771.1z M76.3,771.1c1,1.3,1.5,2.4,2.4,2.9c2.1,1.3,4.3,0.7,5.9-1.5
			C82.1,770.7,79.3,771.6,76.3,771.1z M51.2,807.3c0.9-0.6,1.5-1,2.5-1.7c-1.8-1.2-3.5-2.3-5.1-3.4c-0.2,0.2-0.4,0.4-0.6,0.7
			C49.2,804.4,50.2,805.9,51.2,807.3z M124.6,781.5c1.1,2.7,1.1,2.7,3.5,3.4C128.6,782.3,126.9,781.6,124.6,781.5z M99.6,762.3
			c0.1,0.3,0.1,0.6,0.2,0.9c1.5-0.3,2.9-0.7,4.4-1c0-0.2-0.1-0.4-0.1-0.6C102.6,761.8,101.1,762,99.6,762.3z"/>
		<path d="M85.3,813.8c2.5-0.8,4.8,0.7,6.7,2.4c1.5,1.4,2.3,3.4,2,5.6c-0.8,5.6-4.9,7.8-9.1,8c-2.6,0.1-5.2,1.2-7.9,0
			c-4.9-2.1-6.7-6.1-4.7-10.6c0.4-0.8,1-1.7,1.8-2.2C77.8,814.8,80.5,814,85.3,813.8z M83.1,824.3c-0.5-0.1-0.9-0.2-1.7-0.4
			c1.9-0.5,3.5-0.8,5-1.2c1.1-0.3,1.8-0.9,2.2-2.3c0.6-2.4,0.4-3.8-2.4-4c-0.6,0-1.1-0.6-1.8-1c0,0.3,0,0.5,0,0.6
			c0,0.1,0.1,0.1,0.1,0.2c0,0,0,0.1,0-0.1c-2.1,0.3-4.1,0.6-6.1,0.8c0-0.2,0-0.3-0.1-0.5c0.3-0.3,0.6-0.5,0.9-0.8
			c-0.1-0.1-0.1-0.2-0.2-0.3c-0.9,0.4-1.7,0.8-2.7,1.2c1.9,0.7,2,1.2,0.6,2.7c-1.2,1.3-1.4,2.6-0.3,3.9
			C77.8,824.7,81.2,825.2,83.1,824.3z M75,822.2c0.2-0.7,0.3-1.4,0.5-2c-0.3-0.1-0.5-0.1-0.8-0.2c-0.2,1.1-0.4,2.1-0.7,3.6
			c0.9-0.5,1.3-0.7,1.8-1C75.4,822.5,75.2,822.3,75,822.2z"/>
		<path d="M129.6,822.9c0.2-1.4,0.4-2.6,0.6-3.9c-0.3,2,0.7,4-1.2,5.8c-2.2,2.1-4.8,2.7-7.5,2.7c-3.7-0.1-7.4-0.7-11-1
			c-2.2-0.2-3.8-1-4.9-3c-1-1.9-2.3-3.5-3.3-5.4c-0.6-1.1-1-2.2,0.1-3.4c1-1,0.8-1.3-0.8-3.9c-0.1,1-0.2,1.8-0.3,2.6
			c-0.8-4.5,1.5-7.7,5.9-8.4c3.5-0.6,6.9-0.7,10.2,1c-3.6-1.5-7.2-0.9-10.8-0.3c-1.3,0.2-1.6,0.6-1.5,2c0.1,1.7-0.2,3.5-0.3,5.2
			c1,0.5,2.4,0.8,3.4,1.6c2.5,1.9,4.2,4.1,3.2,7.6c-0.4,1.3,0.9,1.3,1.8,1.3c2.1,0.1,4.3,0.2,6.4,0.4c1.1,0.1,2.1,0.5,3.3,0.9
			C124.7,823.4,126.8,822,129.6,822.9z M107.7,815.4c-1.6-0.1-2.7-0.2-4.3-0.3c0.7,1.2,1.3,2.2,2,3.4
			C106.3,817.4,106.8,816.6,107.7,815.4z M103.1,817.6c1.2,2.9,2.8,5.5,5.2,7.4C106.6,822.6,104.8,820.1,103.1,817.6z"/>
	</g>
	<g>
		<path fill="#8BA66D" d="M61.7,777.4c1.3-2.2,3.7-1.5,5.7-2.2c0.6-0.2,1.3-0.2,2.1-0.3c-1.1-1.9-1.4-3.7-0.2-5.5
			c1.6-2.5,4.3-4.4,6.5-4.7c-0.5,0.6-1.1,1.2-1.5,1.9c-0.4,0.8-0.7,1.7-1.1,2.7c6.3,2.2,12.2,0.8,17.9-1.6c0,0-0.3-0.3-0.6-0.6
			c-0.3-0.4-0.4-0.9-0.7-1.5c0.7-0.2,1.3-0.4,1.9-0.6c0-0.1,0-0.2,0.1-0.3c-2.3-0.5-4.7-1-7-1.4c0-0.2,0.1-0.4,0.1-0.5
			c2.4,0.4,4.8,0.5,7.1,1.3c2.4,0.7,3,4.6,1.5,7.2c-0.4,0.7-0.9,1.4-1.5,2.2c2.7,0,5.2,0,8,0c-2-1.6-3.3-3.5-3.8-6
			c-0.5-2.5,1.6-5.5,4.1-5.9c1.4-0.2,2.9-0.6,4.3-0.8c1.3-0.2,2.7-0.3,4-0.3c1.2,0,2.5,0.4,3.8,0.8c-4-0.9-7.3,0.6-10.4,3.2
			c0,0,0,0.6,0.3,0.7c3,1.6,6,3.4,9.2,4.7c3,1.3,5.8,0.1,8.3-1.8c0.5-0.4,1-0.7,1.6-1.1c0.3,0.8,0.5,1.3,0.8,2.1
			c0.1-0.9,0.2-1.6,0.3-2.3c5.4,0.6,6.4,3.3,2.9,8.2c3.3,2.5,6.7,4.9,10,7.5c2.9,2.3,6.1,4.3,8.4,7.1c1.4,1.7,1.3,4.6,1.6,7
			c0.1,0.4-1.2,1.1-2,1.5c-5.3,3.2-11.1,2.1-16.8,1.8c-2.2-0.1-4.3-0.4-6.4-0.5c-1.7,0-2.2-0.7-2.2-2.4c0-4.4-0.4-8.8-0.6-13.2
			c0-0.2-0.2-0.3-0.6-0.4c0.3,4.8,0.5,9.5,0.8,14.3c-0.1,0-0.3,0-0.4,0.1c-0.4-3.5-0.8-7-1.2-10.2c-1.6,1.1-3.4,2.2-5.1,3.6
			c-2.2,1.7-4.6,2.2-7.3,2.4c-4.7,0.4-9.3,0.6-13.9-0.8c-0.4-0.1-1.3,0.4-1.6,0.9c-1,1.5-1.9,3.1-2.8,4.8c-1.5,2.8-4.1,4.5-6.2,6.6
			c-5.2,5.3-11.6,6.4-18.6,6.1c-0.7,0-1.4-0.1-2.1-0.1c-6,0.4-8.5-4-10.5-7.4c-1.5-2.7-0.4-5.3,0.3-7.7c1.1-3.9,2.7-7.6,4.3-11.4
			c0.3-0.8,1.3-1.3,2-2c-0.2,0.4-0.4,0.8-0.7,1.1c-1.8,2.7-3.1,5.4-0.6,8.4c3-1.5,5.7,0.8,7.9,0.5c1.6,1.9,2.8,3.4,4,4.8
			c1.9-0.5,3.6-1,5.3-1.5c0,0.1,0.1,0.2,0.1,0.4c-1.9,0.9-3.9,1.8-5.5,2.6c3.2,1,6.7,2.1,9.9,3.1c-0.6-0.9-1.3-2-2.2-3.4
			c1.2,0.2,1.8,0.4,2.6,0.5c0-0.8,0-1.4,0-2.2c1.7,0,3.4,0.1,5-0.1c0.4,0,1.3-0.9,1.2-1.1c-0.9-2.5-1.9-5-3.1-7.8
			c-1.8,1.8-3.3,3.3-4.8,4.7c-0.1-0.1-0.2-0.2-0.3-0.3c0.4-0.8,0.9-1.7,1.4-2.8c-2.6,1-5.4,0.4-6.1-1.1c0.6-0.4,1.3-0.9,1.6-1.1
			c-0.5-1.2-1.2-2.2-1.1-3c0.2-1.3,1-2.5,1.3-3.8c0.2-0.9,0.1-1.9,0.2-2.6c2.3-0.7,4.8-0.6,7,1.2c0.1-0.2,0.1-0.4,0.2-0.6
			c-0.9-0.7-1.9-1.3-2.9-2.1c0.8-0.6,1.5-1.1,2.6-1.9c-2.4,0-4.4,0-6.3,0c-0.1,0.5-0.1,0.9-0.1,1.1
			C67.7,775.7,64.5,775.6,61.7,777.4z M110,787.8c0.1,0.3,0.3,0.7,0.4,1c0.1-0.1,0.3-0.2,0.4-0.3c-0.2-0.2-0.5-0.4-0.7-0.6
			c0.1-0.3,0.4-0.5,0.4-0.7c-0.6-2.1-1.2-4.2-1.8-6.3c0.6-0.1,0.9-0.1,1.5-0.1c-1.6-1.4-2.9-2.6-4.5-4c1,0,1.5-0.1,2.1-0.1
			c0-0.1,0-0.2,0.1-0.3c-2-0.6-3.9-1.2-5.9-1.8c0,0.1-0.1,0.3-0.1,0.4c1.2,0.4,2.5,0.8,3.7,1.2c0,0.2-0.1,0.4-0.1,0.6
			c-1-0.2-2.1-0.3-3.1-0.6c-2.9-0.9-5.8-1.2-8.8-0.7c-0.9,0.1-1.8,0.5-2.6,0.3c-2.2-0.6-3.8,0.3-5.4,1.8c1.9,1.8,3.1,4.5,6.1,4.9
			c1.9,0.2,3.1,0.7,2.4,2.4c0.4-0.4,1-1.7,1.7-1.7c3.6-0.3,7.2-0.3,10.6-0.3c-0.9,0.3-2,0.6-3.3,1c0.5,2.1,0.9,4.1,1.3,5.8
			c1.2,0.1,2.3,0.5,3.2,0.2C108.4,789.3,109.2,788.4,110,787.8z M111.1,771.1c-3-0.9-5.3-3.9-9-3.1c0.7,1.3,1.3,2.5,2,3.7
			c0.6,1.1,1.5,1.2,2.6,0.9C108.2,772.1,109.6,771.6,111.1,771.1z M76.3,771.1c1,1.3,1.5,2.4,2.4,2.9c2.1,1.3,4.3,0.7,5.9-1.5
			C82.1,770.7,79.3,771.6,76.3,771.1z M51.2,807.3c0.9-0.6,1.5-1,2.5-1.7c-1.8-1.2-3.5-2.3-5.1-3.4c-0.2,0.2-0.4,0.4-0.6,0.7
			C49.2,804.4,50.2,805.9,51.2,807.3z M124.6,781.5c1.1,2.7,1.1,2.7,3.5,3.4C128.6,782.3,126.9,781.6,124.6,781.5z M99.6,762.3
			c0.1,0.3,0.1,0.6,0.2,0.9c1.5-0.3,2.9-0.7,4.4-1c0-0.2-0.1-0.4-0.1-0.6C102.6,761.8,101.1,762,99.6,762.3z"/>
		<path fill="#8BA66D" d="M85.3,813.8c2.5-0.8,4.8,0.7,6.7,2.4c1.5,1.4,2.3,3.4,2,5.6c-0.8,5.6-4.9,7.8-9.1,8
			c-2.6,0.1-5.2,1.2-7.9,0c-4.9-2.1-6.7-6.1-4.7-10.6c0.4-0.8,1-1.7,1.8-2.2C77.8,814.8,80.5,814,85.3,813.8z M83.1,824.3
			c-0.5-0.1-0.9-0.2-1.7-0.4c1.9-0.5,3.5-0.8,5-1.2c1.1-0.3,1.8-0.9,2.2-2.3c0.6-2.4,0.4-3.8-2.4-4c-0.6,0-1.1-0.6-1.8-1
			c0,0.3,0,0.5,0,0.6c0,0.1,0.1,0.1,0.1,0.2c0,0,0,0.1,0-0.1c-2.1,0.3-4.1,0.6-6.1,0.8c0-0.2,0-0.3-0.1-0.5c0.3-0.3,0.6-0.5,0.9-0.8
			c-0.1-0.1-0.1-0.2-0.2-0.3c-0.9,0.4-1.7,0.8-2.7,1.2c1.9,0.7,2,1.2,0.6,2.7c-1.2,1.3-1.4,2.6-0.3,3.9
			C77.8,824.7,81.2,825.2,83.1,824.3z M75,822.2c0.2-0.7,0.3-1.4,0.5-2c-0.3-0.1-0.5-0.1-0.8-0.2c-0.2,1.1-0.4,2.1-0.7,3.6
			c0.9-0.5,1.3-0.7,1.8-1C75.4,822.5,75.2,822.3,75,822.2z"/>
		<path fill="#8BA66D" d="M129.6,822.9c0.2-1.4,0.4-2.6,0.6-3.9c-0.3,2,0.7,4-1.2,5.8c-2.2,2.1-4.8,2.7-7.5,2.7
			c-3.7-0.1-7.4-0.7-11-1c-2.2-0.2-3.8-1-4.9-3c-1-1.9-2.3-3.5-3.3-5.4c-0.6-1.1-1-2.2,0.1-3.4c1-1,0.8-1.3-0.8-3.9
			c-0.1,1-0.2,1.8-0.3,2.6c-0.8-4.5,1.5-7.7,5.9-8.4c3.5-0.6,6.9-0.7,10.2,1c-3.6-1.5-7.2-0.9-10.8-0.3c-1.3,0.2-1.6,0.6-1.5,2
			c0.1,1.7-0.2,3.5-0.3,5.2c1,0.5,2.4,0.8,3.4,1.6c2.5,1.9,4.2,4.1,3.2,7.6c-0.4,1.3,0.9,1.3,1.8,1.3c2.1,0.1,4.3,0.2,6.4,0.4
			c1.1,0.1,2.1,0.5,3.3,0.9C124.7,823.4,126.8,822,129.6,822.9z M107.7,815.4c-1.6-0.1-2.7-0.2-4.3-0.3c0.7,1.2,1.3,2.2,2,3.4
			C106.3,817.4,106.8,816.6,107.7,815.4z M103.1,817.6c1.2,2.9,2.8,5.5,5.2,7.4C106.6,822.6,104.8,820.1,103.1,817.6z"/>
	</g>
</g>
<g>
	<path fill="#7C9461" d="M108.4,46.8c-0.8,0.3-1.6,0.7-2.3,1c-1,0.5-2.1,0.9-3.5,1.6c-0.5-1.1-1.1-2.2-1.7-3.3
		c-0.2-0.4-0.7-0.9-1.1-1c-1-0.1-1.3-0.5-1.3-1.5c0-0.6-0.2-1.2-0.2-1.6c-0.8,0.6-1.5,1.6-2.5,1.9c-1,0.3-2.1-0.2-3.3-0.3
		c-0.1,1.1-0.3,2.3-0.5,3.6c0,0,0.2,0.1,0.5,0.2c-0.1,0.2-0.1,0.3-0.2,0.3c-0.5-0.1-0.9-0.3-1.5-0.5c0.2,0.4,0.4,0.7,0.7,1.1
		c-0.2,0-0.5,0.1-0.8,0.1c-1.8,0-1.9,0-1.8,1.8c0.1,1.4-0.8,2.2-1.6,3.1c-1.6,1.8-3.7,3-5.9,3.9c-1.7,0.6-4.6-0.2-5.6-1.7
		c-0.6-0.9-1.2-0.9-2-0.3c-2.1,1.4-4.5,2.2-7.1,2.4c-3.1,0.2-4.7-1.4-4.8-4.5c0-1.8,0.2-3.3,1.7-4.4c0.2-0.2,0.4-0.4,0.4-0.7
		c0-2.9,1.7-4.7,4-6.2c-1,0.2-2,0.5-3.1,0.7c-0.7,0.1-1.5,0-2.3,0c-0.5,0-1,0-1.4,0.2c-2.4,1.2-4.8,2.6-7.2,3.8
		c0.2,1.3,0.4,3,0.7,4.6c0.1,0.3,0.5,0.7,0.9,0.9c0.4,0.2,0.9,0.2,1.3,0.3c1.6,0.5,3,1.1,2.9,3.1c0,0.1,0,0.2,0,0.3
		c0.4,1.2,1.3,2.3,0,3.5c-0.9,0.8-1.7,1.7-2.5,2.6c-0.3,0.3-0.6,0.6-0.8,1c-0.7,1.2-1.3,2.4-2,3.5c-0.2,0.3-0.9,0.6-1.3,0.6
		c-1.8-0.3-3.7-0.5-5-1.9c-0.8-0.8-1.4-1-2.5-0.1c-1.3,1.2-3.1,1.6-4.9,0.9c-0.8-0.3-1.6-0.6-2.2-1.1c-0.5-0.4-1.1-1.2-1-1.6
		c0.2-0.8,0.9-1.4,1.5-2.1c0.1-0.2,0.6-0.1,0.8-0.2c0.5-0.3,1-0.7,1.4-1c-0.3-0.4-0.6-0.9-1-1.3c-1.9-1.5-1.6-4.8,0.6-6
		c1.4-0.8,1.7-1.4,1.1-2.9c-0.1-0.3-0.3-0.7-0.6-0.7c-1-0.3-2.1-0.6-2.7-1.6c-0.1-0.2-0.7,0-1,0c-1.6,0.1-3.1,0.4-4.7-0.5
		C31.3,45.5,31,43,33,41.8c2.3-1.4,2.7-3.3,2.5-5.7c-0.1-0.8-0.2-1.6-0.1-2.5c0.1-2,0.6-3.8,2.5-5c1.9-1.2,3.7-2.4,6-2.4
		c1,0,1.9,0.4,3.1,0.6c-0.1-0.6-0.3-1-0.4-1.5c0.4-0.2,0.8-0.4,1.2-0.5c0-0.1,0-0.2,0-0.3c-0.6-0.1-1.1-0.3-1.7-0.4
		c0.4-0.3,0.7-0.6,1.3-1.1c-0.8,0.3-1.2,0.4-1.6,0.6c0-0.1-0.1-0.1-0.1-0.2c0.6-0.4,1.3-0.8,1.9-1.2c0-0.1,0-0.3-0.1-0.4
		c-1.1,0.1-2.1,0.1-3,0.2c1.5-0.6,3-1.3,4.6-2c0-0.1,0-0.2,0-0.2c-0.5,0-1-0.1-1.8-0.1c1.2-0.4,1.1-1-0.1-1.7
		c1.9,0.5,3.4,0.8,4.8,1.1c0-0.1,0.1-0.3,0.1-0.4c-0.6-0.4-1.3-0.7-1.9-1.1c0-0.2,0-0.3,0-0.3c1.8-1.1,2.9-3,4.2-4.6
		c1.2-1.5,3.2-1.6,5.1-1.4c0.7,0.1,1.4-0.2,2.1-0.4c1.3-0.4,2.6-0.9,3.9-1.3c0.4-0.1,0.8,0.2,1.5,0.4c-2,0.7-3.7,1.2-5.4,1.8
		c0,0.1,0,0.2-0.1,0.4c1.4,0.4,2.9,0.7,4.3,1.1c0,0.1,0,0.2-0.1,0.3c-2-0.5-4.1-1.1-6.2-1.4c-1.3-0.2-2.6,0-3.9,0c0,0.2,0,0.5,0,0.7
		c4.9,0.5,9.5,3.2,14.7,1.8c0,0.3,0,0.6-0.1,1c-0.9,0-1.8,0.1-2.7,0c-1.8-0.3-3.5-0.7-5.2-1c-1.1-0.2-2.3,0.1-3.3-0.2
		c-1.2-0.3-2.2-0.6-3.2,0.3c0.1,0.1,0.2,0.2,0.3,0.2c-0.9,0.5-1.6,1.1-2.4,1.3c-1.2,0.3-1.1,0.8-0.2,1.7c-1.1-0.3-1.9-0.5-2.7-0.7
		c0,0.2-0.1,0.3-0.1,0.5c0.9,0.2,1.7,0.5,2.6,0.5c0.6,0,1.2-0.4,1.9-0.6c0.7-0.2,1.5-0.2,2.2-0.4c0,0.1,0,0.3,0.1,0.4
		c-0.7,0.2-1.4,0.4-2.1,0.6c0,0.1,0,0.2,0,0.3c1.2-0.1,2.5-0.3,3.7-0.4c0,0.1,0.1,0.2,0.1,0.2c-0.6,0.4-1.2,0.8-1.8,1.2
		c1.9,1.3,2-1.6,3.8-1.3c-0.4,0.5-0.7,0.7-0.9,1.1c-0.2,0.3-0.2,0.7-0.3,1.1c0.1,0,0.2,0,0.3,0c0.5-0.6,0.9-1.2,1.5-1.9
		c0.2,0.5,0.4,0.7,0.5,1c1.1-0.3,2.2-0.6,3.2-0.9c0,0.2,0,0.5,0,1.1c0.6-0.7,1-1.3,1.3-1.6c2-0.5,4-0.9,6.1-1.4c0,0.4-0.1,0.7-0.1,1
		c-0.5,0-0.9,0-1.4,0c0,0.1,0,0.2,0,0.3c0.9,0.1,1.9,0.2,2.9,0.3c-0.8-1.2,0.3-1,0.7-1.4c1.1,1.5-0.7,1.7-1.2,3
		c1.1-0.6,1.9-1.1,2.8-1.6c0.1,0.1,0.1,0.1,0.2,0.2c-0.5,0.8-1,1.6-1.6,2.4c0.1,0.1,0.2,0.2,0.3,0.3c0.4-0.4,0.9-0.8,1.3-1.2
		c0,0,0.3,0.1,0.6,0.2c0,0.4,0,0.8-0.1,1.4c0.5-0.4,0.8-0.8,1.5-1.3c-0.2,1-0.3,1.6-0.4,2.2c0.1,0.1,0.2,0.2,0.3,0.3
		c0.6-0.3,1.1-0.6,1.8-1.1c0.1,0.6,0.2,1.2,0.3,1.8c0.2-0.1,0.4-0.2,0.6-0.3c-0.3,0.8-0.5,1.4-0.8,2.2c0.7,0.3,1.4,0.6,2.1,0.9
		c-0.2,0.8-0.4,1.7-0.6,2.6c0.3,0.3,0.8,0.9,1.4,1.6c-0.8-0.2-1.4-0.4-1.9-0.5c0,2.5,1.9,4,3,5.9c0.2-0.1,0.4-0.2,0.6-0.4
		c0,0.4,0.1,0.8,0.1,1.1c0.1-0.2,0.3-0.4,0.3-0.4c1.5,0.8,2.8,1.8,2.8,3.8c0.1-0.5,0.2-1,0.3-1.6c0.7,0.3,1.7,0.6,0.6,1.6
		c1.1,0.4,1.9,0.9,1.4,2.2c-0.1,0.3,0.2,0.8,0.3,1.3c0.2,0,0.3-0.1,0.5-0.1c-0.2-3-0.4-6.1-0.7-9.1c0-0.2-0.4-0.5-0.6-0.6
		c-1.4-1.3-2.9-2.5-4.3-3.7c-1.2-1.1-2.4-2.4-3.6-3.6c-0.1-0.6-0.2-1.2-0.3-1.8c-0.2-1.8-0.4-3.6-0.6-5.4c0-0.3-0.4-0.8-0.3-0.9
		c1.1-1.1,0-1.5-0.7-1.9c-0.7-0.4-1.5-0.5-2.1-0.9c-2.6-1.8-5.3-2.1-8.1-0.9c0.5-0.4,1.1-0.9,1.6-1.3c0-0.2,0.1-0.6,0.2-0.9
		c0.2,0.2,0.5,0.4,0.6,0.5c4.1,0.7,7.8,1.8,10.4,5.6c0.2,0,0.7-0.2,1.2-0.3c0.1,1.2,0.3,2.4,0.4,3.7c0.1,0,0.2,0,0.4,0
		c0.1-0.4,0.4-0.8,0.4-1.2c0-1.8,0.3-2.4,2-2.9c1.2-0.4,1.3-1.4,1.5-2.3c0.5,0.1,0.9,0.2,1.7,0.4c0.2-1,0.6-2,0.5-2.9
		c0-0.6,0-1,0.3-1.6c0.5-0.9,0.8-2,1.1-2.9c0,0,0.3,0.3,0.3,0.6c-0.1,1.8,0.2,3.6-0.9,5.3c-1,1.3-1,2.9-0.2,4.4l0,0
		c-0.3-0.3-0.6-0.5-1.2-1.1c-0.4,2.2-0.8,4.1-1.2,6c-0.3,1.2-0.3,1.1-1.3,0.4c-0.4-0.2-0.8-0.3-1.4-0.5c-0.2,0.4-0.4,0.8-0.5,1.2
		c0.6,0.9,1.2,1.7,1.7,2.6c-0.1,0.1-0.1,0.1-0.2,0.2c-0.9-0.6-1.7-1.3-2.6-1.9c-0.2-0.2-0.5-0.3-0.7-0.5c-0.1,0.3-0.4,0.8-0.2,1
		c0.3,0.6,0.6,1.2,1.1,1.6c1.7,1.3,3.4,2.5,5.1,3.9c0.8,0.7,1.5,1.5,2.3,2.3c0.3,0.3,0.7,0.6,1.2,1.1c0-0.8-0.1-1.1-0.1-1.6
		c0.3,0,0.6,0,0.9,0l0,0c0.5,2-0.2,3.8-0.9,5.5c-0.6,1.5-0.6,1.5,0.4,2.3c-0.8,0.3-2.3-0.3-1.9,1.6c0.5,0.1,1.1,0.3,1.8,0.3
		c0.4,0,1.1-0.4,1.1-0.5C95,41.3,96.6,41,96.7,40c1.1,0.4,2.2,0.7,3.3,1.1c0-0.6,0-1.1,0-1.7c0.1-0.1,0.2-0.1,0.2-0.2
		c0.2,0.3,0.6,0.7,0.6,1c0.3,2,1.1,2.8,3.1,2.7c0.9,0,1.1,0.1,1.2,1.2c-1.4-0.4-2.7-0.8-4-1.1c-0.3-0.1-0.8,0.4-0.8,0.4
		c0.6,1.2,1.2,2,1.5,3c0.5,1.7,0.8,2,2.4,1.5c0.7-0.2,1.3-0.3,1.9-0.7c0.4-0.2,0.8-0.7,1.3-1.2c0.1,0,0.5,0.1,0.9,0.2
		C108.4,46.4,108.4,46.6,108.4,46.8z M78.8,46.8c0.8,0.2,1.8,0.3,2.8,0.6c0.5,0.1,1.4,0.4,1.4,0.6c0,0.7,0,1.7-0.5,2.1
		c-0.6,0.5-1.7,0.8-2.3,0.6c-1.6-0.6-2.4-0.5-3.3,1.2c1.2,0.9,2.5,1.6,4,1.1c0.7-0.2,1.3-0.6,2-0.8c2.1-0.6,3.1-1.6,3.3-3.6
		c0.2-1.6-0.5-2.6-2-3.3c-0.4-0.2-0.9-0.4-1.1-0.7c-1.2-1.7-2.5-1.9-3.9-0.6c-0.3-0.4-0.7-1.1-1-1c-0.8,0.2-1.1-0.3-1.5-0.9
		c-0.5-0.7-2.5-0.9-2.9-0.2c-0.2,0.4-0.4,0.9-0.7,1.4c0.3,0.4,0.7,1,1.2,1.5c0.4,0.4,1,0.8,1.6,0.9c0.5,0,1.1-0.5,1.7-0.6
		c0.5-0.1,1,0.2,1.4,0.4C79.1,45.6,78.9,46.1,78.8,46.8z M49.9,32.7c-0.4-0.6-0.3-1.4,0.4-1.7c-1.1-0.9-2.2-1.9-3.4-2.8
		c-0.2-0.1-0.2-0.5-0.3-0.6c-1-0.2-2.1-0.2-3-0.5c-1.3-0.4-2.1,0.3-3,0.9c-0.8,0.5-1.6,0.9-2.6,1.3c1.3,0.7,1.2,1.3,0,1.7
		c0.1,0.2,0.2,0.5,0.3,0.5c2.1,0.2,4.1,0.8,5.8,2.1c0.1,0.1,0.2,0,0.4,0c0.6,0,1.2,0,1.8,0c0.4,0,0.8,0,1.1-0.1
		C48.2,33.3,49,33,49.9,32.7z M58.1,37.2c0.3-0.6,0.7-1.1,0.8-1.6c0.1-0.5-0.2-1.1-0.4-1.6c-0.1-0.3-0.4-0.6-0.4-1
		c-0.1-2.5-0.1-2.6-2.5-3.2c-0.5-0.1-1.4,0.3-1.7,0.8c-0.4,0.5-0.2,1.3,0.6,1.7c1.2,0.7,1.8,2.9,1.2,4.2c-0.7-0.1-1.3-0.1-2-0.2
		c-0.4-0.1-0.9-0.3-1.3-0.5c-0.8-0.5-1.6-1.1-2.4-1.5c-0.2-0.1-0.8,0.2-1,0.5c-0.1,0.2,0,0.8,0.2,1c0.8,0.6,1.8,1.2,2.6,1.7
		c-0.2,0.3-0.6,0.8-0.5,1c0.5,0.9,0,2.8,2.1,2.2c0.2-0.1,0.4,0.1,0.6,0.2c1,0.4,1.5-0.3,2-0.9c0.3-0.3,0.6-0.7,0.9-0.9
		c0.8-0.4,1.6-0.7,2.7-1.1C59,37.6,58.6,37.4,58.1,37.2z M71.1,47.8c0.1-0.1,0.1-0.3,0.2-0.4c0.8,0,1.6,0,2.4,0c0-0.1,0-0.2,0-0.2
		c-0.4-0.1-0.8-0.2-1-0.2c-0.3-1.1-0.3-2.2-0.9-2.9c-1.5-1.7-3.3-1.5-5,0.1c-0.9,0.9-0.6,2.6,0.6,2.9c0.9,0.3,1.8,0.5,2.6,0.7
		c0,0.1,0,0.2-0.1,0.3c-0.5-0.1-0.9-0.1-1.4-0.2c0.6,0.4,1.3,0.5,2,0.6c0.2,0,0.5,0.1,0.6,0.2c0.1,0.2,0.2,0.7,0.1,0.8
		c-0.4,0.3-1,0.8-1.3,0.7c-1.6-0.6-3,0-4.4,0.6c1.9,1.6,3.9,2.2,6.5,1.2c1.1-0.4,2-1.5,3-2.3c-0.7-0.3-1.3-0.6-2.1-1
		c0.2,0.5,0.2,0.7,0.3,1c-0.1,0.1-0.1,0.1-0.2,0.2C72.5,49.1,71.8,48.5,71.1,47.8z M53.7,53.8c-0.5-0.1-1.2-0.3-1.9-0.4
		c-0.5-0.1-1,0-1.5-0.2c-0.8-0.4-1.2,0.2-1.5,0.7c-0.3,0.6-0.5,1.3-0.8,1.9c3.4,0,5.5,1.2,5.4,3c0.8,0.5,1.5,0.6,2.3-0.1
		c0.6-0.6,1.6-0.7,2.3-1.2c0.5-0.4,1.2-0.9,1.3-1.5c0.2-1.3-1.9-3-3.7-3.1c0.3,0.2,0.4,0.3,0.5,0.4C55.4,53.4,54.6,53.6,53.7,53.8z
		 M48.8,51.6c0.4-1.4,1.1-2,2.6-1.6c0.8,0.2,1.8-1,1.6-1.8c-0.7-2-2.4-3.6-4.8-2.9c-0.5,0.1-0.8,0.6-1.3,0.7c-1.5,0.4-2,1.6-2.8,2.8
		c1.1,0.3,1.4,0.6,2,1.6c0.1,0.3,0.5,0.5,0.7,0.6C47.4,51.2,48.1,51.3,48.8,51.6z M48.8,37.5c-0.7,0-1.1-0.1-1.6,0
		c-1.8,0.3-3.6,0.6-4.6,2.6c-0.7,1.4-0.8,2.1,0.7,2.3c1,0.1,2-0.6,3.1-1c0.1,0,0.1-0.4,0.2-0.4C48.4,40.6,48.3,39,48.8,37.5z
		 M40.7,54.4c0.7,1,1.5,2.2,3,0.8c0.1-0.1,0.5-0.1,0.6,0c1.2,1.4,1.6,0,2.1-0.5C44.6,53,42.7,51.5,40.7,54.4z M38.6,41.2
		C35.1,40,34.9,40,34,42.1c0.5,0.4,1,1,1.7,1.3c1.1,0.6,1.9,0.1,2.2-1.1C38,41.9,38.4,41.6,38.6,41.2z M53.4,60.4
		c-0.1-0.1-0.1-0.2-0.2-0.4c-0.6,0.2-1.3,0.2-1.8,0.6c-0.3,0.2-0.6,1.3-0.5,1.3c0.6,0.4,1.4,0.8,2.1,0.9c0.6,0.1,1.1-0.2,1.1-0.9
		c0-0.7,0-1.4,0-2c0-0.1-0.1-0.1-0.2-0.2C53.7,59.9,53.5,60.1,53.4,60.4z M72.8,37.8c-0.1,0.1-0.3,0.2-0.4,0.3
		c0.2,0.7,0.3,1.9,0.7,2.1c1.4,0.5,2.3-0.1,2.7-1.4C74.8,38.5,73.8,38.2,72.8,37.8z"/>
	<path fill="#7C9461" d="M71,57.5c2.8,0,4.4,1.1,4.7,2.9c0.1,0.4-0.1,0.9-0.3,1.1c-0.9,0.9-1.9,1.8-3,2.6c-1.3,1-4,0.7-4.9-0.6
		c-1-1.3-0.8-2.9,0.7-4.2C69.2,58.4,70.4,57.8,71,57.5z M68.8,59.9c1,1.2,3.7,1.9,4.8,1.2c0.3-0.2,0.5-1.2,0.3-1.4
		c-0.5-0.6-1.2-1.2-1.9-1.5C70.5,57.7,69.7,58.8,68.8,59.9z"/>
	<path fill="#7C9461" d="M60.9,68.5c-1-0.5-1.8-0.9-2.5-1.4c-0.3-0.2-0.4-0.8-0.2-1.2c0.6-2,3.3-3.3,5.2-2.5
		c1.3,0.5,1.6,2.5,0.4,3.3C62.9,67.4,61.9,67.9,60.9,68.5z M59.7,65.4c1.4,1.5,2.2,0.5,3.1-0.2c0.2-0.1,0.3-0.7,0.3-0.7
		c-0.6-0.3-1.4-0.9-1.9-0.7C60.6,64,60.2,64.8,59.7,65.4z"/>
	<path fill="#7C9461" d="M61.1,49.1c0,1.3-1.5,2.5-3,2.3c-0.6-0.1-1.4-0.3-1.7-0.7c-0.5-0.7,0.3-1.2,0.7-1.9
		c0.7-1.2,1.5-1.3,2.6-1.2C60.6,47.6,61.2,48.1,61.1,49.1z M58,48.9c0,0.1,0,0.2-0.1,0.3c0.7,0.1,1.3,0.2,2.1,0.3
		c-0.1-0.5-0.2-0.9-0.4-1.4C59,48.4,58.5,48.7,58,48.9z"/>
	<path fill="#7C9461" d="M91.8,18.8c2.1,0.8,3.7,2.7,2.8,4.9c-0.7,1.7-1,3.7-1.6,5.5c-0.3,1-0.9,1-1.7,0.6c0.8-1.7,1.7-3.2,2.3-4.9
		c0.4-1.1,0.7-2.4,0.4-3.4C93.7,20.4,92.6,19.6,91.8,18.8C91.8,18.8,91.8,18.8,91.8,18.8z"/>
	<path fill="#7C9461" d="M69.8,7.9c3.2-3.7,7.4-4.5,12-4.4c-1.8,0.3-3.6,0.5-5.3,0.9c-0.9,0.2-1.7,0.8-2.4,1.2
		c-1.4,0.9-2.8,1.8-4.1,2.7C69.9,8.2,69.9,8,69.8,7.9z"/>
	<path fill="#7C9461" d="M69.7,67.3c0.8-0.2,1.6-0.5,2.4-0.7c0.1,0,0.5,0.3,0.5,0.5c0,0.2-0.2,0.6-0.4,0.6c-0.8,0.2-1.6,0.2-2.3,0.3
		C69.8,67.8,69.7,67.6,69.7,67.3z"/>
	<path fill="#7C9461" d="M79.7,13.2c1.3,0.7,2.7,1.5,4,2.2c-0.1,0.1-0.1,0.2-0.2,0.3c-1.3-0.7-2.7-1.5-4-2.2
		C79.6,13.5,79.6,13.4,79.7,13.2z"/>
	<path fill="#7C9461" d="M94.6,33.5c-0.4-1-0.8-2-1.2-2.9c0.1-0.1,0.3-0.1,0.4-0.2c0.4,1,0.9,2.1,1.3,3.1
		C95,33.5,94.8,33.5,94.6,33.5C94.6,33.5,94.6,33.5,94.6,33.5z"/>
</g>
</svg>
