<?xml version="1.0" encoding="utf-8"?>
<!-- Generator: Adobe Illustrator 18.0.0, SVG Export Plug-In . SVG Version: 6.00 Build 0)  -->
<!DOCTYPE svg PUBLIC "-//W3C//DTD SVG 1.1//EN" "http://www.w3.org/Graphics/SVG/1.1/DTD/svg11.dtd">
<svg version="1.1" id="Layer_1" xmlns="http://www.w3.org/2000/svg" xmlns:xlink="http://www.w3.org/1999/xlink" x="0px" y="0px"
	 viewBox="0 0 140 72" enable-background="new 0 0 140 72" xml:space="preserve">
<path fill="#D2FAA5" d="M115.2,60.8H22.8c-2.1,0-3.8-1.7-3.8-3.8V13.4c0-2.1,1.7-3.8,3.8-3.8h92.4c2.1,0,3.8,1.7,3.8,3.8V57
	C119,59.1,117.3,60.8,115.2,60.8z"/>
<g>
	<path fill="#7C9461" d="M86.6,25.4c1.4-0.7,2.6-1.7,4.1-2.2c1.7-0.6,2.7-1.7,3.5-3.3c0.6-1.2,1.5-2.2,2.1-3.4
		c0.3-0.6,0.4-1.3,0.6-1.9c0.6,0.1,1.1,0.3,1.7,0.4c-0.2,1,0.7,2,1.9,2.2c0-0.7-0.1-1.4-0.1-2c0.7,0.5,1.4,1.1,2.1,1.6
		c1.1,0.9,2.2,1.9,3.4,3c-0.5-1.4-0.5-3-1.9-3.8c-0.8-0.4-1.6-0.8-2.4-1.2c0.3,0,0.6,0,1,0c0-0.2,0.1-0.3,0.1-0.5
		c-0.6-0.3-1.3-0.6-2-0.8c-0.1,0-0.4,0.6-0.6,0.9c-0.5,0.2-1,0.4-1.4,0.6c0.7-2.1,2.5-2.8,4.5-0.7c0.6,0.6,1.3,1.1,1.7,1.7
		c0.8,1.2,1.6,2.4,2,3.6c0.2,0.4-0.6,1.3-1.1,1.8c-2.7,2.6-5.4,5.1-8.1,7.9c1.6,0.5,1.7,1.4,1.4,2.6c-0.9,4.3-1.8,8.7-2.6,13
		c-0.2,1.1-0.1,2.3,0,3.5c0.1,0.8-0.2,1.3-0.9,1.6C93.3,51.2,91.1,52,89,53c-3.5,1.5-6.9,3-10.4,4.6c-1,0.5-1.9,0.6-3,0
		c-1.3-0.7-2.9-1.1-4.4-1.7c0.1,2.3-1.1,4.1-2.1,6c-0.5,1-1.4,1.6-2.7,1c0.5-0.4,0.9-0.7,1.3-1c-1.2-1.9-3.1-2-5.2-1.6
		c0.3-0.7,0.4-1.1,0.7-1.7c-1.8,1.3-3.3,0.1-4.7-0.2c1.1,0.1,2.3,0.1,3.5,0.2c0.1-0.3,0.1-0.7,0.2-1.1c-0.8-0.1-1.4,0-2-0.2
		c-1.1-0.3-1.6,0-1.6,1.1c-1.4-0.5-2.7-1-4.3-1.6c0,0-0.4,0.4-0.7,0.3c-0.9-0.3-1.4-1-1.4-1.6c0-0.1-0.1-0.4-0.2-0.4
		c-0.3-0.1-0.6-0.1-0.9,0c-0.3,0.1-0.5,0.3-0.8,0.4c-0.1,0-0.3-0.1-0.5-0.2c1.2-1.4,1-2.1-0.9-2.6c-1.9-0.5-1.9-0.5-2.6,0.3
		c2.6,1,2.6,1,2.4,1.4c-0.7-0.2-1.4-0.4-2-0.5c-0.2,0-0.5,0.3-0.7,0.4c-0.2,0.1-0.3,0.3-0.5,0.4c-0.1-0.3-0.4-0.6-0.4-0.8
		c0.3-0.6,0.7-1.2,1.1-1.7c0.7-0.8,1.5-0.4,2.3-0.2c0.2,0,0.4,0,0.9,0c-0.3-0.5-0.6-0.9-0.8-1.3c0.8-0.8,1.7-1.5,2.4-2.1
		c-0.3-1.4-0.5-2.6-0.7-3.8c-0.6-3.4-1.2-6.9-1.9-10.3c-0.2-1.2-0.8-2.4-1.2-3.6c-0.5-1.6,0.6-2.6,2.6-2.1c-0.7,0.3-1.4,0.6-2,0.9
		c0,0.1,0,0.2-0.1,0.4c1.8,0.5,3.7,1.1,5.5,1.6c0-0.2,0.1-0.3,0.1-0.5c-1.4-0.4-2.8-0.9-4.4-1.3c0.5-0.3,0.7-0.5,0.9-0.6
		c0.8-0.5,0.6-1.2,0-1.5c-0.8-0.4-1.4-0.7-1.4-1.9c0-0.6-0.9-1.3-1.5-1.9c-1.7-2-3.4-4-4.9-6.2c0.7,0.5,1.3,1,2,1.6
		c-1.1-1.3-0.3-2.5,0.2-3.9c2,1.1,2.5,3.3,3.2,4.7c1.1,0.5,1.9,0.8,2.6,1.1c-0.1,0.1-0.1,0.3-0.2,0.4c-0.3,0-0.6,0-1.3,0
		c0.8,0.4,1.3,0.6,1.4,0.6c0,0.7,0,1.2,0,1.8c0.2,0.2,0.4,0.3,0.6,0.5c0.3-0.3,0.6-0.7,0.9-1c-0.1-0.1-0.2-0.2-0.3-0.3
		c0.6,0.5,1.3,0.9,1.9,1.4c0.2-0.1,0.3-0.3,0.5-0.4c-0.3-0.7-0.6-1.4-0.8-2c0-0.4,0-0.6,0-0.9c0.1-1.6-0.2-2.9-1.5-4
		c-1.5-1.4-2.6-3.2-4-4.7c-0.5-0.6-1.3-1.3-1.9-1.2c-0.6,0-1.2,0.9-1.8,1.4c0.1,0.1,0.1,0.2,0.2,0.3c-0.3-0.1-0.6-0.1-1.1-0.3
		c0.3,0.7,0.4,1.2,0.7,1.9c-1.1-0.8-2.1-0.9-3,0.2c0.7-0.8,1.4-1.7,2.2-2.4c0.6-0.6,1.3-1,2-1.4c1-0.5,1.9-0.4,2.6,0.6
		c1.2,1.7,2.6,3.2,3.9,4.8c0.2,0.3,0.5,0.5,1.1,0.6c-0.9-3.1-1.8-6.3-2.8-9.6c1.2-0.7,2.4-1.4,3.5-2.1C52.9,5.4,53,5.5,53,5.6
		c-0.1,0.2-0.3,0.3-0.5,0.6C53,6.2,53.3,6.1,53.9,6c-1.4,0.9-3.1,0.7-3.8,2.1c0.1,0.2,0.1,0.3,0.2,0.5c0.4-0.1,1-0.2,1.2-0.4
		c1.1-1.4,1.5-1.5,2.7-0.8C53.7,8.1,53,8.9,53,9.7c0,0.7,0.8,1.4,1.2,2.1c0.5,0.7,1,1.5,1.6,2.3c-0.4,0.3-0.8,0.6-1.4,1
		c0.8-0.2,1.3-0.2,2.1-0.4c-0.9,0.8-1.4,1.3-0.7,2.2c0.2,0.4-0.1,1.1-0.3,2c0.6,0.2,1.4,0.5,2.5,0.8c0,0.1,0.1,0.4,0.2,0.9
		c-1,0-1.8,0.2-1.5,1.6c0.3,0.3,0.8,0.7,1.4,1.2c0.1-0.3,0.3-0.5,0.5-1c0.2,0.6,0.3,0.9,0.5,1.4c-0.8-0.1-1.4-0.1-2.1-0.2
		c0,0.1-0.1,0.1-0.1,0.2c1.7,1,3.3,1.9,5.4,3.1c-1.4-7.5-2.8-14.7-4.2-21.8c-1.2-0.2-2.1-0.3-3.1-0.4c0.4-0.2,0.7-0.3,1.1-0.5
		c0-0.1-0.1-0.2-0.1-0.4c-1.5,0.6-2.9,1.1-4.4,1.7c0-0.1-0.1-0.2-0.1-0.3C52,5.1,52.4,5,52.6,4.7C54.3,2.6,56,2.9,58,4.4
		c1,0.7,0.9,1.6,1.2,2.4c0.4,1,0.5,2.1,0.8,3.2c0.8-0.3,1.4-0.5,1.8-0.6c0.6-1.3,1.1-2.4,1.6-3.7c-0.2-0.3-1.9-0.9,0.3-1.3
		c0.1,0,0.1-0.6,0.1-1c-0.6,0.1-1.3,0.3-2.1,0.5c0.3,1.2,0.5,2.3,0.7,3.4c-0.1,0-0.3,0.1-0.4,0.1c-0.2-1.2-0.5-2.5-0.7-3.7
		c0.1,0,0.3,0.1,0.4,0.1c0.3-0.4,0.6-0.8,1-1.2c0.1-0.1,0.3-0.3,0.4-0.3c2.2-0.3,4.4-0.6,6.4-0.9c1.9,2.9,1.1,6,1.5,8.8
		c0.3,2.2,0.1,4.5-0.2,6.7c0-0.9-0.1-1.8-0.1-2.7c-0.1-3.4-0.2-6.8-0.3-10.2c0-0.2-0.2-0.5-0.4-0.7c-0.8-0.5-2.8-0.2-3.6,0.5
		c-0.1,0.1-0.4,0.1-0.7,0.2c0.4,0.2,0.8,0.4,1.1,0.5c-0.1,0.8-0.2,1.6-0.3,2.3c0.1,0,0.3,0,0.4,0.1c-0.3,0.3-0.5,0.6-0.9,1
		c0.6,0.3,1,0.5,1.3,0.6c-0.2,0.6-0.4,1.2-0.7,1.8c1,0.1,0.9,0.9,0.7,1.7c0,0.3,0.1,0.5,0.1,0.8c0.4,1.5,0.1,3,0.4,4.4
		c0.2,0.9,0.1,1.8,0.3,2.6c0.1,0.4,0.2,0.9,0.3,1.4c0.2,0,0.7,0.1,1.1,0.2c0,0.1,0,0.1,0,0.2c-0.3,0.1-0.6,0.1-0.9,0.2
		c0,0.6-0.2,1.1-0.1,1.6c0.1,0.7,0.5,1.3,0.6,1.9c0.1,0.6,0.1,1.2,0.2,1.8c-0.1,0-0.3,0.1-0.4,0.1c0.3,0.2,0.6,0.3,1,0.6
		c-0.1,0.4-0.2,0.8-0.2,1.3c1.3,0.6,2,0.5,2-0.4c0-0.5,0.1-1,0.1-1.5c-0.1-1-0.3-2.1-0.5-3.4c1.8,1.7,0.7,3.8,1.5,5.3
		c1.8-0.5,3.6-0.9,5.3-1.5c0.3-0.1,0.6-0.6,0.7-0.9c0.3-2,0.3-4.2,0.9-6.1c1.3-4.4,1.9-8.8,2.1-13.4C81.8,6,82,4.4,82.1,2.8
		c0-0.9,0.3-1.4,1.3-1.6C84.7,0.9,85,0.9,85.6,2c1.6-1.1,3.1-0.3,4.4,0.5c2.2,1.4,0.6,3.6,1,5.7c2.1,0.4,4.1,1.1,5.6,2.9
		c0.2,0.2,0.2,0.6,0.1,1c-1.3-2.3-3.4-2.9-5.8-3.5c-0.7,3.3-1.3,6.5-2,9.7c-0.1,0-0.3-0.1-0.4-0.1c0.5-2.4,1.1-4.8,1.4-7.2
		c0.3-2.4,0.4-4.8,0.4-7.2c0-0.3-0.5-0.6-0.8-1.1c-0.3,0.5-0.4,0.8-0.8,1.3c-0.1-0.7-0.1-1-0.2-1.5C88,2.4,87.3,2.2,86.3,2
		c0.9,1.3-0.2,1.4-0.7,1.9c-0.3-0.5-0.6-1-1-1.4C84.3,2,83.8,1.7,83,1.2c-0.1,1.6-0.3,2.8-0.3,3.9c0,0.3,0.5,0.6,0.8,0.9
		c0.1-0.3,0.2-0.6,0.2-1c0.1-0.6,0.2-1.1,0.2-1.8c0.8,1,1.4,1.8,2.2,2.8c0.3-0.4,0.5-0.7,0.9-1.1c0.2,1.8-0.7,3.1-1.3,4.5
		c0.3,0.2,0.6,0.4,1,0.8c-0.4,0.1-0.7,0.1-0.5,0.1c0.1,0.9,0.3,1.8,0.2,2.6c-0.1,1.2-0.4,2.3-0.5,3.5c0,0.3,0,0.6,0.1,0.9
		c0.6,1,0.1,1.3-0.9,1c1.6,1.5-0.3,2.6-0.1,4c0.3,0.2,0.7,0.4,0.7,0.4c-0.2,0.6-0.7,1.2-0.6,1.7C85,25.2,85.7,25.6,86.6,25.4
		c-0.6,0.3-1.2,0.6-1.9,0.9c-0.8,0.4-1.7,0.7-2.5,1c-0.7,0.3-1.4,0.6-2.2,0.8c-1.3,0.4-2.7,0.7-4,1.2c-0.7,0.2-1.4,0.8-2.1,0.9
		c-1.7,0.3-3.4,0.4-5.1,0.5c-3.2,0.2-6.2-0.2-9.2-1.6c-1.2-0.6-2.5-1-3.8-1.5c-0.1,0.1-0.1,0.3-0.2,0.4c0.6,0.4,1.2,0.7,1.7,1.1
		c0,0.1-0.1,0.2-0.1,0.3c-0.8,0-1.6,0-2.6,0c0.3,0.4,0.5,0.7,0.7,1.1c-0.9-0.3-1.7-0.5-2.4-0.7c0.7,0.6,1.2,1.2,1.8,1.7
		c0.2,0.1,0.4,0.2,0.6,0.2c1.2,0.3,2.5,0.6,3.7,1c2,0.6,4,1.4,6.1,0.2c0.2-0.1,0.5,0,0.7,0.1c0.9,0.6,1.8,1.2,2.7,1.9
		c0.2-0.3,0.4-0.5,0.5-0.8c0.6-1.5,1.9-1.9,3.1-0.9c0.8,0.6,1.3,0.4,1.6-0.6c0.1-0.3,0.2-0.7,0.4-0.9c0.6-0.5,1.4-0.9,1.9-1.6
		c0.8-1.1,1.8-1,2.5-0.4c1.6,1.3,2.8,1,4.2-0.3c0.3-0.3,1-0.4,1.5-0.5c0.9-0.2,1.9-0.1,2.6-0.5c0.8-0.4,1.2-0.3,1.8,0.2
		c0.3,0.2,0.7,0.2,1.1,0.3c0-0.2,0.1-0.3,0.1-0.5c-0.5-0.2-0.9-0.4-1.4-0.5c-0.2-0.1-0.3-0.2-0.5-0.3c2.1-0.9,2.7-2.6,3.3-4.6
		c-0.6,0.4-1.1,0.7-1.6,0.9C88.8,24.6,87.7,25,86.6,25.4z M95.4,32.6c0.2-0.1,0.4-0.1,0.4-0.2c0.6-1.8,0.3-3.5-0.4-5.2
		c-0.1,0-0.3,0-0.4,0C95.1,29.1,95.2,30.9,95.4,32.6c-0.8,0.5-1.7,0.9-2.6,1.4c1.1,0.6,2.2,0.4,3-0.5C95.6,33.1,95.5,32.9,95.4,32.6
		z M100.2,23.5c-0.7,0.4-1.4,0.9-2.3,1.4c0.7,0.2,1.1,0.4,1.6,0.5c0,0.1-0.1,0.2-0.1,0.3c-0.7-0.1-1.4-0.2-2-0.4
		c-0.4,0.5-0.8,1-1.1,1.4c0.3,0.2,0.6,0.5,0.9,0.8c-0.1,0-0.2,0-0.3,0.1c0,0.7,0,1.5,0,2.4c2.1-2.7,2.6-2.7,3.6-5
		C100.9,24,100.2,24,100.2,23.5c0.5,0.3,1,0.7,1.5,1c1.4-1.4,2.8-2.9,4-4.2c-0.9-0.2-2.2-0.4-3.7-0.6c-1.4,0.9,0.3,2,0.4,2.8
		C101.5,22.9,100.8,23.2,100.2,23.5z M66,45.5c0.1,0,0.2,0,0.4,0c0-0.8,0-1.5,0-2.3c-0.5,0.1-0.9,0.1-1.4,0.2c-0.2,0-0.5,0.1-0.7,0
		c-2.2-0.7-4.4-1.5-6.5-2.2c0,0.8,0,1.7,1.5,1.7c-0.4-0.3-0.6-0.5-0.8-0.6c1.5,0.5,3.4,0.1,4.5,1.7c0.1,0.1,0.4,0.1,0.7,0
		C65.6,43.8,65.6,43.8,66,45.5z M87.5,36.1c0-0.1,0-0.2-0.1-0.2c-0.3,0-0.7,0-1,0.1c-1.8,0.7-3.6,1.5-5.4,2.1
		c-2.3,0.8-4.3,2.7-7,1.4c1.1,0.8,2.1,1.2,3.4,0.6c1-0.5,2.1-0.8,3.1-1.2C82.8,37.9,85.2,37,87.5,36.1z M80.4,34.7
		c-0.1-0.1-0.3-0.2-0.4-0.3c-0.9,0.7-1.8,1.4-3.1,2.4c0.7,0.2,1.5,0.6,1.7,0.5C79.3,36.6,79.8,35.6,80.4,34.7z M63.2,11.2
		c0.1-0.1,0.2-0.2,0.3-0.3c-0.6-0.3-1.1-0.6-1.9-0.9c-0.4,0.2-1,0.5-1.5,0.8c0.2,0.8,0.4,1.4,0.7,2.3c0.7-0.6,1.2-1,1.9-1.5
		c-0.8,0.1-1.2,0.1-1.6,0.2c0-0.2,0-0.5,0-0.5c0.3-0.1,0.7-0.1,1-0.1C62.4,11,62.8,11.1,63.2,11.2z M56.6,56.3
		c0,0.2,0.1,0.4,0.1,0.5c0.6-0.1,1.3-0.2,1.9-0.4c0.2-0.1,0.4-0.2,0.7-0.3c-0.2-0.3-0.3-0.7-0.5-0.7c-0.9-0.3-1.9-0.6-2.8-0.8
		c0,0.1-0.1,0.2-0.1,0.3c0.5,0.2,1,0.4,1.7,0.7C57.1,55.9,56.9,56.1,56.6,56.3z M63.5,2.5c0,0.1,0.1,0.2,0.1,0.3c1.7,0,3.5,0,5.2,0
		c0.2,0,0.4-0.2,0.6-0.4C69.2,2.3,69,2,68.9,2C67.1,2.2,65.3,2.3,63.5,2.5z M62.2,47.1c0.6-0.3,0.9-0.5,1.2-0.6
		c0-0.1-0.1-0.2-0.1-0.3c-1.1-0.3-2.1-0.6-3.2-0.9c0,0.1-0.1,0.2-0.1,0.4c0.8,0.3,1.6,0.5,2.4,0.8c-0.1,0.3-0.2,0.7-0.3,1.2
		c0.5,0.1,0.9,0.2,1.3,0.2c0-0.1,0-0.1,0-0.2C63.1,47.5,62.8,47.4,62.2,47.1z M94.6,25.5c-0.9-1.1-1.7-1.9-2.9-1.2
		c-0.4,0.2-0.3,1-0.5,1.6c0,0,0.1,0.1,0.2,0.1c0.1-0.4,0.2-0.7,0.3-1.1C92.6,25.1,93.5,25.3,94.6,25.5z M93.2,32.3
		c1.5,0.3,2-0.2,1.8-1.2c-0.1-1.1-0.3-2.2-0.5-3.3c0-0.1-0.3-0.2-0.7-0.4c0.2,1.6,0.5,3.1,0.7,4.5C94.1,31.9,93.9,32,93.2,32.3z
		 M94,26.9c0.1-0.1,0.3-0.2,0.4-0.3c-0.3-0.3-0.6-0.8-1-1c-0.2-0.1-0.9-0.1-1,0.1c-0.2,0.6-0.3,1.3-0.5,1.9c0.2,0,0.3,0.1,0.5,0.1
		c0.2-0.6,0.4-1.2,0.7-1.9C93.5,26.4,93.8,26.7,94,26.9z M52.8,13c0.1-0.1,0.1-0.3,0.2-0.4c-0.3-0.2-0.6-0.4-0.8-0.6
		c0.2-0.3,0.4-0.6,0.8-1.1c-0.7,0-1.2-0.1-1.4,0c-0.2,0.2-0.2,0.8-0.1,1.1C51.8,12.5,52.4,12.7,52.8,13z M63.4,36.5
		c0-0.1,0.1-0.3,0.1-0.4c-0.7-0.4-1.5-0.8-2.2-1.1c0,0.1-0.1,0.2-0.1,0.3c0.3,0.5,0.6,0.9,1,1.4C62.7,36.6,63,36.5,63.4,36.5z
		 M77.4,33.6c-0.5,0-1-0.1-1,0c-0.2,0.8-0.3,1.6-0.5,2.5c0.1,0,0.2,0.1,0.3,0.1C76.5,35.3,76.9,34.6,77.4,33.6z"/>
	<path fill="#7C9461" d="M35.1,55.2c1.3,0.8,2.5,1.7,3.8,2.5c0.3,0.2,0.8,0.1,1.2,0.2c0.7,0.2,1.4,0.5,2.1,0.7c0.5,0.1,1,0,1.5,0
		c0.6,1.4,1.9,1.5,4-0.1c-0.4,0.9-0.6,1.5-1,2.2c0.8-0.5,1.6-0.9,2.5-1.5c-0.2,0.5-0.3,0.8-0.4,1.2c1.2,0.5,2.5,1.4,3.8,1.5
		c1.1,0.1,2,1,3,0.7c1.1-0.3,2.1-1.1,3.1-1.9c-2.4-0.5-4.7-0.9-7.4-1.4c0.4-0.2,0.5-0.4,0.6-0.3c2.8,0.5,5.6,0.9,8.4,1.5
		c0.6,0.1,1,0.7,1.6,1c0.5,0.3,1.1,0.4,1.7,0.7c-0.6,0.9-0.6,2-0.4,3.1c0.2,1.3-0.1,2.3-1.4,2.9c-0.3,0.1-0.5,0.4-0.7,0.6
		c-0.9,1.5-2.1,1.9-3.8,2c-2.2,0.1-4-0.9-5.9-1.7c-2.9-1.2-5.8-2.5-8.7-3.9c-0.8-0.3-1.5-0.8-2.1-1.3c-1.5-1.3-3.2-2.3-5.1-2.9
		c-0.4-0.1-0.6-0.5-1-0.7c0.5,0,0.9,0.1,1.4,0.1c-0.3-1.1-0.9-1.6-2.2-1.1c0.3,0.4,0.6,0.7,0.8,1c-1.7-0.3-1.6-0.3-1-1.9
		c0.2-0.6,0.9-1.5-0.2-2.1c-0.1,0,0.1-0.9,0.3-1.1C34.1,55.3,34.7,55.3,35.1,55.2C35.2,55.3,35.1,55.2,35.1,55.2z M55.8,68.8
		c-0.4,1.1,0.1,1.4,0.9,1.4c0.7,0,1.4-0.2,2.1-0.1c1.1,0,1.8-0.4,1.5-1.8C58.8,69.3,57.4,70.1,55.8,68.8z M54.2,65.5
		c0.8,0.3,2.3-0.5,2.9-1.7c-0.8,0.1-1.6,0.2-2,0.2C54.7,64.6,54.5,65.1,54.2,65.5z"/>
	<path fill="#7C9461" d="M73.2,8.4c0.5,4.6,0.1,9.2-0.8,13.7C72.7,17.6,73,13,73.2,8.4z"/>
	<path fill="#7C9461" d="M38.2,51.4c0.3,0.1,0.7,0.3,1,0.4c-0.2,0.1-0.3,0.3-0.5,0.4c-0.4-0.5-0.8-0.9-1.5-1.7
		c3.3-0.5,3.4,2.8,5.4,3.5c0.4-0.1,0.9-0.3,1.5-0.6c0.1,0.1,0.1,0.2,0.2,0.3c-0.4,0.2-0.7,0.5-1.2,0.8c0.3,0.4,0.6,0.8,1.1,1.3
		c-2.6-1-3.6-3.6-5.5-5.2C38.6,51,38.4,51.2,38.2,51.4z"/>
	<path fill="#7C9461" d="M91.9,21.2c1.2-2.2,2.4-4.4,3.7-6.5c0.1,0.1,0.2,0.1,0.3,0.2c-1.2,2.2-2.4,4.4-3.6,6.6
		C92.2,21.4,92,21.3,91.9,21.2z"/>
	<path fill="#7C9461" d="M88.8,19.3c-0.4,1.7-0.8,3.5-1.3,5.2c-0.2,0-0.3-0.1-0.5-0.1c0.4-1.8,0.8-3.5,1.2-5.3
		C88.5,19.2,88.7,19.2,88.8,19.3z"/>
	<path fill="#7C9461" d="M81.3,8.9c-1.1-2.5-3.3-1.4-4.8-1.9c0.8-0.4,4-0.3,4.5,0.4C81.2,7.8,81.2,8.4,81.3,8.9z"/>
	<path fill="#7C9461" d="M67.3,63.8c-0.8,0.7-1.7,1.4-2.6,2.2c-0.1-0.1-0.3-0.5-0.5-0.9c1.1-0.6,2-1.1,3-1.6
		C67.2,63.6,67.3,63.7,67.3,63.8z"/>
	<path fill="#7C9461" d="M71,23.3c-0.1-1.4-0.2-2.8-0.3-4.3c0.1,0,0.2,0,0.4,0c0.1,1.4,0.3,2.8,0.4,4.3C71.3,23.2,71.2,23.3,71,23.3
		z"/>
	<path fill="#7C9461" d="M35.9,53.5c-0.1-0.6-0.2-1.1-0.4-1.7c0.7,0.5,1.2,0.8,1.8,1.2c0,0.1-0.1,0.2-0.1,0.3
		C36.7,53.4,36.2,53.4,35.9,53.5z"/>
	<path fill="#7C9461" d="M35.2,55.3c-0.4-0.3-0.8-0.7-1.3-1c0.2-0.3,0.4-0.7,0.6-1.1c0.4,0.3,0.9,0.7,1.2,1
		C35.5,54.6,35.3,54.9,35.2,55.3C35.1,55.2,35.2,55.3,35.2,55.3z"/>
</g>
</svg>
