<?xml version="1.0" encoding="utf-8"?>
<!-- Generator: Adobe Illustrator 18.0.0, SVG Export Plug-In . SVG Version: 6.00 Build 0)  -->
<!DOCTYPE svg PUBLIC "-//W3C//DTD SVG 1.1//EN" "http://www.w3.org/Graphics/SVG/1.1/DTD/svg11.dtd">
<svg version="1.1" id="Layer_1" xmlns="http://www.w3.org/2000/svg" xmlns:xlink="http://www.w3.org/1999/xlink" x="0px" y="0px"
	 viewBox="0 0 140 72" enable-background="new 0 0 140 72" xml:space="preserve">
<path fill="#D2FAA5" d="M115.2,60.8H22.8c-2.1,0-3.8-1.7-3.8-3.8V13.4c0-2.1,1.7-3.8,3.8-3.8h92.4c2.1,0,3.8,1.7,3.8,3.8V57
	C119,59.1,117.3,60.8,115.2,60.8z"/>
<g>
	<path fill="#7C9461" d="M68.2,71C68.2,71,68.2,71,68.2,71C68.2,71,68.2,71,68.2,71L68.2,71z"/>
	<path fill="#7C9461" d="M85.4,5.6L85.4,5.6C85.5,5.6,85.5,5.6,85.4,5.6z"/>
	<path fill="#7C9461" d="M64.6,1.2C64.6,1.2,64.6,1.2,64.6,1.2L64.6,1.2z"/>
	<path fill="#7C9461" d="M78.7,28C78.7,28,78.7,28,78.7,28C78.7,28,78.7,28,78.7,28C78.7,28,78.7,28,78.7,28
		C78.7,28,78.7,28,78.7,28z"/>
	<path fill="#7C9461" d="M64.5,1.2L64.5,1.2C64.5,1.2,64.5,1.2,64.5,1.2z"/>
	<path fill="#7C9461" d="M98.2,24.6c-3.5-0.1-6.7,1.4-9.9,2.9c0-0.1-0.1-0.3-0.1-0.4c0.2-5.2-0.2-10.3-1.3-15.4
		c-0.2-0.7-0.5-1.4-0.8-2.1c-0.1-0.2-0.5-0.4-0.6-0.4c-0.3,0.1-0.6,0.4-0.6,0.7c-0.1,1.2-0.1,2.4-0.2,3.6c0,1.7,0.2,3.4,0,5
		c-0.5,3.7-1.2,7.3-1.8,11c-0.1,0.6-0.2,1.2-0.6,1.6c-1.2,1.1-2.6,2.1-3.9,3.2c-0.1-0.2-0.3-0.4-0.3-0.6c0-1.1-0.9-2.2-0.1-3.3
		c1.2-1.4,2.4-2.8,3.6-4.3c0.2-0.2,0.3-0.6,0.4-0.9c-0.4-0.1-0.8-0.4-1.1-0.3c-0.6,0.2-1.2,0.4-1.8,0.8c-0.9,0.6-1.9,1.2-3,1.9
		c-0.3-2.9-0.6-5.7-0.7-8.4c-0.1-2.2-0.1-4.4-0.2-6.6c0-0.3-0.3-0.7-0.5-1c-0.4,0.2-0.8,0.3-1,0.7c-0.3,0.4-0.5,0.9-0.6,1.4
		c-0.4,1.6-0.7,3.2-1,4.8c-0.9,4.1-1,8.3-0.1,12.4c0.1,0.4,0.3,0.9,0.1,1.2c-0.3,0.6-0.8,1.1-1.2,1.7c-1.6-1.3-2.8-2.6-3.1-4.8
		c-0.7-4.5-1.7-8.9-2.3-13.3c-0.5-3.8-0.6-7.7-0.9-11.5c-0.1-1-0.2-1.9-0.3-2.9c0,0,0,0,0,0c0,0,0,0,0,0c0,0,0,0,0.1,0c0,0,0,0,0,0
		c0,0,0-0.1,0-0.1c0,0,0,0-0.1,0c-0.4-0.1-0.6,0.1-0.9,0.3C63.6,1.8,63.4,2.2,63,3c-0.2,0.5-0.4,1.1-0.5,1.6c-1,4.2-1,8.5-0.9,12.8
		c0.1,3,0.3,6,0.5,8.9c-1.4-0.3-2-1.6-2.7-2.7c-1.9-2.9-3.9-5.6-6.3-8c-1.3-1.3-2.5-2.6-3.8-3.8c-0.3-0.2-0.8-0.2-1.2-0.3
		c0,0.4-0.1,0.7-0.1,1.1c0,0.2,0.1,0.4,0.2,0.6c1.5,2.3,3,4.6,4.5,6.9c0.6,0.9,1,1.9,1.6,3c-1.2-0.4-2.1-0.7-3-0.9
		c-1.3-0.3-2.5-0.6-3.8-0.8c-0.3,0-0.6,0.3-0.9,0.5c0.2,0.2,0.3,0.6,0.6,0.7c2.5,1.5,4.9,3,7.5,4.5c0.8,0.4,1.2,1,1.5,1.8
		c0.4,1.4,0.9,2.8,1.3,4.2c0.5,1.8,0.9,3.6,1.4,5.5c-1.6-1.3-3.1-2.6-4.7-3.6c-3.8-2.4-7.6-4.8-12.4-4.3c-0.2,0.2-0.5,0.4-0.6,0.7
		c0.1,0.1,0.3,0.2,0.5,0.3c1.2,0.7,2.5,1.2,3.7,2c3.6,2.2,7.1,4.6,9.7,8c0.6,0.8,1.3,1.6,2,2.5c-0.3,0.1-0.4,0.2-0.5,0.1
		c-0.5-0.1-0.9-0.2-1.4-0.3c-3.4-0.8-6.9-1-10.4-0.5c-0.4,0.1-0.7,0.5-1.1,0.7c0,0.1,0.1,0.2,0.1,0.3c2.6,0.7,5.3,1.5,7.8,2.2
		c-0.4,1.7-0.2,3.2,0.6,4.3c0.7,0.9,1.1,1.9,1.3,3c0.3,1.5,0.5,3,0.9,4.4c0.7,2.1,1.3,4.2,3.5,5.3c0.6,0.3,1.2,0.7,1.8,1
		c3,1.3,5.9,2.4,8.9,3.7c1.6,0.7,3.3,1.2,5,0.5c3.9-1.6,7.7-3.2,11.3-5.5c1.3-0.9,1.7-2,2.1-3.3c0.2-0.7,0.2-1.5,0.4-2.2
		c0.3-2,0.8-4,0.4-6.1c-0.1-0.6-0.2-1.4,0.1-1.7c0.9-0.8,0.9-1.8,0.8-2.8c-0.1-0.7-0.2-1.4-0.3-2.2c-0.1-1.1-1.1-0.8-1.6-1.2
		c-0.2-0.2-0.5-0.5-0.5-0.8c0.4-3.2,0.9-6.5,1.5-9.7c0.1-0.3,0.3-0.7,0.5-0.9c2-2.1,4.5-3.6,7-5.1c1.1-0.7,2.2-1.2,3.5-1.9
		c0,0.3,0,0.5,0,0.7c0.1-0.1,0.1-0.3,0.2-0.3C98.9,25.3,98.6,24.9,98.2,24.6z M63.2,3.9c0-0.3,0.4-0.7,0.7-1
		c0.8,8.5,1.1,16.9,3.1,25.2c-1.2,0-1.5-0.3-1.6-1.3c-0.1-1-0.3-1.9-0.5-2.9c-0.1-0.6-0.3-1.3-0.4-1.9c-0.1-0.5-0.3-1-0.4-1.5
		c-0.1-0.3,0-0.7,0-1.1c-0.1-0.9-0.2-1.8-0.3-2.7c-0.2-1.9-0.7-3.8-0.7-5.7C62.9,8.6,63.1,6.3,63.2,3.9z M54.2,20.6
		c-0.8-1.1-1.4-2.4-2.1-3.6c-0.9-1.4-2-2.7-2.9-4.1c-0.1-0.1-0.1-0.2-0.2-0.3c0.1-0.1,0.2-0.1,0.2-0.2c0.4,0.5,0.9,0.9,1.3,1.4
		c2.2,2.6,4.3,5.3,6.5,8c0.4,0.5,0.6,1.2,0.8,1.9c0,0.1,0.1,0.2,0.1,0.2c0.8,0,0.2,0.5,0.3,0.9c-0.8-0.3-1.6-0.6-2.4-1
		c-0.1-0.1-0.1-0.3-0.2-0.5C55.1,22.4,54.8,21.5,54.2,20.6z M54.5,37.7c-1-0.7-2.1-1.4-3.1-2.1c-0.9-0.6-1.7-1.2-2.6-1.7
		c-1.5-0.9-3.1-1.7-4.6-2.5c0,0,0-0.1,0-0.1c1.6,0.5,3.2,0.7,4.7,1.5c2.2,1.1,4.2,2.6,6.2,3.9c0.2,0.1,0.3,0.4,0.4,0.5
		c0.8,0.7,1.6,1.4,2.4,2.1C56.3,39.6,55.5,38.4,54.5,37.7z M66.1,50.9c-0.4-0.2-0.8-0.5-1.2-0.7c-0.9-0.4-1.8-0.7-2.6-1
		c-0.5-0.2-0.9-0.4-1.4-0.7c-0.8-0.6-1.9-0.9-2.7-1.7c-0.7-0.6-1.9-0.6-2.9-0.9c-1.5-0.4-3-0.9-4.5-1.5c1.4,0.2,2.8,0.3,4.3,0.6
		c1.8,0.3,3.6,0.7,5.3,1.3c1.2,0.4,2.3,1,3.3,1.7c1,0.7,1.8,1.7,2.8,2.6C66.2,50.7,66.1,50.8,66.1,50.9z M63.5,39
		c-0.1,0-0.3,0.1-0.5,0.2c-0.5,0.4-0.6,0.4-0.7-0.2c-0.1-0.5-0.3-1-0.3-1.6c0-0.3,0.4-0.6,0.7-0.8c0.1-0.1,0.6,0.3,0.7,0.5
		c0.1,0.3-0.1,0.7-0.1,1C63.3,38.5,63.4,38.7,63.5,39z M62.1,35.8c-0.5-0.1-0.9-0.1-0.9-0.8c0-0.8-0.2-1.6-0.4-2.7
		c2.2,0.8,1.4,2.8,2.1,4C62.7,36.1,62.4,35.9,62.1,35.8z M66.1,32.8c-0.1-0.1-0.2-0.3-0.3-0.3c-0.8,0.2-1.2-0.5-1.7-0.9
		c-0.8-0.6-1.4-1.4-2.1-2.1c-1-1-2-1.9-3.5-2.3c-0.5-0.1-1-0.6-1.4-0.8c0,0,0.1,0,0.4-0.1c-3.3-1.4-6.5-2.8-9.7-4.1
		c0-0.1,0-0.1,0-0.2c1.4,0.4,2.8,0.6,4.2,1.1c2.4,0.9,4.9,1.8,7.2,2.8c1.2,0.5,2.2,1.3,3.2,2c0.7,0.4,1.4,0.8,2,1.3
		c1.2,0.9,2.4,1.8,3.6,2.7c1.3,1,1.4,2.4,1.5,4.1C68.3,34.8,67.2,33.8,66.1,32.8z M73.5,19.8c0-1,0.4-2.1,0.2-3
		c-0.4-1.5,0.8-2.6,0.7-4c0.1,0,0.3,0,0.4,0c0,0.8,0,1.6,0,2.4c0.1,2.9,0.1,5.8,0.3,8.7c0.1,1.1,0.3,2.3,0.4,3.4c0,0.3,0.1,0.7,0,1
		c-0.1,0.2-0.3,0.4-0.5,0.6c-0.2-0.2-0.7-0.4-0.7-0.6c-0.2-1.9-0.4-3.8-0.6-5.7C73.5,21.7,73.4,20.7,73.5,19.8z M70.9,36.8
		c-0.1-0.1-0.2-0.2-0.2-0.3c0.8-1.1,1.5-2.2,2.3-3.2c1.3-1.6,2.6-3.1,3.9-4.6c0.5-0.5,1.1-0.9,1.9-0.7c0,0,0,0,0,0c0,0,0,0,0,0
		c-0.2-0.1-0.5-0.2-0.7-0.3c1.1-0.8,2.1-1.5,3.1-2.3c0.1,0.1,0.1,0.1,0.2,0.2c-0.9,0.8-1.7,1.6-2.6,2.4c0,0,0,0,0,0c0,0,0,0,0,0
		c-0.7,0.9-1.4,1.7-2,2.6c-0.6,0.8-1.4,1.4-1.5,2.5c0,0.1-0.1,0.9-0.8,0.5c-0.1,0-0.5,0.6-0.7,0.9c0.1,0,0.2,0.1,0.4,0.1
		c0,0.1,0,0.1,0,0.2c-0.3,0.1-0.5,0.1-1,0.2c0.3,0.1,0.5,0.2,0.8,0.3C72.8,35.8,71.8,36.3,70.9,36.8z M77.7,46.7
		c-0.3-0.5-0.6-1.1-0.9-1.8c-0.2,0-0.5,0.1-1,0.2c0.2-0.3,0.3-0.5,0.3-0.5c-0.3-0.5-0.5-0.8-0.7-1.2c-0.6-0.9-1.2-1.8-1.8-2.8
		c-0.1-0.2-0.1-0.5,0-0.7c0.1-0.3,0.3-0.5,0.6-0.9c0.2,0.5,0.2,1.1,0.5,1.5c0.5,0.7,1.1,1.3,1.6,2.1C77,43.8,78,45,77.7,46.7z
		 M81.1,35.9c-1.2,1.5-2.6,3-3.9,4.4c-0.1,0.1-0.3,0-0.5,0c-0.1-2.2,0.9-3.6,2.7-4.6c0.2-1.3,1.9-0.7,2.2-1.9
		c0.1,0.1,0.2,0.1,0.2,0.2C81.6,34.6,81.5,35.4,81.1,35.9z M86.8,30.5c-0.1,1.1-0.2,2.3-0.5,3.4c-0.2,0.7,0,1.5-0.8,2
		c-0.2,0.1-0.2,0.7-0.2,1.1c0.2,1,0.2,1-0.9,0.7c-0.5-0.9,0.9-1.8,0.1-2.9c0.1,0,0.4-0.1,0.4-0.2c-0.2-1.2,1-2.2,0.4-3.6
		c-0.2-0.4-0.4-1.7,0.5-2.4c0.2-0.1,0-0.7,0.1-1.1c0.1-1.1,0.4-2.2,0.4-3.2c-0.1-0.7,0.3-1.4-0.2-2.2c-0.2-0.3,0.1-0.9,0.2-1.4
		c-0.2-3.2-0.5-6.4-0.8-9.6c0.1,0,0.2,0,0.4-0.1c0.3,1.1,0.7,2.3,0.8,3.4c0.3,1.9,0.4,3.8,0.5,5.6c0.1,1.6,0,3.3,0,4.9
		C87.4,26.9,87,28.7,86.8,30.5z M91.8,27.6c-1,0.5-1.9,1.1-2.8,1.6c-0.2,0.1-0.6,0.3-0.7,0.2c-0.2-0.1-0.3-0.5-0.3-0.7
		c0-0.2,0.3-0.3,0.5-0.4c0.7-0.4,1.5-0.9,2.2-1.3c0.9-0.4,1.9-0.8,2.9-1.1c0.3-0.1,0.7,0,1,0.1c0,0.1,0,0.2,0,0.3
		C93.8,26.7,92.8,27.1,91.8,27.6z"/>
	<path fill="#7C9461" d="M68.2,71c-0.6-0.3-1.3-0.7-1.9-1c0,0,0-0.1,0.1-0.1c0.6,0,1.3,0,1.9,0C68.2,70.2,68.2,70.6,68.2,71
		C68.2,71,68.2,71,68.2,71z"/>
</g>
</svg>
