<?xml version="1.0" encoding="utf-8"?>
<!-- Generator: Adobe Illustrator 18.0.0, SVG Export Plug-In . SVG Version: 6.00 Build 0)  -->
<!DOCTYPE svg PUBLIC "-//W3C//DTD SVG 1.1//EN" "http://www.w3.org/Graphics/SVG/1.1/DTD/svg11.dtd">
<svg version="1.1" id="Layer_1" xmlns="http://www.w3.org/2000/svg" xmlns:xlink="http://www.w3.org/1999/xlink" x="0px" y="0px"
	 viewBox="0 0 140 72" enable-background="new 0 0 140 72" xml:space="preserve">
<path fill="#D2FAA5" d="M115.2,60.8H22.8c-2.1,0-3.8-1.7-3.8-3.8V13.4c0-2.1,1.7-3.8,3.8-3.8h92.4c2.1,0,3.8,1.7,3.8,3.8V57
	C119,59.1,117.3,60.8,115.2,60.8z"/>
<g>
	<path fill="#7C9461" d="M69,22.1c2.2-0.9,4.5-1.8,6.7-2.7c0,0,0-0.1,0-0.1c-2.5,0.3-5.1,0.7-7.6,1c-0.8,0.1-1.6,0.2-2.3,0.2
		c-2.7,0.1-5.4,0.3-8,0.3c-2.5,0-5,0-7.4-0.2c-1.7-0.2-3.5-0.5-5.2-1.1c-1-0.4-1.6-1.4-2.7-2.4c1.2-0.3,2.1-0.5,3-0.7
		c0-0.1-0.2-0.3-0.3-0.5c0.1-0.1,0.2-0.3,0.3-0.3c2,0.2,4,0.4,6.1,0.5c-1.4,1,0.7,1,0.5,1.6c-0.7,0-1.4,0-2.2,0c0,0.1,0,0.3,0,0.4
		c0.9,0,2.1,0.4,2.6-0.1c1-0.9-0.7-1.2-0.9-1.9c0,0,0-0.1,0-0.2c2.8,0.4,5.6,0.7,8.3,1.1c0.3,0,0.8,0.3,0.9,0.6
		c0.6,1.5,1.9,1.6,3.1,1.4c3.2-0.3,6.3-0.7,9.5-1c0.7-0.1,1.3-0.2,2,0c-1.2,0.3-2.4,0.5-3.5,0.8c0,0.1,0,0.2,0,0.3
		c1.3-0.2,2.6-0.2,3.9-0.5c3.1-0.8,6.3-1.6,9.4-2.5c0.3-0.1,0.4-0.5,0.6-0.8c1.4-0.4,2.8-0.8,4.3-1.3c-0.4,1.6,1.2,1.9,1.8,2.8
		c0.6,0.9,0.8,2.2,2.6,2.2c-0.4-1.3-0.8-2.4-1.2-3.6c0.1,0,0.2,0.1,0.2,0.1c0-0.7,0.1-1.4,0.1-2.1c0.8,0.2,1.6,0.4,2.3,0.7
		c0.1-0.2,0.1-0.4,0.2-0.6c-0.7-0.2-1.4-0.5-2.2-0.7c0,0-0.2,0.5-0.3,0.7c-0.3,0-0.5,0-0.8-0.2c-2.8-1.6-6.5-0.8-8.4,1.9
		c0.4,0,0.8,0,1.3,0c-1,0.3-2,0.6-3,1c1-1.9,2.6-3.1,4.5-3.7c0.2-0.1,0.5-0.3,0.7-0.3c2.1,0.3,3.1-1.1,4.3-2.5
		c1.3-1.6,2.8-3.1,4.2-4.6c0.1,0.1,0.2,0.2,0.4,0.3c-1.9,2.1-3.8,4.3-5.7,6.4c3.6,1.1,6.3-0.8,9.4-2.6c-0.7,0-1-0.1-1.5-0.1
		c1.4-1,2.6-1.9,3.8-2.8c0,0,0,0,0,0c0.4-0.2,0.9-0.4,1.3-0.6c0,0,0.1,0.1,0.1,0.1c-1.1,0.9-2.3,1.8-3.4,2.7
		c0.1,0.2,0.2,0.3,0.3,0.5c1.6-1,3.3-2.1,5-3.2c0.2,1.6-1,1.9-1.8,2.3c-2.1,1.1-4.3,2.2-6.6,3.4c1.6,0.3,9.2-3.6,9.2-4.8
		c0.6,0.2,1.1,0.4,1.9,0.7c-4.5,2.4-8.6,4.6-12.7,6.8c1.2,1.2,2.2,2.2,3.1,3.1c0.1-0.1,0.2-0.2,0.3-0.2c-0.6-0.9-1.2-1.8-2-3.1
		c3-1.5,5.9-3,8.8-4.4c0.3-0.1,0.8,0.2,1.2,0.4c0.4,0.2,0.7,0.4,1.1,0.6c-0.4,2.1-3.8,0.4-3.9,3.1c1.4-0.6,2.6-1.1,3.7-1.5
		c0.6,1,1.2,1.8,1.6,2.7c0.1,0.2-0.2,0.8-0.5,1c-1.5,0.8-3,1.7-4.6,2.4c-1.2,0.5-2.5,0.9-3.4,1.2c-0.2,1.7-0.4,3.4-0.7,5
		c-0.4,2-1.3,2.7-3.3,2.8c0.1-0.4,0.3-0.7,0.4-1c-0.4,0-0.8,0-1.4,0c1.7-1.8,3.9-3.2,2.8-6c-1.2,0.2-2.3,0.5-2.8,1.9
		c-0.8,2.2-2.1,3.6-4.6,4.3c-1.1,0.3-2.1,2.4-2.4,3.9c-0.3,1.7,0.1,3.6,0.2,5c1.5,0.8,2.8,1.1,3.7,2c1.1,1.1,1.9,2.5,2.8,3.7
		c0.8,1.1,1.9,2.1,2.2,3.3c0.4,1.4,1.9,2.7,1,4.4c-0.1,0.2,0.1,0.6,0.2,0.9c0.2,0.6,0.3,1.2,0.5,2.1c-5.5-1.1-7.1-5.5-9.4-9.3
		c-0.7,0.5-0.7,0.5-0.3,1.8c0.1,0.4,0,0.8,0,1.2c-0.3,0-0.7-0.1-1-0.1c-0.9,1.8,1.4,1.5,1.9,2.4c-0.4,0.3-0.8,0.5-1.1,0.7
		c-1.1-1.2-2.1-1.2-3.2,0.3c0.7-0.4,1-0.6,1-0.6c1,0.6,1.7,0.9,2.4,1.3c0.2,0.1,0.4,0.2,0.4,0.4c0.1,1.5,0.3,2.9,0.3,4.4
		c0.1,1.2,0,2.4,0,3.8c0,0-0.4,0.1-0.7,0.1c-0.3,0.8-0.5,1.6-0.8,2.4c-2.8-2.5-4.1-6.9-3-9.8c-2.1-1.3,0.4-2.5,0.1-3.9
		c-0.7,0.1-1.3,0.2-2.2,0.3c0.3,0.7,0.6,1.1,0.8,1.6c-0.2,0.2-0.7,0.6-0.7,0.6c1.2,1.5-0.6,2.2-0.7,3.6c-0.6-0.3-1-0.5-1.5-0.7
		c-0.7,1.9-1.4,3.8-2.2,5.7c-0.2,0.4-0.8,0.7-1.4,1.1c-0.3-0.6-0.5-1-0.7-1.4c-0.2,0-0.3,0.1-0.5,0.1c0.2,0.7,0.4,1.5,0.6,2.2
		c0.2-0.2,0.4-0.3,0.7-0.5c0.1,0,0.2,0.1,0.3,0.1c-0.7,1.2-1.3,2.5-2.3,3.4c-0.9,0.9-2.2,1.3-3.4,2c-0.1-0.3-0.2-0.5-0.1-0.7
		c0.1-2.1,0.1-4.3,0.4-6.4c0.1-0.6,0.9-1.2,1.4-1.8c-2.7,1-2.7,1-2.5,1.8c-0.9,1.5-1.5,2.7-2,3.6c-1,0.1-1.8,0.2-2.6,0.3
		c-0.3-1.3-0.6-2.8-0.9-4.2c-0.2,0-0.4,0-0.5,0c-0.1,0.6-0.3,1.3-0.2,1.9c0.1,0.5,0.5,0.9,0.7,1.4c-0.2,0.1-0.4,0.2-0.5,0.4
		c-0.5-0.6-1-1.1-1.4-1.6c-0.6,0.4-1.1,0.8-1.7,1.2c-0.5,0.4-1.1,0.8-1.6,1.2c0.1,0.1,0.2,0.3,0.3,0.4c0.7-0.5,1.4-0.9,2.1-1.4
		c1.1,0.7,1.3,1.2,0.4,2.1c-0.2-0.3-0.4-0.6-0.6-1c-0.2,0.5-0.7,1.3-0.5,1.5c1,1.2,0.2,1.8-0.5,2.7c-0.8,0.9-1.4,1.9-2.3,3
		c-0.1,0-0.4-0.2-0.7-0.3c-0.6,0.5-1.2,1.1-2,1.8c-0.7-3.2,0.3-5.8,2.1-8.6c-1.1,0.6-1.7,0.9-2.8,1.4c0.3-1.3,0.4-2.2,0.6-3
		c-0.1,0-0.4,0.1-0.8,0.1c0.1-0.5,0.2-1,0.3-1.8c-1,0.7-1.8,1.2-2.6,1.7c-1.6,1.1-3.6,1.9-4.8,3.3c-1.2,1.3-2.7,1.2-3.9,2
		c-0.5,0.3-1.3,1-1.4-0.3c-1.2,0.3-2.2,0.5-3.3,0.8c1.3-5.5,5.9-7,9.3-9.1c-0.5-0.2-1.4-0.6-2.2-0.9c-0.3-0.1-0.8,0-1.1,0.2
		c-1.7,1.2-3.3,2.4-4.9,3.7c-1.1,0.8-1.4-0.6-2.3-0.4c0.3-0.7,0.5-1.2,0.8-1.9c-0.5,0-0.9,0-1.3,0c0-0.2-0.1-0.3,0-0.4
		c0.2-0.3,0.5-0.6,0.8-0.9c0.8-0.7,1.6-1.4,2.4-2.1c0,0.5,0,0.9,0,1.4c0.2,0,0.3,0.1,0.5,0.1c-0.5,0.6-1,1.2-1.6,1.8
		c1.7,0.1,1.7,0,2-3.1c-0.3-0.1-0.6-0.1-0.9-0.2c1.1-1,2.2-1.9,3.4-3c-0.8-0.3-1.3-0.5-1.7-0.7c-3.3,3.6-6.5,7.2-12.4,7.2
		c0.6-1,1.1-1.7,1.6-2.4c-0.2-0.1-0.5-0.3-1.1-0.7c0.8-0.3,1.4-0.5,2-0.7c-0.3,0.2-0.6,0.5-0.9,0.7c0.1,0.2,0.2,0.3,0.2,0.5
		c0.9-0.2,1.7-0.4,2.6-0.6c0-0.2-0.1-0.4-0.1-0.6c-0.6,0-1.2,0.1-1.8,0.1c0.5-0.6,0.9-1.4,1.5-1.8c1.1-0.8,2.3-1.5,3.5-2.3
		c-0.6,0.5-1.2,1.1-1.9,1.7c1.2,0.1,2.4,0.5,2.5-1.4c0.9-0.1,2,0.5,2.8-1.1c-1,0-1.8,0-2.5,0c0.1-0.3,0.2-0.6,0.3-0.8
		c0.1-0.2,0.4-0.3,0.6-0.5c1.2,0.9,2.2,0.7,2.8-1c-1.1,0.4-2,0.7-2.9,1c0.9-1.1,0.4-2.3,0.2-3.6c-1.4,3.4-4.9,3.1-7.4,5.1
		c0.1-0.8,0.1-1.1,0.1-1.7c-1,0.3-1.8,0.5-2.8,0.8c0.3-1,0.4-2,0.9-2.6c0.6-0.8,1.7-1.2,2.5-1.5c0.8,0,1.6,0,2.5,0
		c-0.4-0.5-0.8-0.9-0.9-1.3c0-0.2,0.6-0.5,0.9-0.7c1.5-0.7,3-1.4,4.7-2.2c-0.8-0.2-1.4-0.4-2.2-0.6c0.5-0.6,0.9-1.2,1.3-1.7
		c-3.5,1.8-7.1,1.1-10.8,0.3c1.7-2.6,3.7-4.3,6.8-4.7c0.2,0,0.6-0.2,0.6-0.4c0.1-1.4,1-1.4,2.2-0.9c0-0.2-0.1-0.4-0.1-0.5
		c-0.5-0.1-1.3-0.4-1.6-0.1c-1.2,0.9-1.8-0.1-2.9-0.6c0.6-0.3,0.9-0.6,1.4-0.8c-0.2-0.3-0.4-0.5-0.7-0.9c0.2-0.1,0.3-0.2,0.4-0.2
		c0.5-0.2,1.1-0.4,1.6-0.7c0.3-0.2,0.5-0.5,0.7-0.8c-0.3-0.2-0.6-0.3-0.9-0.5c-0.7-0.3-1.4-0.6-2.2-0.9c2-1.7,4.1-2.5,6.4-2.8
		c1.2-0.2,2.4,0.1,3.6,0.2c1.9,0.2,3.8,0.3,5.7,0.6c1.2,0.2,2.4,0.6,3.9,1.1c-0.3-0.4-0.4-0.7-0.6-1c1.6-0.8,2.8-0.9,4.6-0.5
		c-0.6-0.5-1.1-0.9-1.6-1.2c0-0.2,0.1-0.3,0.1-0.5c1.6,0.1,3.2,0,4.8,0.3c1.7,0.4,3.3,0.5,5-0.2C68,22.4,68.6,22.3,69,22.1
		c-0.5,0.2-1,0.6-1.5,0.8c-1.2,0.5-2.3,1-3.5,1.4c-3.1,0.6-6.2,1.2-9.1,1.7c1.6,1,3.3,0.9,4.9-0.2c0.3-0.2,0.7-0.1,1.1-0.1
		c0.1,0,0.1,0.1,0.2,0.3c-0.3,0.1-0.6,0.3-0.9,0.4c0,0.1,0,0.2,0,0.3c0.8,0.1,1.7,0.3,2.5,0.4c-0.3,0.5-0.5,1-0.8,1.4
		c0.1,0.1,0.2,0.2,0.2,0.4c0.8-0.4,1.5-0.9,2.3-1.3c-0.1-0.2-0.2-0.4-0.2-0.5c-0.5,0-1,0.1-1.5,0.1c0.9-1.3-0.8-0.9-1.1-1.6
		c0.9-0.3,1.8-0.5,2.7-0.8c-0.1-0.1-0.3-0.3-0.4-0.4c2.7-0.7,5.4-1.4,7.8-2c0.1,0-0.2,0.1-0.4,0.3c0.1,0.2,0.2,0.4,0.2,0.5
		c4.1-1.6,8.2-3.1,12.2-4.7c0,0.2,0,0.4,0,0.7c0.4,0.1,0.8,0.4,1.1,0.3c0.6-0.2,1-0.7,1.5-1c1.1-0.7,2.1-1.5,3.2-2.2
		c-0.1-0.1-0.1-0.2-0.2-0.3c-1.1,0.6-2.3,1.2-3.4,1.8c0-0.1-0.1-0.2-0.1-0.3c0.8-0.5,1.7-1.1,2.5-1.6c-0.1-0.1-0.1-0.3-0.2-0.4
		c-0.4,0.1-0.8,0-1.1,0.2c-0.7,0.4-1.2,0.9-1.9,1.2c-1.2,0.5-2.5,0.7-3.6,1.3c-3.2,1.9-6.9,2.2-10.3,3.5C70.5,21.9,69.8,22,69,22.1z
		 M58.4,28.7c-0.3,0.5-0.6,1-0.9,1.5c0.1,0.1,0.2,0.3,0.3,0.4c0.7-0.4,1.3-0.9,2-1.3c-0.1-0.1-0.1-0.3-0.2-0.4
		C59.1,28.8,58.7,28.8,58.4,28.7c-0.8-1.2-1.6-1.4-2.9-0.3C56.4,28.5,57.4,28.6,58.4,28.7z M48.9,35c-0.2,0.3-0.4,0.5-0.8,1.1
		c1.3-0.1,2.3-0.2,3.2-0.4c0-0.2,0-0.4,0-0.6C50.5,35.1,49.7,35.1,48.9,35c-0.8-1.3-1.7-1.5-3.7-0.4C46.5,34.7,47.7,34.8,48.9,35z
		 M59.8,46.9c0.5-0.4,1-0.8,2-1.5c-1.1-0.3-1.8-0.6-2.5-0.6c-0.4,0-0.8,0.5-1.2,0.7C58.8,46.1,59.3,46.6,59.8,46.9
		c-1.3,0.1-1.5,1-1.7,2.4C59.1,48.5,60.4,48.4,59.8,46.9z M84.4,20.4c0,0.1,0.2,0.5,0.3,0.8c0.5-0.3,0.9-0.6,1.3-0.8
		c0.1,0.5,0.2,0.7,0.3,0.9c1.5-1.4,3-2.8,4.4-4.2c-0.1-0.2-0.3-0.4-0.4-0.5c-0.9,0.6-1.9,1.2-2.8,1.8C86.5,19.1,85.5,19.7,84.4,20.4
		z M54.5,56.3c0.3,0.1,0.5,0.2,0.8,0.3c0.5-1.3,1-2.7,1.5-4c-0.1-0.1-0.2-0.3-0.4-0.4c-0.8,0.3-1.6,0.6-2.4,0.9
		c0,0.2,0.1,0.3,0.1,0.5c0.4,0.2,0.8,0.3,1.2,0.5C55.1,54.9,54.8,55.6,54.5,56.3z M58.3,47.1c-0.1-0.2-0.1-0.4-0.2-0.6
		c-1,0.3-2,0.5-3,0.8c0,0.1,0,0.3,0,0.4c0.6,0.2,1.1,0.3,1.6,0.4c-0.9,0.6-1.7,1.1-2.6,1.7c0.1,0.1,0.2,0.3,0.3,0.4
		C56.4,49.9,57.2,48.2,58.3,47.1z M47.5,35.4c-1.8,0.6-3.4,1.1-5,1.6c0.1,0.2,0.1,0.4,0.2,0.6c1.7-0.4,3.5-0.8,5.2-1.1
		C47.8,36.1,47.7,35.8,47.5,35.4z M98.4,14.6c0,0.2,0.1,0.4,0.1,0.5c2.5-0.5,4.4-2.4,6.9-3c-0.1-0.2-0.2-0.4-0.2-0.6
		C102.9,12.6,100.6,13.6,98.4,14.6z M64.5,30.3c0.1,0.2,0.2,0.4,0.3,0.6c2.4-1.2,4.8-2.3,7.1-3.5c-0.1-0.1-0.1-0.3-0.2-0.4
		C69.3,28.1,66.9,29.2,64.5,30.3z M72.5,29.3c-0.1-0.2-0.2-0.4-0.3-0.5c-1.8,1.2-3.7,2.3-5.5,3.5c0.1,0.2,0.2,0.3,0.2,0.5
		C69.1,32,70.7,30.3,72.5,29.3z M74.8,29.7c0.3,0.7,0.6,1.4,1,2.2c0.7-2,0.4-2.7-1.2-3.1c-1.1-0.3-1.5,0.5-1.6,1.6
		C73.6,30.2,74.2,30,74.8,29.7z M86.9,40.3c-0.2-0.1-0.4-0.1-0.5-0.2c-0.3,2.1-2.3,3.8-1.2,6.3c0.4-0.6,0.8-1.3,0.9-2
		c0.1-0.8,0-1.6,0.1-2.3C86.3,41.4,86.7,40.8,86.9,40.3z M88.9,40.4c0-0.9-0.1-1.7-0.1-2.6c0-1.3,0-2.7,0-4c-0.1,0-0.3,0-0.4,0
		C87.9,39.6,87.9,39.9,88.9,40.4z M61.3,64.9c0.3,0.5,0.6,1,1,1.5c0.6-0.7,1.1-1.3,0.1-1.8c-1.2-0.6-2.8,0.4-3.1,1.8
		c0.2,0.2,0.4,0.4,0.7,0.7C60.3,66.5,60.7,65.8,61.3,64.9z M73.2,25c1.8-1,3.4-1.9,5-2.8c0-0.1-0.1-0.2-0.1-0.2
		c-1.6,0.6-3.2,1.2-4.9,1.9C73,23.9,73.1,24.3,73.2,25z M42.9,25.9c-0.6,0.8-1,1.4-1.5,2.1c0.1,0.1,0.2,0.3,0.2,0.4
		c0.9-0.4,1.7-0.8,2.8-1.2C43.8,26.6,43.4,26.3,42.9,25.9z M62.6,42c0,0.2,0,0.3,0,0.5c1,0,2,0,3.3,0C64.6,40.7,63.6,41.4,62.6,42z
		 M50.2,43c-0.1-0.3-0.3-0.6-0.4-0.9c-0.7,0.4-1.5,0.8-2.2,1.1c0.1,0.2,0.3,0.6,0.3,0.6C48.7,43.6,49.5,43.3,50.2,43z M67.7,46.1
		c0.2,0.1,0.3,0.2,0.5,0.3c0.8-1.8,1.6-3.5,2.4-5.3c-0.1-0.1-0.3-0.1-0.4-0.2C69.4,42.6,68.5,44.3,67.7,46.1z M39,53.8
		c-1.3-1.4-2.3-1.3-3,0.3C37.1,53.9,38.1,53.9,39,53.8z M77.7,23.2c0,0.2,0.1,0.4,0.1,0.6c0.6-0.2,1.3-0.5,1.9-0.5
		c0.6,0,1.3,0.4,2.1,0.6c-0.2-0.6-0.4-1.2-0.5-1.6C80,22.6,78.8,22.9,77.7,23.2z M93.2,40.3c0-0.2,0-0.4,0.1-0.6
		c-1-0.1-2-0.2-3.3-0.3c0.1,0.7,0.2,1.3,0.3,1.9c0.1,0,0.2,0,0.4,0c0.1-0.4,0.3-0.8,0.3-1.2C91.8,40.3,92.5,40.3,93.2,40.3z
		 M58.9,38.6c-2-0.5-2.3-0.1-1.7,2.3C57.8,40.2,58.3,39.5,58.9,38.6z M63.5,25.2c-0.1,0.3-0.2,0.6-0.3,1c1,0.3,2,0.6,3,0.8
		c0.1-0.2,0.1-0.4,0.2-0.6C65.4,26,64.4,25.6,63.5,25.2z M36.7,26c0,0.3,0.1,0.6,0.1,0.9c0.8-0.1,1.5-0.1,2.3-0.2
		c-0.1-0.3-0.2-0.9-0.2-0.9C38.1,25.8,37.4,25.9,36.7,26z M64.6,43.7c-0.1-0.1-0.3-0.2-0.4-0.3c-1.6,0.5-1.9,0.9-1.6,2.7
		C63.4,45.1,64,44.4,64.6,43.7z M59.5,43.9c1.9,0.9,2.6,0.6,3.3-1.2C61.6,43.1,60.7,43.4,59.5,43.9z M58.3,27.4
		c1.2,0.7,2.1,1.6,3.2,0.1C60.4,27.8,59.5,26.1,58.3,27.4z M46.9,64.2c0.2,0.1,0.3,0.1,0.5,0.2c0.4-0.6,0.8-1.2,1.1-1.9
		c0-0.1-0.5-0.5-1.1-1C47.2,62.7,47.1,63.5,46.9,64.2z M87.7,53c0,0.1,0,0.3,0,0.4c0.8,0.5,1.6,1,2.4,1.5c0.1-0.1,0.3-0.2,0.4-0.3
		c-0.3-0.4-0.4-1.1-0.8-1.3C89.1,53,88.4,53.1,87.7,53z M80.8,20c0.9,0.5,1.8,1.1,2.7,1.6c0-0.4,0-0.9,0-1.4
		C82.5,20.5,81.8,18.7,80.8,20z M41.7,41.2c0.2-0.1,0.4-0.2,0.6-0.3c0.6,0.5,1.1,1,1.7,1.5c-0.2,0.4-0.3,0.7-0.5,1.1
		c0.2-0.4,0.4-0.8,0.6-1.3C43.3,41.9,42.5,41.5,41.7,41.2z M95.8,42.4c-0.9-0.5-1.8-1.1-2.7-1.6C93.1,42.9,94.7,42.1,95.8,42.4z
		 M53.5,32.6c-0.1,0.2-0.2,0.3-0.3,0.5c0.6,0.3,1.2,0.6,1.7,1c0.2,0.1,0.3,0.5,0.4,0.8c0.4-0.2,0.7-0.4,1.3-0.7
		C55.3,33.5,54.4,33,53.5,32.6z M87.5,34.5c-0.1,0-0.2,0-0.3,0c0,1.4,0,2.9,0,4.3c0.1,0,0.2,0,0.3,0C87.5,37.4,87.5,36,87.5,34.5z
		 M36.5,37.7c0.2,0.2,0.3,0.3,0.5,0.5c0.5-0.5,1-1.1,1.6-1.7C36.4,35.5,36.8,37,36.5,37.7z M97.2,46.6c0.1-0.2,0.1-0.5,0.2-0.7
		c-0.7-0.2-1.3-0.5-2-0.7c0,0.3-0.1,0.9-0.1,0.9C95.9,46.4,96.6,46.5,97.2,46.6z M64.4,39.9c0.1,0.2,0.1,0.5,0.2,0.7
		c0.9-0.2,1.7-0.5,2.6-0.7c-0.1-0.3-0.1-0.5-0.2-0.8C66.1,39.4,65.3,39.6,64.4,39.9z M55.2,41.8c0.2,0,0.4,0.1,0.6,0.1
		c0.2-0.8,0.4-1.6,0.7-2.4c-0.3-0.1-0.6-0.1-0.9-0.2C55.5,40.2,55.4,41,55.2,41.8z M74.8,59.2c2.5,0,2.5,0,2-1.6
		C76.1,58.1,75.4,58.7,74.8,59.2z M46.4,17.5c1.3,1.3,1.8,1.3,2.7,0C48.2,17.5,47.4,17.5,46.4,17.5z M44.1,28.9
		c-1.2,2.4-2.2-0.1-3.4,0.3c0.5,0.8,3.3,1.6,3.6,1.3C44.3,30.1,44.2,29.7,44.1,28.9z M54.6,41.1c-1.7-1-1.9-0.9-2.4,1.3
		C53,42,53.6,41.6,54.6,41.1z M75.3,28c0.4-0.3,0.7-0.5,1-0.7c0.3-0.2,0.7-0.4,1-0.7c-0.1-0.2-0.2-0.3-0.3-0.5
		c-0.8,0.3-1.6,0.6-2.6,1C74.8,27.6,75.1,27.8,75.3,28z M45.9,17.2c-0.8,0-1.5,0-2.5,0C44.9,18.6,45.4,18.6,45.9,17.2z M61.5,37.9
		c0.2,0,0.4,0,0.5,0c0.2-0.6,0.4-1.3,0.4-1.9c0-0.1-0.7-0.2-1.2-0.4C61.4,36.5,61.5,37.2,61.5,37.9z M76.6,29.9c0.2,0,0.4,0,0.6,0
		c0.1-0.7,0.1-1.4,0.2-2.1c0-0.1-0.5-0.1-0.8-0.2C76.6,28.4,76.6,29.1,76.6,29.9z"/>
	<path fill="#7C9461" d="M97.9,5c0.4-0.5,0.8-1,1.1-1.6c0.2-0.3,0-0.7,0.1-1c0.1-0.5,0.2-1,0.4-1.3c0.1-0.2,0.7,0,1.1,0.1
		c-0.1,0.4-0.1,0.8-0.2,1.2c-0.1,0.3-0.4,0.6-0.7,1.1c2.4,0.3,2.8-3.4,5.6-2.3c-0.8,0.7-1.3,1.2-1.9,1.7c-0.1-0.1-0.2-0.2-0.3-0.2
		c0.3-0.4,0.6-0.8,1.1-1.3c-2.4,1-3.4,4-6.1,4.1C98.1,5.3,98,5.2,97.9,5z"/>
	<path fill="#7C9461" d="M101.9,4.7c-0.9,0.8-1.8,1.7-2.8,2.5C99.1,7.2,99,7,98.9,6.9C99.4,5.4,100.6,5,101.9,4.7L101.9,4.7z"/>
	<path fill="#7C9461" d="M102,4.8c0.8-0.7,1.4-1.8,2.8-1.6C104.3,4.8,103,4.6,102,4.8C101.9,4.7,102,4.8,102,4.8z"/>
	<path fill="#7C9461" d="M102.7,6.7c-1,0.4-2.1,0.8-3.1,1.1c0-0.1-0.1-0.1-0.1-0.2c1.1-0.8,2.3-1.5,3.4-2.3c0.1,0.1,0.1,0.2,0.2,0.3
		C102.9,6,102.8,6.4,102.7,6.7C102.7,6.8,102.7,6.7,102.7,6.7z"/>
</g>
</svg>
