<?xml version="1.0" encoding="utf-8"?>
<!-- Generator: Adobe Illustrator 18.0.0, SVG Export Plug-In . SVG Version: 6.00 Build 0)  -->
<!DOCTYPE svg PUBLIC "-//W3C//DTD SVG 1.1//EN" "http://www.w3.org/Graphics/SVG/1.1/DTD/svg11.dtd">
<svg version="1.1" id="Layer_1" xmlns="http://www.w3.org/2000/svg" xmlns:xlink="http://www.w3.org/1999/xlink" x="0px" y="0px"
	 viewBox="0 0 140 72" enable-background="new 0 0 140 72" xml:space="preserve">
<path fill="#D2FAA5" d="M115.2,60.8H22.8c-2.1,0-3.8-1.7-3.8-3.8V13.4c0-2.1,1.7-3.8,3.8-3.8h92.4c2.1,0,3.8,1.7,3.8,3.8V57
	C119,59.1,117.3,60.8,115.2,60.8z"/>
<g>
	<path fill="#7C9461" d="M40.5,4.7c1.9,0.4,2.8,2.1,3.7,3.5c0.4,0.6,0.7,1.4,1,2c4.7-1.1,9.5-2,14.1-3.3c3-0.8,5.9-0.5,8.8-0.4
		c1,0,2.1,0.4,2.8-1c0.1-0.2,1.4-0.1,1.7,0.2c2.7,2.6,6.2,1.9,9.3,2.6c0.3-2.2,0.5-4.2,0.7-6.1c0.1,0,0.2,0,0.4,0
		c0.1,0.6,0.2,1.2,0.2,1.9c-0.1,1.2-0.1,2.5-0.2,3.7c-0.1,0.4-0.4,0.8-0.7,1.2c-0.2,0.3-0.6,0.4-0.7,0.7c-1,1.7-2.4,3.3-2.6,5.4
		c-0.1,1.1,0.1,1.8,1.2,1.9c0.6,0,1.2-0.2,2.2-0.3c-1-0.6-1.5-1-0.8-1.9c0.4-0.4,0.7-1.1,0.8-1.7c0.3-2,1.2-3.6,2.9-4.7
		c1.5-0.3,3.1-0.6,4.6-0.9c0.6-0.1,1.2-0.5,1.8-0.7c0.1,0.1,0.1,0.2,0.2,0.4c-1.7,1-3.4,1.9-5.2,2.9c2.3,1.5,4.4,2.8,6.5,4.2
		c2.2,1.6,2.7,4,2.5,6.5c-0.1,1.3-0.1,2.8-1.5,3.7c0.7,1.1-1.3,2.1-0.3,3.3c0.2,0.2,0,0.8-0.1,1.1c-0.8,2.8-1.6,5.6-2.5,8.5
		c0.9,0.9,2.1,0.9,3.3,0.5c1.2-0.3,1.7,0,2,1.2c0.3,1.8,2.3,2.4,3.7,1.3c1.6-1.2,3.2-2.1,5.4-1.9c-0.8,0.5-1.4,0.9-2.1,1.2
		c-1.3,0.6-2.7,1.1-4,1.7c0,0.2,0.1,0.4,0.1,0.6c0.9,0,1.7,0,2.6,0c0-0.1,0-0.1,0-0.2c-0.3-0.1-0.7-0.3-0.9-0.4
		c0.6-0.2,1.3-0.5,2-0.8c-0.1-0.1-0.2-0.2-0.3-0.3c0.2-0.2,0.3-0.4,0.5-0.6c0.3-0.2,0.7-0.4,1.1-0.6c0,0.2,0.1,0.4,0,0.5
		c-1,1.7-1,3.1,1.1,4.2c1,0.5,1.8,1.4,2.8,2.3c-1.9,1.2-3.8,0.9-5.9,0.3c0,0.6,0,1.1,0,1.6c0,0.8,0.2,1.7-0.1,2.3
		c-0.8,1.8-0.5,3.2,0.5,4.8c0.6,0.9,0.4,2.3,0.4,3.4c0,1.1-0.3,2.2-0.5,3.3c-0.6,3-2.5,4.8-5,6.5c-2.4,1.7-4.7,1.9-7.4,2
		c-1.8,0-3.7,0.6-5.5,0.9c-0.5,0.1-1.2,0.1-1.6-0.2c-1.1-1-2.4-0.7-3.7-0.7c-1.3,0-2.6-0.4-3.9-0.8c-1.7-0.5-3.5-1-5.2-1.7
		c-1.2-0.5-2.2-1.2-3.3-1.8c-3.4-2.1-5.4-7.2-4.4-11.3c0.3,0.5,0.5,1,0.8,1.5c-0.1-1.2-0.2-2.1-0.3-3.2c0.3,0.4,0.5,0.5,0.7,0.7
		c0.1,0,0.1-0.1,0.2-0.1c-0.3-0.7-0.5-1.5-0.8-2.2c0.1,0,0.3-0.1,0.4-0.1c0.1,0.3,0.1,0.6,0.2,0.9c0.1,0,0.2,0,0.3,0.1
		c0.2-1.1,0.3-2.2,0.5-3.6c-2.6-0.1-4.9-0.2-7.2-0.4c-5.2-0.3-9.3-2.6-12.3-6.8c-1.3-1.7-2.1-3.8-3.1-5.5c1,0.1,1.8,0.1,2.6,0.2
		c0.3,0,0.5,0.4,0.8,0.5c1.1,0.5,2.2,1.1,3.3,1.5c0.2,0.1,0.5-0.2,1.1-0.4c-0.9-0.4-1.4-0.5-1.9-0.8c-0.8-0.5-1.4-1.1-2.2-1.5
		c-0.7-0.4-1.5-0.6-2.3-0.9c-0.8-0.3-1.5-0.5-2.3-0.8c0-0.1,0.1-0.3,0.1-0.4c0.9,0.2,1.8,0.3,3.1,0.5c-1.1-2-4.3-1.1-3.8-3.9
		c-0.7,0.1-1.2,0.2-1.7,0.3c-0.1-0.1-0.1-0.2-0.2-0.3c0.8-0.7,1.6-1.5,2.4-2.3c-0.9-4.2-4.3-8.4-1.3-13.5c-3.1,0-6.1,0.9-9.2-1
		c1-0.5,1.7-0.9,2.4-1.1c1.5-0.6,2.9-1.5,4.7-1.3c0.9,0.1,1.3-0.9,1.2-1.9c-0.1-1.5,0-3.1,0-4.6c0.2,0,0.4-0.1,0.6-0.1
		C40.3,4.1,40.4,4.4,40.5,4.7c0.4,0.9,0.5,2,1,2.7c0.8,1,0.9,1.8,0,2.8c0.4,0.1,0.6,0.2,0.8,0.2c-0.1,0.3-0.2,0.5-0.2,0.5
		c-1.6,0-3.2,0-4.9,0c0,0.1,0,0.3-0.1,0.4c0.3,0.2,0.6,0.4,1.2,0.8c-2,0.3-3.6,0.5-5.5,0.8c1.9,0.8,3.8,0.9,6.4,0.3
		c1.1-0.2,2.6-0.9,3.4-0.4c1.8,0.9,3.3,2.3,4.8,3.7c1.2,1,1.9,2.8,4.1,2.2c-0.2-0.6-0.2-1.3-0.6-1.6c-1.1-1.1-2.3-2-3.5-3
		c-1.5-1.1-3-2.2-4.5-3.2c0.3,0.1,0.6,0.2,0.9,0.3c-0.3-1.4-0.7-2.5-1.3-3.6C42.1,6.7,41.2,5.7,40.5,4.7z M50.8,9.7
		c0.5,0.4,1.1,0.8,1.9,1.4c-0.7,0.1-1,0.1-1.2,0.1c0,0.1,0,0.1,0,0.2c0.5,0.1,1.1,0.2,1.7,0.3c0-0.6,0-1.1,0-1.6c0.1,0,0.2,0,0.3,0
		c0.1,0.5,0.3,1,0.4,1.5c0.1,0,0.2,0,0.3,0c0.2-0.6,0.3-1.1,0.5-1.5c0.7-0.2,1.3-0.3,1.7-0.6c0.1-0.1-0.2-0.8-0.3-1.2
		c-0.5,0.2-0.8,0.3-1.2,0.4c-1.2,0.2-2.5,0.3-3.7,0.5C51.1,9.2,51,9.6,50.8,9.7c-1.7,0.5-3.4,0.9-5.2,1.3c0,0.2,0,0.4,0,0.7
		c0.5,0.2,1.1,0.7,1.6,0.6c1.1-0.2,2.1-0.7,3.2-1.1C51.2,10.9,51.3,10.4,50.8,9.7z M78.8,21.7c0.4-0.3,0.8-0.5,1.3-0.8
		c-0.4-0.2-0.7-0.3-0.8-0.4c0.4-0.3,0.9-0.6,1.3-1c-0.5-0.3-1-0.9-1.5-0.9c-1.9,0-3.7,0-4.4,2.6c0.4,0.1,1.1,0.3,1.3,0.1
		C77.1,20.3,77.9,21.1,78.8,21.7c-0.6,0-1.5-0.4-1.9-0.1c-1.5,0.9-2.2,0.1-3.1-1.1c-0.8,0.9-1.4,1.7-2.2,2.6c1.4,0,2.6,0.2,3.7-0.1
		C76.5,22.8,77.6,22.1,78.8,21.7z M73.2,29.2c0.5,0.1,0.9,0.2,1.4,0.3c1.3,0.3,2.5,0.5,3.8,0.7c0-0.2,0.1-0.3,0.1-0.5
		c-0.3-0.1-0.6-0.2-1.3-0.5c1.9-0.4,3.7-0.2,5.3-1.4c-0.9-0.2-1.4-0.3-2.4-0.4c1-0.2,1.6-0.3,2.2-0.4C81.9,26,81.9,26,78,27
		c-0.3,0.1-0.5,0.4-0.7,0.6c0,0.1,0.1,0.3,0.1,0.4c-2,0-3.9,0-5.9,0c0,0.1,0,0.2,0,0.3C72.1,28.7,72.7,28.9,73.2,29.2
		c-2.4-0.3-4.8-0.7-7.2-1.1c-1.1-0.2-1.2,0.4-1.1,1.2c0.1,0.4,0.3,0.9,0.5,1.3c0.2-0.5,0.2-0.9,0.5-1.1c0.1-0.1,0.5-0.1,0.8,0
		c0.2,0.1,0.3,0.5,0.4,0.5C69.3,30.3,71.4,30.5,73.2,29.2z M69,21.6c-0.4-0.3-1-0.5-1.3-0.9c-1.1-1.3-3-1.1-3.7,0.5
		c-0.7,1.5-0.7,1.5-1.9,0.7c-0.2,0.2-0.5,0.4-0.6,0.6c-0.2,0.3-0.4,0.7-0.3,0.9c0.4,0.8,4,1.7,4.7,1.2c0.8-0.5,1.5-0.9,2-1.1
		C68.3,22.6,68.6,22.1,69,21.6c0-0.9,1.4-1.7,0.4-2.8c-0.7,0.3-1.3,0.5-2,0.8C67.9,20.3,68.4,20.9,69,21.6z M90.3,45.2
		c1.5,0.4,3,0.9,4.5,1.3c0.1-0.2,0.1-0.4,0.2-0.6C93.3,45.6,91.8,45.4,90.3,45.2c-1.3-2.4-3-4.4-4.9-6.3c-0.9-0.6-2-1.6-3.4-0.2
		c-0.1-2.5-2.2-2.1-3.4-2.9c-0.3-0.2-0.7-0.1-1.2-0.1c0.2,0.3,0.4,0.5,0.4,0.5c-0.5,0.4-1.3,0.9-1.3,1.1c0.2,0.8,0.6,1.7,1.2,2.3
		c1.8,1.7,3.8,3.3,6.2,3.9c0.6,0.2,1.4-0.1,2,0.1c1.7,0.9,3.7,1.5,4.3,3.7C90.2,46.4,90.2,45.8,90.3,45.2z M50,30.2
		c0.1,0,0.2,0,0.3,0c0.2-0.8,0.3-1.7,0.5-2.5c0.3,0.1,0.5,0.2,0.7,0.2c0.1-0.2,0.2-0.6,0.2-0.6c-0.9-0.6-1-1.4-0.2-2.1
		c0.6-0.5,1.4-0.9,2.1-1.1c1.9-0.7,3.7-0.4,5.6,0.3c0.4,0.1,0.8,0,1.3,0c0-0.3,0.1-0.5,0.1-0.8c-1.4-0.5-2.7-1.2-4.1-1.3
		c-1.5-0.2-3,0-4.5,0.4c-1,0.3-2.1,0.9-2.6,1.8c-0.5,0.9-1,0.9-1.8,1.1C45,26,43.3,26.8,43,29.2c1.5-0.4,3-0.8,4.5-1.2
		c0,0.2,0,0.4,0,0.9c0.6-0.6,1-1.1,1.5-1.7c0.1,0.4,0.2,0.7,0.3,1c0.3-0.2,0.5-0.4,0.7-0.6C50,28.5,50,29.3,50,30.2z M74.4,13.4
		c1.1-1.3-0.1-4.6-2.9-6.8c-1.1,4.1-1,5.9-0.2,6.5c-0.2,1.5,0.5,2.5,0.6,3.1c1,0.4,1.6,0.6,2.1,0.9c1.2,0.6,2.4,1.3,4,0.6
		C76,16.8,74.6,15.7,74.4,13.4z M80.4,48.1c0-0.1,0-0.2,0-0.2c0.6,0.1,1.2,0.3,1.9,0.4c0.7,0.2,1.3,0.6,1.9,0.6c0.5,0,1.1-0.6,1.5-1
		c0.2-0.2,0.3-0.9,0.2-1c-0.9-0.6-1.8-1.4-2.8-1.7c-1.8-0.5-3.4,0.6-4.9,1.4c-0.3,0.2-0.4,0.8-0.4,1.3c0,0.2,0.4,0.6,0.6,0.6
		c1.3,0.3,2.7,0.5,4,0.7c0,0,0.1-0.1,0.1-0.1C81.9,48.8,81.1,48.5,80.4,48.1z M52.3,16.6c0.8,3.4,4,2.6,6.2,3.6
		c2.8,1.2,4.9-0.2,7.2-1.4c-0.7-0.4-1.2-0.9-1.9-1.1c-0.4-0.1-1.1-0.1-1.2,0.1c-0.4,1.1-1.4,0.7-2.1,0.8c-0.8,0.1-1.6,0.1-2.3,0.2
		c-2,0.4-2.6,0-2.9-2.1c-0.2,0-0.4,0-0.6-0.1c-0.2-0.1-0.4-0.1-0.7-0.2C54,17.4,53.8,17.4,52.3,16.6z M86.6,18.8
		c0.1-0.1,0.1-0.3,0.2-0.4c0.1,0,0.2,0,0.3,0c0.6,0.2,1.2,0.3,1.7,0.5c0.1-0.4,0.2-0.8,0.3-1.2c-0.6-0.1-1.2-0.5-1.7-0.3
		c-1.2,0.4-2.5,0.9-3.5,1.6c-0.9,0.7-2,1.5-2,3c2.7-1.5,2.7-1.5,3.7,1c0.9-0.5,1.7-1,2.6-1.5c-1.2-0.6-2.1-1.1-3.1-1.6
		c2.3,0.7,3.1,0.7,3.8-0.3C88.2,19.4,87.4,19.1,86.6,18.8z M79.9,26.1c0-0.2,0-0.4,0.1-0.6c-0.7-0.4-1.3-0.9-2-1
		c-2.1-0.5-4.2-0.4-6.3,0.1c-0.7,0.2-1.4,0.3-2.1,0.5c-0.3,0.1-0.3,0.6-0.5,0.9c0.3,0.1,0.6,0.3,0.9,0.3c0.5,0,1.4-0.3,1.5,0
		c0.8,1.3,1.8,0.5,2.7,0.3c0.9-0.2,1.7-0.5,2.6-0.5C77.8,26,78.8,26.1,79.9,26.1z M57,8.2c0,0.2,0,0.4,0,0.6c0.7,0,1.4-0.1,2.2-0.1
		c1.9-0.1,3.8-0.3,5.7-0.3c1.1,0,2.3,0.3,3.4,0.6c1.2,0.2,1.6-0.3,1.6-1.5C65.5,6.6,61.2,7.2,57,8.2z M75.9,41.2
		c0.3-0.1,0.6-0.2,1-0.4c-1.3-1.2-1.3-3.3-3.6-3.8c0.6,2,0.8,4,1.9,5.4c0.9,1.3,2.7,1.9,4.1,2.7c0.4-0.3,0.8-0.5,1.2-0.8
		c-0.7-0.1-1.6,0-1.6-0.2C78.5,42.6,76.9,42.3,75.9,41.2z M93.4,15.4c-1.8-1.4-3.4-2.6-5.1-3.8c-0.8-0.6-1.4-0.3-1.6,0.7
		c-0.5-0.1-1-0.3-1.5-0.4c0,0.1-0.1,0.3-0.1,0.4c0.5,0.3,1,0.5,1.5,0.8c1,0.5,2.4,0.8,3,1.6C90.6,15.9,91.6,16.4,93.4,15.4z
		 M44,23.3c0.5,0.1,0.9,0.1,1.3,0.2c0-0.4,0-0.8-0.1-1.2c-0.6-1.1-1.1-2.2-1.8-3.2c-0.2-0.3-1.1-0.3-1.4-0.1c-0.4,0.4-1,1.3-0.8,1.6
		c0.7,1.2,1.7,2.3,2.7,3.7C44,23.8,44,23.5,44,23.3z M105.1,44.1c-3.2-1.3-6.3-2.4-9.4,0.5c0.6,0,1,0.1,1.3,0
		c0.8-0.2,1.7-0.7,2.5-0.6c1.3,0.2,2.6,0.7,3.8,1.4c1.2,0.7,2.4,0.8,3.8,0.5c-1.3-0.3-2.4-0.5-3.5-0.7c0-0.1,0-0.2,0.1-0.3
		c0.7,0.1,1.5,0.1,2.2,0.2c0-0.1,0-0.2,0-0.3c-1.1-0.2-2.2-0.4-3.3-0.6c0-0.1,0-0.2,0.1-0.3C103.4,43.9,104.2,44,105.1,44.1z
		 M77.8,50c0.1-0.1,0.2-0.3,0.3-0.4c-1.7-1.4-3.4-2.8-5.2-4.2c-0.5,0.4-0.9,0.6-0.3,1.4C73.9,48.8,75.8,49.4,77.8,50z M68.3,16.4
		c-1.1-0.4-2.1-0.7-3-1.1c-1-0.4-3.5,0.2-4,1c2.2,0.4,4.4,0.8,6.7,1.2C68.1,17.1,68.3,16.6,68.3,16.4z M86.1,24.7
		c0.3,0.6,0.6,1.2,0.9,1.7c1.3-0.7,2.4-1.2,3.4-1.8c0.2-0.1,0.2-1,0.1-1c-0.5-0.2-1.2-0.5-1.7-0.3C87.9,23.6,87.1,24.2,86.1,24.7z
		 M74.9,58.4c1.6,2.8,7.2,4.1,9.7,2.5c-1.8-0.1-3.5,0-5-0.4C78.1,60.1,76.7,59.3,74.9,58.4z M67.8,56.8c1,2.6,4,4.2,8.7,4.8
		c-0.1-0.1-0.1-0.3-0.2-0.4c-0.6-1.1-1.8-0.5-2.6-0.9c-1.7-0.8-3.3-1.8-4.9-2.8C68.6,57.3,68.4,57.1,67.8,56.8z M61.4,14
		c-0.8-0.6-1.6-1.1-2.5-1.7c-0.3,0.8-0.4,1.4-0.6,2c-0.1,0-0.2,0-0.3-0.1c0-0.3,0.1-0.6,0.1-1.3c-0.8,0.9-1.3,1.5-2,2.2
		c0.8,0.2,1.3,0.4,1.9,0.6C58.5,13.8,61.1,15.9,61.4,14z M45.8,31.8c-0.1,1.4,1,2,2,2.3c1.3,0.4,2.8,0.8,4.2-0.1
		C50,33.3,47.9,32.6,45.8,31.8z M40.3,19.4c1-0.6,1.9-1,2.7-1.6c0.4-0.3,0.4-1,0.5-1.6c-0.6-0.1-1.2-0.4-1.7-0.3
		C40.2,16.4,40,17.7,40.3,19.4z M75.9,55.6c2.1,2.6,5.1,2.5,8,2.6c0.1,0,0.1-0.1,0.2-0.2C81.3,57.2,78.6,56.4,75.9,55.6z M54.2,33
		c0,0.2-0.1,0.5-0.1,0.7c2.6,0.5,5.2,1.2,8,0.1C59.5,33.6,56.9,33.3,54.2,33z M74.8,8c1.2,2,5,2.5,6,0.9C78.8,8.6,77,8.3,74.8,8z
		 M57.7,29.7c0.7,0,1.4,0.1,2.1,0c0.4-0.1,1-0.5,1.1-0.8c0.1-0.4-0.3-1-0.6-1.2C58.7,26.9,57.4,27.3,57.7,29.7z M64.3,28.1
		c-2.6-0.7-3.1-0.2-2.4,2.2c0.9,0,1.7,0,2.5,0C64.4,29.5,64.3,28.8,64.3,28.1z M74.6,62.3c2,1.9,6.1,2.9,7.3,1.6
		C79.4,63.4,77,62.8,74.6,62.3z M88.8,52.2c0-0.2,0.1-0.4,0.1-0.6c-0.5-0.2-0.9-0.4-1.4-0.4c-0.9-0.1-1.8,0.2-2.6,0
		c-1.6-0.5-1.9,0.3-1.9,1.6c0,0.1,0.1,0.2,0.2,0.4c0.2-0.5,0.4-0.8,0.4-0.9C85.4,52.2,87.1,52.2,88.8,52.2z M90.5,42.3
		c2.7,0.5,3.6-0.2,4.2-2.6c-0.4,0.2-0.9,0.6-1.2,0.5C91.6,39.6,91.4,41.1,90.5,42.3z M70.4,43c0.2,0.1,0.3,0.2,0.5,0.3
		c1.9-1,1.8-2.8,1.4-4.6c-1.8,0.7-1.9,1-1,1.8C70.9,41.3,70.6,42.1,70.4,43z M44.6,37.1c0.6,2.7,2.9,4.6,4.7,4.1
		C47.9,39.9,46.3,38.6,44.6,37.1z M82.7,25.9c0.4,0.9,0.7,1.7,0.9,2.4c0.8-0.5,1.5-1,2.2-1.5C84.9,25,84.8,25,82.7,25.9z M82.6,58.9
		c1.7,1.7,4.7,2.1,6.5,1C86.9,59.6,84.9,59.3,82.6,58.9z M76.8,57.5c-2.6-1.3-4.8-2.4-7.1-3.5C71.6,56.1,73.5,57,76.8,57.5z
		 M71.8,47.4c-0.2,0.2-0.3,0.4-0.5,0.6c1.8,1.2,3.6,2.4,5.4,3.6c0.2,0.2,0.8-0.1,1.2-0.2c-0.6-0.4-1.2-0.2-1.5-0.5
		C74.8,49.8,73.3,48.6,71.8,47.4z M53.8,39.8c1.7,2.2,3.9,2.4,7.6,0.9C58.8,41.3,56.3,41.2,53.8,39.8z M72,52.6
		c-1.8-1.1-3.3-2-4.8-3C66.6,50.9,69.2,52.7,72,52.6z M91.6,23.7c0.7-1,1.2-2-0.1-2.7c-0.3-0.2-1.1,0-1.2,0.2
		C89.7,22.5,90.8,23,91.6,23.7z M53.2,36.9c0.4,0.9,1.1,1.4,2.6,1.5c0.7,0,1.5-0.4,2.3-0.6c0-0.1-0.1-0.2-0.1-0.3
		C56.4,37.2,54.9,37.1,53.2,36.9z M100.4,45.6c-1.9-0.6-1.8,1.5-2.7,2.3c0.5,0.4,1,0.7,1.7,1.2c0.1-0.6,0.2-1.2,0.4-1.8
		C100,46.7,100.2,46.2,100.4,45.6z M72.6,51.1c0.4,1.7,3.3,3.1,5,2.7c-0.8-0.4-1.7-0.8-2.5-1.3C74.3,52,73.5,51.6,72.6,51.1z
		 M67.1,36.6c-2-0.2-3.9-0.4-5.7-0.6c0,0.1,0,0.3,0,0.4C66.6,37.3,66.6,37.3,67.1,36.6z M91.9,18c-0.2,0.2-0.5,0.3-0.7,0.5
		c0.3,0.6,0.5,1.2,0.8,1.8c0.6-0.4,1.2-0.7,1.7-1.1C93.1,18.9,92.5,18.5,91.9,18z M84.4,55.6c0-0.1,0-0.3,0.1-0.4
		C82.6,55.1,81,53.4,79,54c0,0.2-0.1,0.4-0.1,0.7C80.7,55,82.6,55.3,84.4,55.6z M79.2,49.5c-0.5,1.2-0.1,2.3,0.7,2.2
		c0.8-0.1,1.6-0.3,2.4-0.5C82.1,49.2,79.7,51.2,79.2,49.5z M69.8,56.4c-1.4-1.3-2.6-2.3-3.9-3.4C66,55.1,67,55.9,69.8,56.4z
		 M83.1,56.4c0,0.1-0.1,0.3-0.1,0.4c1.4,0.4,2.8,0.8,4.1,1.2C86.2,56.2,84.6,56.3,83.1,56.4z M68.3,59.5c-1-1.1-2.2-2.3-3.2-3.4
		C64.7,57.7,66.3,59.3,68.3,59.5z M89.2,37.8c-0.1,0.2-0.1,0.3-0.2,0.5c0.6,0.5,1.2,1.1,1.8,1.7c0.4-0.4,0.8-0.8,1.6-1.5
		C91.1,38.2,90.2,38,89.2,37.8z M73.9,63c-0.9-0.3-1.8-0.5-2.6-0.8c-0.8-0.3-1.5-0.8-2.3-1.1C70.1,63.4,72.1,63,73.9,63z M95.9,51.3
		c-0.9-0.8-2.6-0.7-4.1,0.5c0.8-0.1,1.7-0.3,2.5-0.4c0-0.1,0.1-0.3,0.1-0.4c0.2,0.3,0.4,0.6,0.6,1C95.3,51.7,95.6,51.5,95.9,51.3z
		 M57.5,27.3c-1.2,0-2.1-1.1-3.3-0.1C55.6,28.4,56.7,28.5,57.5,27.3z M45.3,25.2c1.3-0.1,2.3-0.4,2.4-1.9
		C45.9,22.7,45.7,24,45.3,25.2z M94.1,16.3c-0.9,0.3-1.6,0.5-2.4,0.7c0.3,0.3,0.6,0.7,0.9,0.8C93.4,18,94.2,18,94.1,16.3z M67,34.6
		c0-0.2,0.1-0.4,0.1-0.5c-1.7-0.5-3.3-0.9-5-1.4c0,0.2-0.1,0.3-0.1,0.5C63.6,33.7,65.3,34.1,67,34.6z M57.6,9.6
		c0,0.2,0.1,0.3,0.1,0.5c1.7-0.3,3.5-0.6,5.2-0.9c0-0.2-0.1-0.3-0.1-0.5C61.1,9,59.4,9.3,57.6,9.6z M67.2,40.2
		c-2.1-0.3-3.7-0.6-5.7-0.9C63.3,40.6,65,40.6,67.2,40.2z M71.8,45.6c0.2-0.1,0.5-0.2,0.7-0.4c-0.2-0.5-0.3-1.1-0.5-1.6
		c-0.4,0.2-0.9,0.3-1.3,0.5C71.1,44.6,71.4,45.1,71.8,45.6z M42.4,30.3c0,0.1-0.1,0.2-0.1,0.4c0.7,0.4,1.4,0.7,2.2,1.1
		c0.1-0.6,0.2-1,0.3-1.5C43.9,30.3,43.2,30.3,42.4,30.3z M71.2,49.1c-0.7-0.8-1.4-1.5-2-2.2C69.4,49,70,49.5,71.2,49.1z M90.5,52.9
		c-0.3-1.5-0.5-2.8-0.8-4.1C89.5,50.2,89.2,51.7,90.5,52.9z M59.7,11.8c0.7,0.7,2.5-0.2,3.6-1.7C62,10.7,60.9,11.2,59.7,11.8z
		 M67.3,51.8c-1.3-1.1-1.4-2.5-0.9-4.1C65.2,49.6,65.4,50.6,67.3,51.8z M54.2,42.8c-0.1,0.1-0.1,0.3-0.2,0.4
		c1.6,0.6,3.3,1.2,4.9,1.8c0-0.1,0.1-0.2,0.1-0.4C57.5,44,55.9,43.4,54.2,42.8z"/>
	<path fill="#8BA66D" d="M85.3,8.5C85,7.7,84.8,6.9,84.5,6c-0.1,0.6-0.2,1-0.3,1.9c-0.4-1.5-0.7-2.6-1-3.7c1-0.6,1-1.6,0.1-3.1
		c0.4,0.3,1,0.5,1.3,0.9c0.5,0.6,0.9,1.3,1.2,2c0.6,1.9,1.9,1.9,3.6,1.7c1.1-0.2,2.3,0.2,3.5,0.7c-2.3,0.6-4.5,1.1-6.8,1.7
		C85.7,8,85.5,8.3,85.3,8.5z"/>
	<path fill="#8BA66D" d="M82.1,39.9c0.9,0.1,1.5,2.6,3.1,0.1c-2.3-0.2-4.3-0.4-6.7-0.7c1.6-0.2,2.8-0.5,4.1-0.4
		c1,0.1,2.1,0.7,3.1,1.1c0.1,0.1,0.2,0.6,0.1,0.6c-0.7,0.4-1.5,1.1-2.3,1.1c-0.6,0-1.2-0.9-1.7-1.4C81.8,40.2,82,40.1,82.1,39.9z"/>
	<path fill="#8BA66D" d="M71.3,11.3c0.1-0.5,0.1-0.9,0.2-1.2c0.1,0,0.1,0,0.2,0c0,0.2,0,0.4,0,0.6c0.8-0.2,1.7-0.8,1.9,0.9
		C72.8,11.5,72.1,11.4,71.3,11.3z"/>
	<path fill="#8BA66D" d="M64.7,21.3c1.1-1.6,1.9-0.7,2.7-0.5c0,0.2,0,0.3,0,0.5C66.7,21.3,65.9,21.3,64.7,21.3z"/>
</g>
</svg>
