<?xml version="1.0" encoding="utf-8"?>
<!-- Generator: Adobe Illustrator 18.0.0, SVG Export Plug-In . SVG Version: 6.00 Build 0)  -->
<!DOCTYPE svg PUBLIC "-//W3C//DTD SVG 1.1//EN" "http://www.w3.org/Graphics/SVG/1.1/DTD/svg11.dtd">
<svg version="1.1" id="Layer_1" xmlns="http://www.w3.org/2000/svg" xmlns:xlink="http://www.w3.org/1999/xlink" x="0px" y="0px"
	 viewBox="0 0 140 84" enable-background="new 0 0 140 84" xml:space="preserve">
<g>
	<path fill="#DB8B56" d="M129.2,0H72.1c0.5,0.4,1.2,0.8,1.9,1.4c2.8,2.1,5.7,4.1,8.5,6.1c5.1,3.6,6.9,9.8,4.4,14.8
		c-0.5,0.9-0.9,1.8-1.9,2.3c-0.1,0.1-0.1,0.2-0.2,0.3c0,0.1-0.1,0.2-0.3,0.3c-0.8,1.9,1.8,3.4,0.8,5.3c-0.3,0.2-0.5,0.4-0.8,0.6
		c-0.4,0.5-0.7,1.1-1.1,1.6c-0.4,6.7-0.6,13.5,0.1,20.2c0.8,8,1.5,16.1,3.1,24c0.2,0,2.9,2.9,0.4,4.6c-0.2,0.2-2.3,1.5-4.2,1.9
		c-1.1,0.3-2.2,0.5-3.3,0.7h49.7c5.9,0,10.8-4.8,10.8-10.8V10.8C140,4.8,135.2,0,129.2,0z"/>
	<path fill="#DB8B56" d="M57.2,83.3c-3.2-1-4-1.7-4.2-1.9c-2.5-1.7,0.2-4.5,0.4-4.6c1.6-8,2.2-16,3.1-24c0.7-6.7,0.5-13.5,0.1-20.2
		c-0.4-0.5-0.7-1.1-1.1-1.6c-0.3-0.2-0.5-0.4-0.8-0.6c-1-1.9,1.5-3.4,0.8-5.3c-0.1,0-0.2-0.1-0.3-0.3c-0.1-0.1-0.2-0.2-0.2-0.3
		c-1-0.5-1.5-1.4-1.9-2.3c-2.5-5-0.7-11.2,4.4-14.8c2.9-2,5.7-4,8.5-6.1c0.8-0.6,1.4-1,1.9-1.4H10.8C4.8,0,0,4.8,0,10.8v62.5
		C0,79.2,4.8,84,10.8,84h49.2C59,83.8,58.1,83.6,57.2,83.3z"/>
</g>
</svg>
