<?xml version="1.0" encoding="utf-8"?>
<!-- Generator: Adobe Illustrator 18.0.0, SVG Export Plug-In . SVG Version: 6.00 Build 0)  -->
<!DOCTYPE svg PUBLIC "-//W3C//DTD SVG 1.1//EN" "http://www.w3.org/Graphics/SVG/1.1/DTD/svg11.dtd">
<svg version="1.1" id="Layer_1" xmlns="http://www.w3.org/2000/svg" xmlns:xlink="http://www.w3.org/1999/xlink" x="0px" y="0px"
	 viewBox="0 0 140 72" enable-background="new 0 0 140 72" xml:space="preserve">
<path fill="#D9D9D9" d="M116.2,61.6H23.8c-2.1,0-3.8-1.7-3.8-3.8V14.2c0-2.1,1.7-3.8,3.8-3.8h92.4c2.1,0,3.8,1.7,3.8,3.8v43.7
	C120,59.9,118.3,61.6,116.2,61.6z"/>
<path fill="#ECC23C" d="M120.9,818.9c-0.8-1.8-2-3.5-2.4-5.4c-0.4-2.4-0.3-4.9-0.2-7.4c0.1-3.1,0.2-6.2,1.9-9c0.6-1,1.4-2,1.7-3.2
	c0.7-3.4,1.3-6.9-1.3-9.9c-0.7-0.8-1.4-1.7-2.1-2.6c-1.9-2.2-3.3-2.3-5.7-0.6c-1.4,1-3,1.7-4.6,2.5c-0.9,0.4-1.4,0.1-1.8-0.8
	c-1.4-3.1-11.1-13.5-14.2-15.1c-0.7-0.4-1.4-0.5-2.1-0.5v0c0,0,0,0,0,0c0,0,0,0,0,0v0c-0.7,0-1.4,0.2-2.1,0.5
	c-3.1,1.6-12.8,12.1-14.2,15.1c-0.4,0.9-0.9,1.3-1.8,0.8c-1.6-0.8-3.2-1.5-4.6-2.5c-2.5-1.7-3.8-1.6-5.7,0.6
	c-0.7,0.8-1.4,1.7-2.1,2.6c-2.6,3-1.9,6.5-1.3,9.9c0.2,1.1,1,2.1,1.7,3.2c1.7,2.8,1.8,5.9,1.9,9c0.1,2.5,0.2,5-0.2,7.4
	c-0.4,1.9-1.6,3.6-2.4,5.4c-0.4,0.9-1,1.7-1.2,2.7c-0.5,1.7,0.1,2.6,1.8,3c0.7,0.1,1.4,0.2,2.2,0.2c4.6,0,9.2,0,13.7,0
	c0.4,0,0.9,0,1.3,0c2-0.1,2.7-0.6,3.3-2.5c0.2-0.8,1.8-8.9,2.4-12.2c0.3-1.7,1.2-2.5,3.1-2.9c1.5-0.3,2.9-0.6,4.4-0.8
	c1.5,0.2,2.9,0.5,4.4,0.8c1.8,0.4,2.7,1.2,3.1,2.9c0.6,3.3,2.2,11.4,2.4,12.2c0.6,1.8,1.3,2.4,3.3,2.5c0.4,0,0.9,0,1.3,0
	c4.6,0,9.2,0,13.7,0c0.7,0,1.5,0,2.2-0.2c1.7-0.3,2.3-1.3,1.8-3C121.9,820.7,121.3,819.8,120.9,818.9z"/>
<g>
	<polygon fill="#EFBBBB" points="58,65 41,48 41,24 58,7 82,7 99,24 99,48 82,65 	"/>
	<path fill="#FFFFFF" d="M85.7,36c0-0.6,0-1.1-0.1-1.6l3.3-0.3c-0.1-1.3-0.4-2.6-0.8-3.9c-0.4-1.3-1-2.5-1.6-3.6l-2.8,1.6
		c-0.6-1-1.2-1.8-1.9-2.6l2.4-2.2c-0.9-1-1.9-1.9-2.9-2.7c-1.1-0.8-2.2-1.4-3.4-2l-1.3,3c-1-0.4-2-0.8-3.1-1l0.7-3.2
		C72.7,17.2,71.4,17,70,17s-2.7,0.1-3.9,0.4l0.7,3.2c-1.1,0.2-2.1,0.6-3.1,1l-1.3-3c-1.2,0.5-2.4,1.2-3.4,2
		c-1.1,0.8-2.1,1.7-2.9,2.7l2.4,2.2c-0.7,0.8-1.4,1.7-1.9,2.6l-2.8-1.6c-0.7,1.1-1.2,2.3-1.6,3.6c-0.4,1.2-0.7,2.5-0.8,3.9l3.3,0.3
		c-0.1,0.5-0.1,1.1-0.1,1.6s0,1.1,0.1,1.6L51.2,38c0.1,1.3,0.4,2.6,0.8,3.9c0.4,1.3,1,2.5,1.6,3.6l2.8-1.6c0.6,1,1.2,1.8,1.9,2.6
		l-2.4,2.2c0.9,1,1.9,1.9,2.9,2.7c1.1,0.8,2.2,1.4,3.4,2l1.3-3c1,0.4,2,0.8,3.1,1l-0.7,3.2c1.3,0.3,2.6,0.4,3.9,0.4s2.7-0.1,3.9-0.4
		l-0.7-3.2c1.1-0.2,2.1-0.6,3.1-1l1.3,3c1.2-0.5,2.4-1.2,3.4-2c1.1-0.8,2.1-1.7,2.9-2.7l-2.4-2.2c0.7-0.8,1.4-1.7,1.9-2.6l2.8,1.6
		c0.7-1.1,1.2-2.3,1.6-3.6c0.4-1.2,0.7-2.5,0.8-3.9l-3.3-0.3C85.6,37.1,85.7,36.6,85.7,36z"/>
	<path fill="#882E51" d="M70,49.2C70,42.7,63.3,36,56.8,36C63.3,36,70,29.3,70,22.8C70,29.3,76.7,36,83.2,36
		C76.7,36,70,42.7,70,49.2z"/>
</g>
</svg>
