<?xml version="1.0" encoding="utf-8"?>
<!-- Generator: Adobe Illustrator 18.0.0, SVG Export Plug-In . SVG Version: 6.00 Build 0)  -->
<!DOCTYPE svg PUBLIC "-//W3C//DTD SVG 1.1//EN" "http://www.w3.org/Graphics/SVG/1.1/DTD/svg11.dtd">
<svg version="1.1" id="Layer_1" xmlns="http://www.w3.org/2000/svg" xmlns:xlink="http://www.w3.org/1999/xlink" x="0px" y="0px"
	 viewBox="0 0 140 72" enable-background="new 0 0 140 72" xml:space="preserve">
<path fill="#D9D9D9" d="M116.2,61.6H23.8c-2.1,0-3.8-1.7-3.8-3.8V14.2c0-2.1,1.7-3.8,3.8-3.8h92.4c2.1,0,3.8,1.7,3.8,3.8v43.7
	C120,59.9,118.3,61.6,116.2,61.6z"/>
<path fill="#D3B07F" d="M91.5,63.5c-1.9,0.1-3.7,0.3-5.6,0.4c-4.6,0.2-9.2,0.3-13.8,0.4c-4.8,0.1-9.7,0.2-14.5,0.2
	c-0.9,0-1.9-0.1-2.8-0.3c-1-0.2-1.2-0.7-0.4-1.5c2.2-2.2,4.9-3.9,7.8-5c1-0.4,2-0.5,2.9-1c0.9-0.5,1.8-1.2,2.6-1.8
	c0.7-0.5,1.2-1.2,1.9-1.5c1.3-0.5,1.8-1.4,2-2.7c0.3-2.3,0.7-4.5,1.1-6.8c0.4-2.3-0.6-3.4-2.9-3.3c-0.4,0-0.8,0.1-1.2,0.1
	c-1.6,0.2-3.1-0.1-4.3-1.3c-1.2-1.1-2.6-1.6-4.2-1.6c-1.2,0-2.4,0.1-3.6,0.1c-2.5,0-3.5-0.6-3.8-2.9c-0.2-1.3-0.4-2.7-0.4-4
	c-0.1-1.8-0.3-2.1-2-2.3c-1.2-0.1-2.4-0.2-3.6-0.3c-1.6-0.3-1.8-0.9-0.9-2.2c2.4-3.2,5.2-5.9,9-7.5c0.2-0.1,0.4-0.2,0.6-0.3
	c2.1-0.8,3.3-2.1,3.4-4.5c0.1-1.2,0.8-2.5,1.5-3.5C61.2,9,62.4,7.9,63.6,7c1-0.8,1.7-0.5,2.4,0.6c0.7,1,1.3,2.1,2,3.1
	c1.3,2.1,3.3,2.7,5.3,1.2c2.3-1.6,4.8-2.6,7.5-3.1c0.4-0.1,0.7-0.1,1.1-0.1c2-0.1,2.2,0.1,2,2c-0.1,1.1,0.4,1.7,1.4,2
	c1.9,0.7,3.7,1.4,5.6,2.1c0.3,0.1,0.5,0.3,0.7,0.5c0.7,0.6,0.5,1.4-0.3,1.7c-0.7,0.2-1.4,0.4-2.1,0.7c-1.7,0.6-1.9,2.1-0.5,3.3
	c1.3,1.1,2.6,2.2,3.8,3.4c0.8,0.9,1.5,2,2,3.1c0.6,1.3,0.1,2.1-1.3,2.3c-1,0.1-2,0.1-3,0.3c-1.2,0.2-1.7,0.7-1.6,1.9
	c0.3,3.7-0.4,3.2-3.1,3.4c-0.9,0.1-1.7,0.2-2.6,0.4c-0.8,0.1-1.2,0.6-1.2,1.3c0,0.7,0,1.4,0.1,2.2c0.3,3.8,0.6,7.7,0.9,11.5
	c0.2,1.8,1.2,3.3,2.3,4.7c1.6,2,3.5,3.7,5.6,5.3C91.6,61.5,91.7,61.8,91.5,63.5z"/>
</svg>
