<?xml version="1.0" encoding="utf-8"?>
<!-- Generator: Adobe Illustrator 18.0.0, SVG Export Plug-In . SVG Version: 6.00 Build 0)  -->
<!DOCTYPE svg PUBLIC "-//W3C//DTD SVG 1.1//EN" "http://www.w3.org/Graphics/SVG/1.1/DTD/svg11.dtd">
<svg version="1.1" id="Layer_1" xmlns="http://www.w3.org/2000/svg" xmlns:xlink="http://www.w3.org/1999/xlink" x="0px" y="0px"
	 viewBox="0 0 140 70" enable-background="new 0 0 140 70" xml:space="preserve">
<path fill="#D9D9D9" d="M115.2,59.9H22.8c-2.1,0-3.8-1.7-3.8-3.8V12.5c0-2.1,1.7-3.8,3.8-3.8h92.4c2.1,0,3.8,1.7,3.8,3.8v43.7
	C119,58.2,117.3,59.9,115.2,59.9z"/>
<g>
	<path fill="#AD9E34" d="M71.4,38.7c-0.2-1.2-2.2-10.2-2.7-13.5c-0.4-2.3-0.9-4.5-2.5-6.2C60.9,13.6,55.5,8.5,48.4,5.6
		c-0.4-0.1-0.8-0.3-1.3-0.3c-0.4,0-0.9,0.2-1.3,0.3c-7.1,2.9-12.5,8-17.7,13.4c-1.7,1.7-2.2,3.9-2.5,6.2c-0.5,3.4-2.5,12.3-2.7,13.5
		c-0.2,1.4,1.1,2.8,2.7,2.9c2.6,0,5.2,0,7.7,0c1.6,0,3.1-0.2,4.1-1.6c0.4-0.5,8.8-10,9.7-11c1,1,9.3,10.5,9.7,11
		c1,1.3,2.6,1.5,4.1,1.6c2.6,0,5.2,0.1,7.7,0C70.3,41.5,71.6,40,71.4,38.7z"/>
	<g>
		<path fill="#D6CB60" d="M115.1,21.6c0.1,0.3,0,0.8-0.6,1.4c-0.6,0.7-1.4,1.3-2.2,1.7c-0.9,0.4-1.9,0.5-2.8,0.9
			c-1.2,0.6-1.5,2.3-1.3,3.5c0.3,2.5,2,4.3,2.2,7c0.4,6.6-1.9,11.7-4.8,17.4c-0.8,1.7-0.8,3.4,0.6,4.8c0.6,0.7,1.3,1.3,2.2,2
			c-0.3,0.8-0.6,1.9-0.9,3c-19.7,0-39.4,0-59.2,0c-1.4-1.6-1-5.3,0.7-6.8c0.6-0.5,1.2-1,1.8-1.4c2.2-1.6,2.3-3.5,0.5-5.5
			c-0.8-0.9-1.5-2.1-1.7-3.3c-0.4-3.1,0.8-5.7,3.6-7.5c0.7-0.5,1.1-1.4,1.5-2.2c1.2-2.3,1.9-4.8,3.4-6.8c2.4-3,5.1-5.9,8.5-7.9
			c4.6-2.8,7.9-2.7,11.9,0.8c1.8,1.6,3.7,3.5,5,5.7c0.9,1.6,1.4,5.7,3.4,6.2c1.8,0.5,5.2-0.9,6.2-2.5c1.5-2.4,5.6-5.4,5.5-8.5
			c0-1,0-2,0-3c0-1.9,0.8-2.6,2.6-3.1c3.3-0.8,6.3-0.2,9.2,1.3c0.9,0.4,1.8,0.9,2.7,1.3C114,20.8,114.9,21.1,115.1,21.6z"/>
	</g>
</g>
</svg>
