<?xml version="1.0" encoding="utf-8"?>
<!-- Generator: Adobe Illustrator 18.0.0, SVG Export Plug-In . SVG Version: 6.00 Build 0)  -->
<!DOCTYPE svg PUBLIC "-//W3C//DTD SVG 1.1//EN" "http://www.w3.org/Graphics/SVG/1.1/DTD/svg11.dtd">
<svg version="1.1" id="Layer_1" xmlns="http://www.w3.org/2000/svg" xmlns:xlink="http://www.w3.org/1999/xlink" x="0px" y="0px"
	 viewBox="0 0 140 72" enable-background="new 0 0 140 72" xml:space="preserve">
<g>
	<g>
		<path d="M61.7,777.4c1.3-2.2,3.7-1.5,5.7-2.2c0.6-0.2,1.3-0.2,2.1-0.3c-1.1-1.9-1.4-3.7-0.2-5.5c1.6-2.5,4.3-4.4,6.5-4.7
			c-0.5,0.6-1.1,1.2-1.5,1.9c-0.4,0.8-0.7,1.7-1.1,2.7c6.3,2.2,12.2,0.8,17.9-1.6c0,0-0.3-0.3-0.6-0.6c-0.3-0.4-0.4-0.9-0.7-1.5
			c0.7-0.2,1.3-0.4,1.9-0.6c0-0.1,0-0.2,0.1-0.3c-2.3-0.5-4.7-1-7-1.4c0-0.2,0.1-0.4,0.1-0.5c2.4,0.4,4.8,0.5,7.1,1.3
			c2.4,0.7,3,4.6,1.5,7.2c-0.4,0.7-0.9,1.4-1.5,2.2c2.7,0,5.2,0,8,0c-2-1.6-3.3-3.5-3.8-6s1.6-5.5,4.1-5.9c1.4-0.2,2.9-0.6,4.3-0.8
			c1.3-0.2,2.7-0.3,4-0.3c1.2,0,2.5,0.4,3.8,0.8c-4-0.9-7.3,0.6-10.4,3.2c0,0,0,0.6,0.3,0.7c3,1.6,6,3.4,9.2,4.7
			c3,1.3,5.8,0.1,8.3-1.8c0.5-0.4,1-0.7,1.6-1.1c0.3,0.8,0.5,1.3,0.8,2.1c0.1-0.9,0.2-1.6,0.3-2.3c5.4,0.6,6.4,3.3,2.9,8.2
			c3.3,2.5,6.7,4.9,10,7.5c2.9,2.3,6.1,4.3,8.4,7.1c1.4,1.7,1.3,4.6,1.6,7c0.1,0.4-1.2,1.1-2,1.5c-5.3,3.2-11.1,2.1-16.8,1.8
			c-2.2-0.1-4.3-0.4-6.4-0.5c-1.7,0-2.2-0.7-2.2-2.4c0-4.4-0.4-8.8-0.6-13.2c0-0.2-0.2-0.3-0.6-0.4c0.3,4.8,0.5,9.5,0.8,14.3
			c-0.1,0-0.3,0-0.4,0.1c-0.4-3.5-0.8-7-1.2-10.2c-1.6,1.1-3.4,2.2-5.1,3.6c-2.2,1.7-4.6,2.2-7.3,2.4c-4.7,0.4-9.3,0.6-13.9-0.8
			c-0.4-0.1-1.3,0.4-1.6,0.9c-1,1.5-1.9,3.1-2.8,4.8c-1.5,2.8-4.1,4.5-6.2,6.6c-5.2,5.3-11.6,6.4-18.6,6.1c-0.7,0-1.4-0.1-2.1-0.1
			c-6,0.4-8.5-4-10.5-7.4c-1.5-2.7-0.4-5.3,0.3-7.7c1.1-3.9,2.7-7.6,4.3-11.4c0.3-0.8,1.3-1.3,2-2c-0.2,0.4-0.4,0.8-0.7,1.1
			c-1.8,2.7-3.1,5.4-0.6,8.4c3-1.5,5.7,0.8,7.9,0.5c1.6,1.9,2.8,3.4,4,4.8c1.9-0.5,3.6-1,5.3-1.5c0,0.1,0.1,0.2,0.1,0.4
			c-1.9,0.9-3.9,1.8-5.5,2.6c3.2,1,6.7,2.1,9.9,3.1c-0.6-0.9-1.3-2-2.2-3.4c1.2,0.2,1.8,0.4,2.6,0.5c0-0.8,0-1.4,0-2.2
			c1.7,0,3.4,0.1,5-0.1c0.4,0,1.3-0.9,1.2-1.1c-0.9-2.5-1.9-5-3.1-7.8c-1.8,1.8-3.3,3.3-4.8,4.7c-0.1-0.1-0.2-0.2-0.3-0.3
			c0.4-0.8,0.9-1.7,1.4-2.8c-2.6,1-5.4,0.4-6.1-1.1c0.6-0.4,1.3-0.9,1.6-1.1c-0.5-1.2-1.2-2.2-1.1-3c0.2-1.3,1-2.5,1.3-3.8
			c0.2-0.9,0.1-1.9,0.2-2.6c2.3-0.7,4.8-0.6,7,1.2c0.1-0.2,0.1-0.4,0.2-0.6c-0.9-0.7-1.9-1.3-2.9-2.1c0.8-0.6,1.5-1.1,2.6-1.9
			c-2.4,0-4.4,0-6.3,0c-0.1,0.5-0.1,0.9-0.1,1.1C67.7,775.7,64.5,775.6,61.7,777.4z M110,787.8c0.1,0.3,0.3,0.7,0.4,1
			c0.1-0.1,0.3-0.2,0.4-0.3c-0.2-0.2-0.5-0.4-0.7-0.6c0.1-0.3,0.4-0.5,0.4-0.7c-0.6-2.1-1.2-4.2-1.8-6.3c0.6-0.1,0.9-0.1,1.5-0.1
			c-1.6-1.4-2.9-2.6-4.5-4c1,0,1.5-0.1,2.1-0.1c0-0.1,0-0.2,0.1-0.3c-2-0.6-3.9-1.2-5.9-1.8c0,0.1-0.1,0.3-0.1,0.4
			c1.2,0.4,2.5,0.8,3.7,1.2c0,0.2-0.1,0.4-0.1,0.6c-1-0.2-2.1-0.3-3.1-0.6c-2.9-0.9-5.8-1.2-8.8-0.7c-0.9,0.1-1.8,0.5-2.6,0.3
			c-2.2-0.6-3.8,0.3-5.4,1.8c1.9,1.8,3.1,4.5,6.1,4.9c1.9,0.2,3.1,0.7,2.4,2.4c0.4-0.4,1-1.7,1.7-1.7c3.6-0.3,7.2-0.3,10.6-0.3
			c-0.9,0.3-2,0.6-3.3,1c0.5,2.1,0.9,4.1,1.3,5.8c1.2,0.1,2.3,0.5,3.2,0.2C108.4,789.3,109.2,788.4,110,787.8z M111.1,771.1
			c-3-0.9-5.3-3.9-9-3.1c0.7,1.3,1.3,2.5,2,3.7c0.6,1.1,1.5,1.2,2.6,0.9C108.2,772.1,109.6,771.6,111.1,771.1z M76.3,771.1
			c1,1.3,1.5,2.4,2.4,2.9c2.1,1.3,4.3,0.7,5.9-1.5C82.1,770.7,79.3,771.6,76.3,771.1z M51.2,807.3c0.9-0.6,1.5-1,2.5-1.7
			c-1.8-1.2-3.5-2.3-5.1-3.4c-0.2,0.2-0.4,0.4-0.6,0.7C49.2,804.4,50.2,805.9,51.2,807.3z M124.6,781.5c1.1,2.7,1.1,2.7,3.5,3.4
			C128.6,782.3,126.9,781.6,124.6,781.5z M99.6,762.3c0.1,0.3,0.1,0.6,0.2,0.9c1.5-0.3,2.9-0.7,4.4-1c0-0.2-0.1-0.4-0.1-0.6
			C102.6,761.8,101.1,762,99.6,762.3z"/>
		<path d="M85.3,813.8c2.5-0.8,4.8,0.7,6.7,2.4c1.5,1.4,2.3,3.4,2,5.6c-0.8,5.6-4.9,7.8-9.1,8c-2.6,0.1-5.2,1.2-7.9,0
			c-4.9-2.1-6.7-6.1-4.7-10.6c0.4-0.8,1-1.7,1.8-2.2C77.8,814.8,80.5,814,85.3,813.8z M83.1,824.3c-0.5-0.1-0.9-0.2-1.7-0.4
			c1.9-0.5,3.5-0.8,5-1.2c1.1-0.3,1.8-0.9,2.2-2.3c0.6-2.4,0.4-3.8-2.4-4c-0.6,0-1.1-0.6-1.8-1c0,0.3,0,0.5,0,0.6s0.1,0.1,0.1,0.2
			c0,0,0,0.1,0-0.1c-2.1,0.3-4.1,0.6-6.1,0.8c0-0.2,0-0.3-0.1-0.5c0.3-0.3,0.6-0.5,0.9-0.8c-0.1-0.1-0.1-0.2-0.2-0.3
			c-0.9,0.4-1.7,0.8-2.7,1.2c1.9,0.7,2,1.2,0.6,2.7c-1.2,1.3-1.4,2.6-0.3,3.9C77.8,824.7,81.2,825.2,83.1,824.3z M75,822.2
			c0.2-0.7,0.3-1.4,0.5-2c-0.3-0.1-0.5-0.1-0.8-0.2c-0.2,1.1-0.4,2.1-0.7,3.6c0.9-0.5,1.3-0.7,1.8-1C75.4,822.5,75.2,822.3,75,822.2
			z"/>
		<path d="M129.6,822.9c0.2-1.4,0.4-2.6,0.6-3.9c-0.3,2,0.7,4-1.2,5.8c-2.2,2.1-4.8,2.7-7.5,2.7c-3.7-0.1-7.4-0.7-11-1
			c-2.2-0.2-3.8-1-4.9-3c-1-1.9-2.3-3.5-3.3-5.4c-0.6-1.1-1-2.2,0.1-3.4c1-1,0.8-1.3-0.8-3.9c-0.1,1-0.2,1.8-0.3,2.6
			c-0.8-4.5,1.5-7.7,5.9-8.4c3.5-0.6,6.9-0.7,10.2,1c-3.6-1.5-7.2-0.9-10.8-0.3c-1.3,0.2-1.6,0.6-1.5,2c0.1,1.7-0.2,3.5-0.3,5.2
			c1,0.5,2.4,0.8,3.4,1.6c2.5,1.9,4.2,4.1,3.2,7.6c-0.4,1.3,0.9,1.3,1.8,1.3c2.1,0.1,4.3,0.2,6.4,0.4c1.1,0.1,2.1,0.5,3.3,0.9
			C124.7,823.4,126.8,822,129.6,822.9z M107.7,815.4c-1.6-0.1-2.7-0.2-4.3-0.3c0.7,1.2,1.3,2.2,2,3.4
			C106.3,817.4,106.8,816.6,107.7,815.4z M103.1,817.6c1.2,2.9,2.8,5.5,5.2,7.4C106.6,822.6,104.8,820.1,103.1,817.6z"/>
	</g>
	<g>
		<path fill="#8BA66D" d="M61.7,777.4c1.3-2.2,3.7-1.5,5.7-2.2c0.6-0.2,1.3-0.2,2.1-0.3c-1.1-1.9-1.4-3.7-0.2-5.5
			c1.6-2.5,4.3-4.4,6.5-4.7c-0.5,0.6-1.1,1.2-1.5,1.9c-0.4,0.8-0.7,1.7-1.1,2.7c6.3,2.2,12.2,0.8,17.9-1.6c0,0-0.3-0.3-0.6-0.6
			c-0.3-0.4-0.4-0.9-0.7-1.5c0.7-0.2,1.3-0.4,1.9-0.6c0-0.1,0-0.2,0.1-0.3c-2.3-0.5-4.7-1-7-1.4c0-0.2,0.1-0.4,0.1-0.5
			c2.4,0.4,4.8,0.5,7.1,1.3c2.4,0.7,3,4.6,1.5,7.2c-0.4,0.7-0.9,1.4-1.5,2.2c2.7,0,5.2,0,8,0c-2-1.6-3.3-3.5-3.8-6s1.6-5.5,4.1-5.9
			c1.4-0.2,2.9-0.6,4.3-0.8c1.3-0.2,2.7-0.3,4-0.3c1.2,0,2.5,0.4,3.8,0.8c-4-0.9-7.3,0.6-10.4,3.2c0,0,0,0.6,0.3,0.7
			c3,1.6,6,3.4,9.2,4.7c3,1.3,5.8,0.1,8.3-1.8c0.5-0.4,1-0.7,1.6-1.1c0.3,0.8,0.5,1.3,0.8,2.1c0.1-0.9,0.2-1.6,0.3-2.3
			c5.4,0.6,6.4,3.3,2.9,8.2c3.3,2.5,6.7,4.9,10,7.5c2.9,2.3,6.1,4.3,8.4,7.1c1.4,1.7,1.3,4.6,1.6,7c0.1,0.4-1.2,1.1-2,1.5
			c-5.3,3.2-11.1,2.1-16.8,1.8c-2.2-0.1-4.3-0.4-6.4-0.5c-1.7,0-2.2-0.7-2.2-2.4c0-4.4-0.4-8.8-0.6-13.2c0-0.2-0.2-0.3-0.6-0.4
			c0.3,4.8,0.5,9.5,0.8,14.3c-0.1,0-0.3,0-0.4,0.1c-0.4-3.5-0.8-7-1.2-10.2c-1.6,1.1-3.4,2.2-5.1,3.6c-2.2,1.7-4.6,2.2-7.3,2.4
			c-4.7,0.4-9.3,0.6-13.9-0.8c-0.4-0.1-1.3,0.4-1.6,0.9c-1,1.5-1.9,3.1-2.8,4.8c-1.5,2.8-4.1,4.5-6.2,6.6
			c-5.2,5.3-11.6,6.4-18.6,6.1c-0.7,0-1.4-0.1-2.1-0.1c-6,0.4-8.5-4-10.5-7.4c-1.5-2.7-0.4-5.3,0.3-7.7c1.1-3.9,2.7-7.6,4.3-11.4
			c0.3-0.8,1.3-1.3,2-2c-0.2,0.4-0.4,0.8-0.7,1.1c-1.8,2.7-3.1,5.4-0.6,8.4c3-1.5,5.7,0.8,7.9,0.5c1.6,1.9,2.8,3.4,4,4.8
			c1.9-0.5,3.6-1,5.3-1.5c0,0.1,0.1,0.2,0.1,0.4c-1.9,0.9-3.9,1.8-5.5,2.6c3.2,1,6.7,2.1,9.9,3.1c-0.6-0.9-1.3-2-2.2-3.4
			c1.2,0.2,1.8,0.4,2.6,0.5c0-0.8,0-1.4,0-2.2c1.7,0,3.4,0.1,5-0.1c0.4,0,1.3-0.9,1.2-1.1c-0.9-2.5-1.9-5-3.1-7.8
			c-1.8,1.8-3.3,3.3-4.8,4.7c-0.1-0.1-0.2-0.2-0.3-0.3c0.4-0.8,0.9-1.7,1.4-2.8c-2.6,1-5.4,0.4-6.1-1.1c0.6-0.4,1.3-0.9,1.6-1.1
			c-0.5-1.2-1.2-2.2-1.1-3c0.2-1.3,1-2.5,1.3-3.8c0.2-0.9,0.1-1.9,0.2-2.6c2.3-0.7,4.8-0.6,7,1.2c0.1-0.2,0.1-0.4,0.2-0.6
			c-0.9-0.7-1.9-1.3-2.9-2.1c0.8-0.6,1.5-1.1,2.6-1.9c-2.4,0-4.4,0-6.3,0c-0.1,0.5-0.1,0.9-0.1,1.1
			C67.7,775.7,64.5,775.6,61.7,777.4z M110,787.8c0.1,0.3,0.3,0.7,0.4,1c0.1-0.1,0.3-0.2,0.4-0.3c-0.2-0.2-0.5-0.4-0.7-0.6
			c0.1-0.3,0.4-0.5,0.4-0.7c-0.6-2.1-1.2-4.2-1.8-6.3c0.6-0.1,0.9-0.1,1.5-0.1c-1.6-1.4-2.9-2.6-4.5-4c1,0,1.5-0.1,2.1-0.1
			c0-0.1,0-0.2,0.1-0.3c-2-0.6-3.9-1.2-5.9-1.8c0,0.1-0.1,0.3-0.1,0.4c1.2,0.4,2.5,0.8,3.7,1.2c0,0.2-0.1,0.4-0.1,0.6
			c-1-0.2-2.1-0.3-3.1-0.6c-2.9-0.9-5.8-1.2-8.8-0.7c-0.9,0.1-1.8,0.5-2.6,0.3c-2.2-0.6-3.8,0.3-5.4,1.8c1.9,1.8,3.1,4.5,6.1,4.9
			c1.9,0.2,3.1,0.7,2.4,2.4c0.4-0.4,1-1.7,1.7-1.7c3.6-0.3,7.2-0.3,10.6-0.3c-0.9,0.3-2,0.6-3.3,1c0.5,2.1,0.9,4.1,1.3,5.8
			c1.2,0.1,2.3,0.5,3.2,0.2C108.4,789.3,109.2,788.4,110,787.8z M111.1,771.1c-3-0.9-5.3-3.9-9-3.1c0.7,1.3,1.3,2.5,2,3.7
			c0.6,1.1,1.5,1.2,2.6,0.9C108.2,772.1,109.6,771.6,111.1,771.1z M76.3,771.1c1,1.3,1.5,2.4,2.4,2.9c2.1,1.3,4.3,0.7,5.9-1.5
			C82.1,770.7,79.3,771.6,76.3,771.1z M51.2,807.3c0.9-0.6,1.5-1,2.5-1.7c-1.8-1.2-3.5-2.3-5.1-3.4c-0.2,0.2-0.4,0.4-0.6,0.7
			C49.2,804.4,50.2,805.9,51.2,807.3z M124.6,781.5c1.1,2.7,1.1,2.7,3.5,3.4C128.6,782.3,126.9,781.6,124.6,781.5z M99.6,762.3
			c0.1,0.3,0.1,0.6,0.2,0.9c1.5-0.3,2.9-0.7,4.4-1c0-0.2-0.1-0.4-0.1-0.6C102.6,761.8,101.1,762,99.6,762.3z"/>
		<path fill="#8BA66D" d="M85.3,813.8c2.5-0.8,4.8,0.7,6.7,2.4c1.5,1.4,2.3,3.4,2,5.6c-0.8,5.6-4.9,7.8-9.1,8
			c-2.6,0.1-5.2,1.2-7.9,0c-4.9-2.1-6.7-6.1-4.7-10.6c0.4-0.8,1-1.7,1.8-2.2C77.8,814.8,80.5,814,85.3,813.8z M83.1,824.3
			c-0.5-0.1-0.9-0.2-1.7-0.4c1.9-0.5,3.5-0.8,5-1.2c1.1-0.3,1.8-0.9,2.2-2.3c0.6-2.4,0.4-3.8-2.4-4c-0.6,0-1.1-0.6-1.8-1
			c0,0.3,0,0.5,0,0.6s0.1,0.1,0.1,0.2c0,0,0,0.1,0-0.1c-2.1,0.3-4.1,0.6-6.1,0.8c0-0.2,0-0.3-0.1-0.5c0.3-0.3,0.6-0.5,0.9-0.8
			c-0.1-0.1-0.1-0.2-0.2-0.3c-0.9,0.4-1.7,0.8-2.7,1.2c1.9,0.7,2,1.2,0.6,2.7c-1.2,1.3-1.4,2.6-0.3,3.9
			C77.8,824.7,81.2,825.2,83.1,824.3z M75,822.2c0.2-0.7,0.3-1.4,0.5-2c-0.3-0.1-0.5-0.1-0.8-0.2c-0.2,1.1-0.4,2.1-0.7,3.6
			c0.9-0.5,1.3-0.7,1.8-1C75.4,822.5,75.2,822.3,75,822.2z"/>
		<path fill="#8BA66D" d="M129.6,822.9c0.2-1.4,0.4-2.6,0.6-3.9c-0.3,2,0.7,4-1.2,5.8c-2.2,2.1-4.8,2.7-7.5,2.7
			c-3.7-0.1-7.4-0.7-11-1c-2.2-0.2-3.8-1-4.9-3c-1-1.9-2.3-3.5-3.3-5.4c-0.6-1.1-1-2.2,0.1-3.4c1-1,0.8-1.3-0.8-3.9
			c-0.1,1-0.2,1.8-0.3,2.6c-0.8-4.5,1.5-7.7,5.9-8.4c3.5-0.6,6.9-0.7,10.2,1c-3.6-1.5-7.2-0.9-10.8-0.3c-1.3,0.2-1.6,0.6-1.5,2
			c0.1,1.7-0.2,3.5-0.3,5.2c1,0.5,2.4,0.8,3.4,1.6c2.5,1.9,4.2,4.1,3.2,7.6c-0.4,1.3,0.9,1.3,1.8,1.3c2.1,0.1,4.3,0.2,6.4,0.4
			c1.1,0.1,2.1,0.5,3.3,0.9C124.7,823.4,126.8,822,129.6,822.9z M107.7,815.4c-1.6-0.1-2.7-0.2-4.3-0.3c0.7,1.2,1.3,2.2,2,3.4
			C106.3,817.4,106.8,816.6,107.7,815.4z M103.1,817.6c1.2,2.9,2.8,5.5,5.2,7.4C106.6,822.6,104.8,820.1,103.1,817.6z"/>
	</g>
</g>
<path fill="#FFFFFF" d="M116.2,61.6H23.8c-2.1,0-3.8-1.7-3.8-3.8V14.2c0-2.1,1.7-3.8,3.8-3.8h92.4c2.1,0,3.8,1.7,3.8,3.8v43.7
	C120,59.9,118.3,61.6,116.2,61.6z"/>
<path fill="#F2DDC9" d="M128.8,25.5c0,0-2.8-5.8-14.9-4.2c-12.1,1.6-22.1,4.5-33.7,5.4c-2.2,0.2-4.9,0.3-7.9,0.5
	c-2.3,0-4.6-0.4-4.6-0.4s-1.2-5.5-10-6.6v-0.6c0,0,1.9-0.3,2-1.4c0.1-1.2-2.4-1.6-2.4-1.6v-0.7c0,0,2.4-1.8,2.4-4.1s-3.4-5.1-3.4-7
	c0,1.9-3.4,4.7-3.4,7s2.4,4.1,2.4,4.1v0.7c0,0-2.5,0.5-2.4,1.6c0.1,1.2,2,1.4,2,1.4v0.6c-8.9,1.1-10,6.6-10,6.6
	c-2.3,0.9-8.9,0.6-8.9,0.6s-0.8-3,1.4-7.8c0,0-4.7-11.7-25.9-9.1c0,0-0.9,12.2,6,17.9c0,0,14,4.9,15.2,13.4c0,0-2.3-0.7-2.3,2.2
	c0,2.8,1.4,3.5,3.3,3.5c1.9,0,3.4-2,2.8-4.7c0,0,6.9,9.1,21.5,9.1h-2.8c0,0-1.2,4.3-6.5,6c-5.3,1.6-6.2,2.2-5.6,3.7
	c0.7,1.5,6.8,4.1,14.9,4.1s14.2-2.6,14.9-4.1c0.7-1.5-0.3-2-5.6-3.7c-5.3-1.6-6.5-6-6.5-6h-1c3.9-0.1,13.5-1.2,23.7-7.9
	C96.7,35.4,107,25.5,128.8,25.5z M31.1,32.6c-6.8-5.6-9.3-4.3-12.2-7.6s-1.8-11.2-1.8-11.2c11.8-1.6,17.3,5.6,17.3,5.6
	C31.2,25.1,31.1,32.6,31.1,32.6z"/>
<g>
	<path fill="#333333" d="M39.2,42.2c-0.3,1.4-0.7,2.6-1.2,3.4s-1.1,1.5-1.9,1.9s-1.7,0.6-2.8,0.6c-0.2,0-0.5,0-0.7,0
		S32.1,48,32,47.9l0.4-1.3c0.1,0,0.3,0.1,0.5,0.1s0.4,0,0.6,0c0.5,0,1-0.1,1.4-0.4s0.7-0.7,1.1-1.3s0.6-1.4,0.8-2.5l3.2-14.4
		c0.1-0.4,0.2-0.8,0.2-1.2s0.1-0.7,0.1-1c0-0.4-0.1-0.7-0.3-0.9s-0.6-0.3-1-0.3l0.2-0.7h5.5l-0.2,0.7c-0.3,0.1-0.6,0.2-0.7,0.2
		s-0.3,0.2-0.4,0.4s-0.2,0.5-0.4,0.9s-0.3,1-0.5,1.9L39.2,42.2z"/>
	<path fill="#333333" d="M54.8,30.4l1.3-0.9l0.9,0.2L54.9,39c-0.1,0.5-0.2,1-0.3,1.3s-0.1,0.5-0.1,0.7c0,0.4,0.1,0.6,0.3,0.8
		s0.6,0.3,1.2,0.3L56,42.8H52l0.9-3.4l-0.2-0.1c-0.9,1.3-1.7,2.2-2.5,2.8S48.6,43,47.7,43c-1,0-1.8-0.4-2.3-1.1s-0.8-1.8-0.8-3.2
		c0-0.9,0.1-1.8,0.3-2.6c0.2-0.9,0.5-1.7,0.9-2.5s0.9-1.5,1.5-2.1s1.2-1.1,2-1.4s1.6-0.5,2.4-0.5c0.6,0,1.1,0.1,1.6,0.2
		S54.3,30,54.8,30.4z M53.6,34.4c0.1-0.4,0.1-0.7,0.2-1s0-0.6,0-0.9c0-0.7-0.2-1.2-0.5-1.6s-0.8-0.5-1.5-0.5c-0.4,0-0.7,0.1-1.1,0.2
		s-0.7,0.3-1.1,0.6s-0.7,0.7-1,1.1s-0.6,1-0.9,1.7s-0.5,1.4-0.6,2.1c-0.1,0.8-0.2,1.5-0.2,2.2c0,0.9,0.1,1.7,0.4,2.1
		s0.7,0.7,1.3,0.7c0.3,0,0.6-0.1,0.9-0.2s0.6-0.4,1-0.7s0.8-0.8,1.3-1.5c0.4-0.6,0.8-1.2,1-1.8s0.5-1.3,0.6-2.1L53.6,34.4z"/>
	<path fill="#333333" d="M69.6,30.4l1.3-0.9l0.9,0.2L69.6,39c-0.1,0.5-0.2,1-0.3,1.3s-0.1,0.5-0.1,0.7c0,0.4,0.1,0.6,0.3,0.8
		s0.6,0.3,1.2,0.3l-0.1,0.7h-3.9l0.9-3.4l-0.2-0.1c-0.9,1.3-1.7,2.2-2.5,2.8S63.3,43,62.5,43c-1,0-1.8-0.4-2.3-1.1s-0.8-1.8-0.8-3.2
		c0-0.9,0.1-1.8,0.3-2.6c0.2-0.9,0.5-1.7,0.9-2.5s0.9-1.5,1.5-2.1s1.2-1.1,2-1.4s1.6-0.5,2.4-0.5c0.6,0,1.1,0.1,1.6,0.2
		S69,30,69.6,30.4z M68.4,34.4c0.1-0.4,0.1-0.7,0.2-1s0-0.6,0-0.9c0-0.7-0.2-1.2-0.5-1.6s-0.8-0.5-1.5-0.5c-0.4,0-0.7,0.1-1.1,0.2
		s-0.7,0.3-1.1,0.6s-0.7,0.7-1,1.1s-0.6,1-0.9,1.7s-0.5,1.4-0.6,2.1c-0.1,0.8-0.2,1.5-0.2,2.2c0,0.9,0.1,1.7,0.4,2.1
		s0.7,0.7,1.3,0.7c0.3,0,0.6-0.1,0.9-0.2s0.6-0.4,1-0.7s0.8-0.8,1.3-1.5c0.4-0.6,0.8-1.2,1-1.8s0.5-1.3,0.6-2.1L68.4,34.4z"/>
	<path fill="#333333" d="M76.4,43c-0.3,1.5-0.7,2.6-1.3,3.5s-1.2,1.5-2,1.8s-1.7,0.6-2.8,0.6c-0.4,0-0.8,0-1.1-0.1l0.3-1.2
		c0.2,0.1,0.5,0.1,1,0.1c0.5,0,0.9-0.1,1.2-0.2s0.6-0.3,0.8-0.6s0.5-0.7,0.7-1.3s0.5-1.3,0.7-2.2l2.8-12.3H75l0.2-0.7
		c0.4,0,0.8-0.1,0.9-0.2s0.3-0.2,0.4-0.3s0.2-0.3,0.3-0.6s0.2-0.7,0.4-1.3c0.5-1.6,1.2-2.9,2.2-3.7s2.3-1.2,3.8-1.2
		c0.9,0,1.7,0.1,2.3,0.2l-0.5,2.3H84c-0.1-0.5-0.3-0.9-0.5-1.1s-0.5-0.3-0.9-0.3c-0.5,0-1,0.1-1.3,0.4s-0.7,0.7-0.9,1.3
		s-0.5,1.3-0.7,2.3l-0.3,1.5h3.1l-0.3,1.4h-3.1L76.4,43z"/>
	<path fill="#333333" d="M92.5,30.4l1.3-0.9l0.9,0.2L92.5,39c-0.1,0.5-0.2,1-0.3,1.3s-0.1,0.5-0.1,0.7c0,0.4,0.1,0.6,0.3,0.8
		s0.6,0.3,1.2,0.3l-0.1,0.7h-3.9l0.9-3.4l-0.2-0.1c-0.9,1.3-1.7,2.2-2.5,2.8S86.3,43,85.4,43c-1,0-1.8-0.4-2.3-1.1s-0.8-1.8-0.8-3.2
		c0-0.9,0.1-1.8,0.3-2.6c0.2-0.9,0.5-1.7,0.9-2.5s0.9-1.5,1.5-2.1s1.2-1.1,2-1.4s1.6-0.5,2.4-0.5c0.6,0,1.1,0.1,1.6,0.2
		S91.9,30,92.5,30.4z M91.3,34.4c0.1-0.4,0.1-0.7,0.2-1s0-0.6,0-0.9c0-0.7-0.2-1.2-0.5-1.6s-0.8-0.5-1.5-0.5c-0.4,0-0.7,0.1-1.1,0.2
		s-0.7,0.3-1.1,0.6s-0.7,0.7-1,1.1s-0.6,1-0.9,1.7s-0.5,1.4-0.6,2.1c-0.1,0.8-0.2,1.5-0.2,2.2c0,0.9,0.1,1.7,0.4,2.1
		s0.7,0.7,1.3,0.7c0.3,0,0.6-0.1,0.9-0.2s0.6-0.4,1-0.7s0.8-0.8,1.3-1.5c0.4-0.6,0.8-1.2,1-1.8s0.5-1.3,0.6-2.1L91.3,34.4z"/>
	<path fill="#333333" d="M101.2,29.6h0.8l-1,3.4l0.2,0.1c0.9-1.2,1.7-2.1,2.5-2.7s1.7-0.9,2.5-0.9c0.7,0,1.2,0,1.7,0.2l-0.7,3.1H106
		c-0.1-0.5-0.2-0.8-0.3-1.1s-0.4-0.4-0.7-0.4c-0.4,0-0.8,0.2-1.2,0.5s-0.9,0.9-1.4,1.5s-0.8,1.2-1.1,1.8s-0.4,1.1-0.6,1.8l-1.2,5.9
		H97l2.1-9.3c0.2-0.9,0.3-1.5,0.3-2c0-0.3,0-0.5-0.1-0.6s-0.2-0.2-0.4-0.3s-0.5-0.1-0.9-0.1l0.2-0.7L101.2,29.6z"/>
</g>
</svg>
