<?xml version="1.0" encoding="utf-8"?>
<!-- Generator: Adobe Illustrator 18.0.0, SVG Export Plug-In . SVG Version: 6.00 Build 0)  -->
<!DOCTYPE svg PUBLIC "-//W3C//DTD SVG 1.1//EN" "http://www.w3.org/Graphics/SVG/1.1/DTD/svg11.dtd">
<svg version="1.1" id="Layer_1" xmlns="http://www.w3.org/2000/svg" xmlns:xlink="http://www.w3.org/1999/xlink" x="0px" y="0px"
	 viewBox="0 0 140 72" enable-background="new 0 0 140 72" xml:space="preserve">
<path fill="#D2FAA5" d="M115.2,60.8H22.8c-2.1,0-3.8-1.7-3.8-3.8V13.4c0-2.1,1.7-3.8,3.8-3.8h92.4c2.1,0,3.8,1.7,3.8,3.8V57
	C119,59.1,117.3,60.8,115.2,60.8z"/>
<g>
	<g>
		<path d="M61.7,777.4c1.3-2.2,3.7-1.5,5.7-2.2c0.6-0.2,1.3-0.2,2.1-0.3c-1.1-1.9-1.4-3.7-0.2-5.5c1.6-2.5,4.3-4.4,6.5-4.7
			c-0.5,0.6-1.1,1.2-1.5,1.9c-0.4,0.8-0.7,1.7-1.1,2.7c6.3,2.2,12.2,0.8,17.9-1.6c0,0-0.3-0.3-0.6-0.6c-0.3-0.4-0.4-0.9-0.7-1.5
			c0.7-0.2,1.3-0.4,1.9-0.6c0-0.1,0-0.2,0.1-0.3c-2.3-0.5-4.7-1-7-1.4c0-0.2,0.1-0.4,0.1-0.5c2.4,0.4,4.8,0.5,7.1,1.3
			c2.4,0.7,3,4.6,1.5,7.2c-0.4,0.7-0.9,1.4-1.5,2.2c2.7,0,5.2,0,8,0c-2-1.6-3.3-3.5-3.8-6c-0.5-2.5,1.6-5.5,4.1-5.9
			c1.4-0.2,2.9-0.6,4.3-0.8c1.3-0.2,2.7-0.3,4-0.3c1.2,0,2.5,0.4,3.8,0.8c-4-0.9-7.3,0.6-10.4,3.2c0,0,0,0.6,0.3,0.7
			c3,1.6,6,3.4,9.2,4.7c3,1.3,5.8,0.1,8.3-1.8c0.5-0.4,1-0.7,1.6-1.1c0.3,0.8,0.5,1.3,0.8,2.1c0.1-0.9,0.2-1.6,0.3-2.3
			c5.4,0.6,6.4,3.3,2.9,8.2c3.3,2.5,6.7,4.9,10,7.5c2.9,2.3,6.1,4.3,8.4,7.1c1.4,1.7,1.3,4.6,1.6,7c0.1,0.4-1.2,1.1-2,1.5
			c-5.3,3.2-11.1,2.1-16.8,1.8c-2.2-0.1-4.3-0.4-6.4-0.5c-1.7,0-2.2-0.7-2.2-2.4c0-4.4-0.4-8.8-0.6-13.2c0-0.2-0.2-0.3-0.6-0.4
			c0.3,4.8,0.5,9.5,0.8,14.3c-0.1,0-0.3,0-0.4,0.1c-0.4-3.5-0.8-7-1.2-10.2c-1.6,1.1-3.4,2.2-5.1,3.6c-2.2,1.7-4.6,2.2-7.3,2.4
			c-4.7,0.4-9.3,0.6-13.9-0.8c-0.4-0.1-1.3,0.4-1.6,0.9c-1,1.5-1.9,3.1-2.8,4.8c-1.5,2.8-4.1,4.5-6.2,6.6
			c-5.2,5.3-11.6,6.4-18.6,6.1c-0.7,0-1.4-0.1-2.1-0.1c-6,0.4-8.5-4-10.5-7.4c-1.5-2.7-0.4-5.3,0.3-7.7c1.1-3.9,2.7-7.6,4.3-11.4
			c0.3-0.8,1.3-1.3,2-2c-0.2,0.4-0.4,0.8-0.7,1.1c-1.8,2.7-3.1,5.4-0.6,8.4c3-1.5,5.7,0.8,7.9,0.5c1.6,1.9,2.8,3.4,4,4.8
			c1.9-0.5,3.6-1,5.3-1.5c0,0.1,0.1,0.2,0.1,0.4c-1.9,0.9-3.9,1.8-5.5,2.6c3.2,1,6.7,2.1,9.9,3.1c-0.6-0.9-1.3-2-2.2-3.4
			c1.2,0.2,1.8,0.4,2.6,0.5c0-0.8,0-1.4,0-2.2c1.7,0,3.4,0.1,5-0.1c0.4,0,1.3-0.9,1.2-1.1c-0.9-2.5-1.9-5-3.1-7.8
			c-1.8,1.8-3.3,3.3-4.8,4.7c-0.1-0.1-0.2-0.2-0.3-0.3c0.4-0.8,0.9-1.7,1.4-2.8c-2.6,1-5.4,0.4-6.1-1.1c0.6-0.4,1.3-0.9,1.6-1.1
			c-0.5-1.2-1.2-2.2-1.1-3c0.2-1.3,1-2.5,1.3-3.8c0.2-0.9,0.1-1.9,0.2-2.6c2.3-0.7,4.8-0.6,7,1.2c0.1-0.2,0.1-0.4,0.2-0.6
			c-0.9-0.7-1.9-1.3-2.9-2.1c0.8-0.6,1.5-1.1,2.6-1.9c-2.4,0-4.4,0-6.3,0c-0.1,0.5-0.1,0.9-0.1,1.1
			C67.7,775.7,64.5,775.6,61.7,777.4z M110,787.8c0.1,0.3,0.3,0.7,0.4,1c0.1-0.1,0.3-0.2,0.4-0.3c-0.2-0.2-0.5-0.4-0.7-0.6
			c0.1-0.3,0.4-0.5,0.4-0.7c-0.6-2.1-1.2-4.2-1.8-6.3c0.6-0.1,0.9-0.1,1.5-0.1c-1.6-1.4-2.9-2.6-4.5-4c1,0,1.5-0.1,2.1-0.1
			c0-0.1,0-0.2,0.1-0.3c-2-0.6-3.9-1.2-5.9-1.8c0,0.1-0.1,0.3-0.1,0.4c1.2,0.4,2.5,0.8,3.7,1.2c0,0.2-0.1,0.4-0.1,0.6
			c-1-0.2-2.1-0.3-3.1-0.6c-2.9-0.9-5.8-1.2-8.8-0.7c-0.9,0.1-1.8,0.5-2.6,0.3c-2.2-0.6-3.8,0.3-5.4,1.8c1.9,1.8,3.1,4.5,6.1,4.9
			c1.9,0.2,3.1,0.7,2.4,2.4c0.4-0.4,1-1.7,1.7-1.7c3.6-0.3,7.2-0.3,10.6-0.3c-0.9,0.3-2,0.6-3.3,1c0.5,2.1,0.9,4.1,1.3,5.8
			c1.2,0.1,2.3,0.5,3.2,0.2C108.4,789.3,109.2,788.4,110,787.8z M111.1,771.1c-3-0.9-5.3-3.9-9-3.1c0.7,1.3,1.3,2.5,2,3.7
			c0.6,1.1,1.5,1.2,2.6,0.9C108.2,772.1,109.6,771.6,111.1,771.1z M76.3,771.1c1,1.3,1.5,2.4,2.4,2.9c2.1,1.3,4.3,0.7,5.9-1.5
			C82.1,770.7,79.3,771.6,76.3,771.1z M51.2,807.3c0.9-0.6,1.5-1,2.5-1.7c-1.8-1.2-3.5-2.3-5.1-3.4c-0.2,0.2-0.4,0.4-0.6,0.7
			C49.2,804.4,50.2,805.9,51.2,807.3z M124.6,781.5c1.1,2.7,1.1,2.7,3.5,3.4C128.6,782.3,126.9,781.6,124.6,781.5z M99.6,762.3
			c0.1,0.3,0.1,0.6,0.2,0.9c1.5-0.3,2.9-0.7,4.4-1c0-0.2-0.1-0.4-0.1-0.6C102.6,761.8,101.1,762,99.6,762.3z"/>
		<path d="M85.3,813.8c2.5-0.8,4.8,0.7,6.7,2.4c1.5,1.4,2.3,3.4,2,5.6c-0.8,5.6-4.9,7.8-9.1,8c-2.6,0.1-5.2,1.2-7.9,0
			c-4.9-2.1-6.7-6.1-4.7-10.6c0.4-0.8,1-1.7,1.8-2.2C77.8,814.8,80.5,814,85.3,813.8z M83.1,824.3c-0.5-0.1-0.9-0.2-1.7-0.4
			c1.9-0.5,3.5-0.8,5-1.2c1.1-0.3,1.8-0.9,2.2-2.3c0.6-2.4,0.4-3.8-2.4-4c-0.6,0-1.1-0.6-1.8-1c0,0.3,0,0.5,0,0.6
			c0,0.1,0.1,0.1,0.1,0.2c0,0,0,0.1,0-0.1c-2.1,0.3-4.1,0.6-6.1,0.8c0-0.2,0-0.3-0.1-0.5c0.3-0.3,0.6-0.5,0.9-0.8
			c-0.1-0.1-0.1-0.2-0.2-0.3c-0.9,0.4-1.7,0.8-2.7,1.2c1.9,0.7,2,1.2,0.6,2.7c-1.2,1.3-1.4,2.6-0.3,3.9
			C77.8,824.7,81.2,825.2,83.1,824.3z M75,822.2c0.2-0.7,0.3-1.4,0.5-2c-0.3-0.1-0.5-0.1-0.8-0.2c-0.2,1.1-0.4,2.1-0.7,3.6
			c0.9-0.5,1.3-0.7,1.8-1C75.4,822.5,75.2,822.3,75,822.2z"/>
		<path d="M129.6,822.9c0.2-1.4,0.4-2.6,0.6-3.9c-0.3,2,0.7,4-1.2,5.8c-2.2,2.1-4.8,2.7-7.5,2.7c-3.7-0.1-7.4-0.7-11-1
			c-2.2-0.2-3.8-1-4.9-3c-1-1.9-2.3-3.5-3.3-5.4c-0.6-1.1-1-2.2,0.1-3.4c1-1,0.8-1.3-0.8-3.9c-0.1,1-0.2,1.8-0.3,2.6
			c-0.8-4.5,1.5-7.7,5.9-8.4c3.5-0.6,6.9-0.7,10.2,1c-3.6-1.5-7.2-0.9-10.8-0.3c-1.3,0.2-1.6,0.6-1.5,2c0.1,1.7-0.2,3.5-0.3,5.2
			c1,0.5,2.4,0.8,3.4,1.6c2.5,1.9,4.2,4.1,3.2,7.6c-0.4,1.3,0.9,1.3,1.8,1.3c2.1,0.1,4.3,0.2,6.4,0.4c1.1,0.1,2.1,0.5,3.3,0.9
			C124.7,823.4,126.8,822,129.6,822.9z M107.7,815.4c-1.6-0.1-2.7-0.2-4.3-0.3c0.7,1.2,1.3,2.2,2,3.4
			C106.3,817.4,106.8,816.6,107.7,815.4z M103.1,817.6c1.2,2.9,2.8,5.5,5.2,7.4C106.6,822.6,104.8,820.1,103.1,817.6z"/>
	</g>
	<g>
		<path fill="#8BA66D" d="M61.7,777.4c1.3-2.2,3.7-1.5,5.7-2.2c0.6-0.2,1.3-0.2,2.1-0.3c-1.1-1.9-1.4-3.7-0.2-5.5
			c1.6-2.5,4.3-4.4,6.5-4.7c-0.5,0.6-1.1,1.2-1.5,1.9c-0.4,0.8-0.7,1.7-1.1,2.7c6.3,2.2,12.2,0.8,17.9-1.6c0,0-0.3-0.3-0.6-0.6
			c-0.3-0.4-0.4-0.9-0.7-1.5c0.7-0.2,1.3-0.4,1.9-0.6c0-0.1,0-0.2,0.1-0.3c-2.3-0.5-4.7-1-7-1.4c0-0.2,0.1-0.4,0.1-0.5
			c2.4,0.4,4.8,0.5,7.1,1.3c2.4,0.7,3,4.6,1.5,7.2c-0.4,0.7-0.9,1.4-1.5,2.2c2.7,0,5.2,0,8,0c-2-1.6-3.3-3.5-3.8-6
			c-0.5-2.5,1.6-5.5,4.1-5.9c1.4-0.2,2.9-0.6,4.3-0.8c1.3-0.2,2.7-0.3,4-0.3c1.2,0,2.5,0.4,3.8,0.8c-4-0.9-7.3,0.6-10.4,3.2
			c0,0,0,0.6,0.3,0.7c3,1.6,6,3.4,9.2,4.7c3,1.3,5.8,0.1,8.3-1.8c0.5-0.4,1-0.7,1.6-1.1c0.3,0.8,0.5,1.3,0.8,2.1
			c0.1-0.9,0.2-1.6,0.3-2.3c5.4,0.6,6.4,3.3,2.9,8.2c3.3,2.5,6.7,4.9,10,7.5c2.9,2.3,6.1,4.3,8.4,7.1c1.4,1.7,1.3,4.6,1.6,7
			c0.1,0.4-1.2,1.1-2,1.5c-5.3,3.2-11.1,2.1-16.8,1.8c-2.2-0.1-4.3-0.4-6.4-0.5c-1.7,0-2.2-0.7-2.2-2.4c0-4.4-0.4-8.8-0.6-13.2
			c0-0.2-0.2-0.3-0.6-0.4c0.3,4.8,0.5,9.5,0.8,14.3c-0.1,0-0.3,0-0.4,0.1c-0.4-3.5-0.8-7-1.2-10.2c-1.6,1.1-3.4,2.2-5.1,3.6
			c-2.2,1.7-4.6,2.2-7.3,2.4c-4.7,0.4-9.3,0.6-13.9-0.8c-0.4-0.1-1.3,0.4-1.6,0.9c-1,1.5-1.9,3.1-2.8,4.8c-1.5,2.8-4.1,4.5-6.2,6.6
			c-5.2,5.3-11.6,6.4-18.6,6.1c-0.7,0-1.4-0.1-2.1-0.1c-6,0.4-8.5-4-10.5-7.4c-1.5-2.7-0.4-5.3,0.3-7.7c1.1-3.9,2.7-7.6,4.3-11.4
			c0.3-0.8,1.3-1.3,2-2c-0.2,0.4-0.4,0.8-0.7,1.1c-1.8,2.7-3.1,5.4-0.6,8.4c3-1.5,5.7,0.8,7.9,0.5c1.6,1.9,2.8,3.4,4,4.8
			c1.9-0.5,3.6-1,5.3-1.5c0,0.1,0.1,0.2,0.1,0.4c-1.9,0.9-3.9,1.8-5.5,2.6c3.2,1,6.7,2.1,9.9,3.1c-0.6-0.9-1.3-2-2.2-3.4
			c1.2,0.2,1.8,0.4,2.6,0.5c0-0.8,0-1.4,0-2.2c1.7,0,3.4,0.1,5-0.1c0.4,0,1.3-0.9,1.2-1.1c-0.9-2.5-1.9-5-3.1-7.8
			c-1.8,1.8-3.3,3.3-4.8,4.7c-0.1-0.1-0.2-0.2-0.3-0.3c0.4-0.8,0.9-1.7,1.4-2.8c-2.6,1-5.4,0.4-6.1-1.1c0.6-0.4,1.3-0.9,1.6-1.1
			c-0.5-1.2-1.2-2.2-1.1-3c0.2-1.3,1-2.5,1.3-3.8c0.2-0.9,0.1-1.9,0.2-2.6c2.3-0.7,4.8-0.6,7,1.2c0.1-0.2,0.1-0.4,0.2-0.6
			c-0.9-0.7-1.9-1.3-2.9-2.1c0.8-0.6,1.5-1.1,2.6-1.9c-2.4,0-4.4,0-6.3,0c-0.1,0.5-0.1,0.9-0.1,1.1
			C67.7,775.7,64.5,775.6,61.7,777.4z M110,787.8c0.1,0.3,0.3,0.7,0.4,1c0.1-0.1,0.3-0.2,0.4-0.3c-0.2-0.2-0.5-0.4-0.7-0.6
			c0.1-0.3,0.4-0.5,0.4-0.7c-0.6-2.1-1.2-4.2-1.8-6.3c0.6-0.1,0.9-0.1,1.5-0.1c-1.6-1.4-2.9-2.6-4.5-4c1,0,1.5-0.1,2.1-0.1
			c0-0.1,0-0.2,0.1-0.3c-2-0.6-3.9-1.2-5.9-1.8c0,0.1-0.1,0.3-0.1,0.4c1.2,0.4,2.5,0.8,3.7,1.2c0,0.2-0.1,0.4-0.1,0.6
			c-1-0.2-2.1-0.3-3.1-0.6c-2.9-0.9-5.8-1.2-8.8-0.7c-0.9,0.1-1.8,0.5-2.6,0.3c-2.2-0.6-3.8,0.3-5.4,1.8c1.9,1.8,3.1,4.5,6.1,4.9
			c1.9,0.2,3.1,0.7,2.4,2.4c0.4-0.4,1-1.7,1.7-1.7c3.6-0.3,7.2-0.3,10.6-0.3c-0.9,0.3-2,0.6-3.3,1c0.5,2.1,0.9,4.1,1.3,5.8
			c1.2,0.1,2.3,0.5,3.2,0.2C108.4,789.3,109.2,788.4,110,787.8z M111.1,771.1c-3-0.9-5.3-3.9-9-3.1c0.7,1.3,1.3,2.5,2,3.7
			c0.6,1.1,1.5,1.2,2.6,0.9C108.2,772.1,109.6,771.6,111.1,771.1z M76.3,771.1c1,1.3,1.5,2.4,2.4,2.9c2.1,1.3,4.3,0.7,5.9-1.5
			C82.1,770.7,79.3,771.6,76.3,771.1z M51.2,807.3c0.9-0.6,1.5-1,2.5-1.7c-1.8-1.2-3.5-2.3-5.1-3.4c-0.2,0.2-0.4,0.4-0.6,0.7
			C49.2,804.4,50.2,805.9,51.2,807.3z M124.6,781.5c1.1,2.7,1.1,2.7,3.5,3.4C128.6,782.3,126.9,781.6,124.6,781.5z M99.6,762.3
			c0.1,0.3,0.1,0.6,0.2,0.9c1.5-0.3,2.9-0.7,4.4-1c0-0.2-0.1-0.4-0.1-0.6C102.6,761.8,101.1,762,99.6,762.3z"/>
		<path fill="#8BA66D" d="M85.3,813.8c2.5-0.8,4.8,0.7,6.7,2.4c1.5,1.4,2.3,3.4,2,5.6c-0.8,5.6-4.9,7.8-9.1,8
			c-2.6,0.1-5.2,1.2-7.9,0c-4.9-2.1-6.7-6.1-4.7-10.6c0.4-0.8,1-1.7,1.8-2.2C77.8,814.8,80.5,814,85.3,813.8z M83.1,824.3
			c-0.5-0.1-0.9-0.2-1.7-0.4c1.9-0.5,3.5-0.8,5-1.2c1.1-0.3,1.8-0.9,2.2-2.3c0.6-2.4,0.4-3.8-2.4-4c-0.6,0-1.1-0.6-1.8-1
			c0,0.3,0,0.5,0,0.6c0,0.1,0.1,0.1,0.1,0.2c0,0,0,0.1,0-0.1c-2.1,0.3-4.1,0.6-6.1,0.8c0-0.2,0-0.3-0.1-0.5c0.3-0.3,0.6-0.5,0.9-0.8
			c-0.1-0.1-0.1-0.2-0.2-0.3c-0.9,0.4-1.7,0.8-2.7,1.2c1.9,0.7,2,1.2,0.6,2.7c-1.2,1.3-1.4,2.6-0.3,3.9
			C77.8,824.7,81.2,825.2,83.1,824.3z M75,822.2c0.2-0.7,0.3-1.4,0.5-2c-0.3-0.1-0.5-0.1-0.8-0.2c-0.2,1.1-0.4,2.1-0.7,3.6
			c0.9-0.5,1.3-0.7,1.8-1C75.4,822.5,75.2,822.3,75,822.2z"/>
		<path fill="#8BA66D" d="M129.6,822.9c0.2-1.4,0.4-2.6,0.6-3.9c-0.3,2,0.7,4-1.2,5.8c-2.2,2.1-4.8,2.7-7.5,2.7
			c-3.7-0.1-7.4-0.7-11-1c-2.2-0.2-3.8-1-4.9-3c-1-1.9-2.3-3.5-3.3-5.4c-0.6-1.1-1-2.2,0.1-3.4c1-1,0.8-1.3-0.8-3.9
			c-0.1,1-0.2,1.8-0.3,2.6c-0.8-4.5,1.5-7.7,5.9-8.4c3.5-0.6,6.9-0.7,10.2,1c-3.6-1.5-7.2-0.9-10.8-0.3c-1.3,0.2-1.6,0.6-1.5,2
			c0.1,1.7-0.2,3.5-0.3,5.2c1,0.5,2.4,0.8,3.4,1.6c2.5,1.9,4.2,4.1,3.2,7.6c-0.4,1.3,0.9,1.3,1.8,1.3c2.1,0.1,4.3,0.2,6.4,0.4
			c1.1,0.1,2.1,0.5,3.3,0.9C124.7,823.4,126.8,822,129.6,822.9z M107.7,815.4c-1.6-0.1-2.7-0.2-4.3-0.3c0.7,1.2,1.3,2.2,2,3.4
			C106.3,817.4,106.8,816.6,107.7,815.4z M103.1,817.6c1.2,2.9,2.8,5.5,5.2,7.4C106.6,822.6,104.8,820.1,103.1,817.6z"/>
	</g>
</g>
<g>
	<path fill="#7C9461" d="M39.3,19.2c1.2-2,3.3-1.4,5-2c0.5-0.2,1.1-0.2,1.8-0.3c-1-1.7-1.3-3.4-0.2-5.1c1.4-2.3,3.8-4.1,5.8-4.4
		c-0.5,0.6-1,1.1-1.3,1.8c-0.4,0.7-0.6,1.6-1,2.5c5.6,2.1,10.9,0.7,15.9-1.5c0,0-0.3-0.2-0.5-0.6c-0.2-0.4-0.4-0.8-0.6-1.4
		c0.6-0.2,1.2-0.4,1.7-0.5c0-0.1,0-0.2,0-0.3c-2.1-0.4-4.1-0.9-6.2-1.3c0-0.2,0.1-0.3,0.1-0.5c2.1,0.4,4.3,0.5,6.3,1.2
		c2.1,0.7,2.7,4.3,1.3,6.6c-0.4,0.6-0.8,1.3-1.3,2.1c2.4,0,4.7,0,7.1,0c-1.8-1.4-3-3.3-3.4-5.5c-0.5-2.3,1.4-5.1,3.6-5.5
		C74.7,4.3,76,4,77.3,3.8c1.2-0.2,2.4-0.3,3.6-0.3c1.1,0,2.2,0.3,3.4,0.7c-3.5-0.8-6.5,0.6-9.3,3c0,0,0,0.5,0.2,0.6
		c2.7,1.5,5.4,3.1,8.2,4.4c2.7,1.2,5.2,0.1,7.4-1.7c0.4-0.4,0.9-0.7,1.5-1c0.3,0.7,0.4,1.2,0.7,2c0.1-0.9,0.2-1.5,0.3-2.1
		c4.8,0.5,5.7,3,2.6,7.7c3,2.3,6,4.6,9,6.9c2.6,2.1,5.5,4,7.5,6.6c1.2,1.5,1.1,4.3,1.4,6.5c0,0.4-1.1,1-1.8,1.4c-4.7,3-9.9,2-15,1.7
		c-1.9-0.1-3.8-0.4-5.7-0.4c-1.5,0-1.9-0.6-2-2.3c0-4.1-0.3-8.2-0.5-12.2c0-0.1-0.1-0.3-0.5-0.4c0.2,4.4,0.5,8.8,0.7,13.3
		c-0.1,0-0.2,0-0.4,0.1c-0.4-3.2-0.8-6.5-1.1-9.5c-1.4,1-3.1,2.1-4.6,3.3c-1.9,1.6-4.1,2-6.5,2.2c-4.2,0.4-8.3,0.6-12.4-0.7
		c-0.4-0.1-1.1,0.4-1.4,0.8c-0.9,1.4-1.7,2.9-2.5,4.4c-1.3,2.6-3.7,4.1-5.6,6.2c-4.6,4.9-10.3,5.9-16.5,5.6c-0.6,0-1.3-0.1-1.9-0.1
		c-5.3,0.4-7.6-3.7-9.3-6.9c-1.3-2.5-0.3-4.9,0.3-7.2c1-3.6,2.4-7.1,3.8-10.6c0.3-0.7,1.2-1.3,1.8-1.9c-0.2,0.4-0.4,0.7-0.6,1.1
		c-1.6,2.5-2.8,5-0.5,7.8c2.7-1.4,5.1,0.8,7,0.5c1.4,1.8,2.5,3.2,3.6,4.5c1.7-0.5,3.2-0.9,4.7-1.4c0,0.1,0.1,0.2,0.1,0.3
		c-1.7,0.8-3.5,1.7-4.9,2.4c2.9,0.9,5.9,1.9,8.8,2.9c-0.5-0.8-1.1-1.8-2-3.2c1,0.2,1.6,0.3,2.4,0.5c0-0.7,0-1.3,0-2
		c1.5,0,3,0.1,4.5,0c0.4,0,1.1-0.8,1.1-1c-0.8-2.3-1.7-4.6-2.8-7.3c-1.6,1.7-3,3-4.3,4.4c-0.1-0.1-0.2-0.2-0.2-0.2
		c0.4-0.8,0.8-1.6,1.3-2.6c-2.3,0.9-4.9,0.4-5.5-1c0.6-0.4,1.2-0.8,1.4-1c-0.4-1.1-1-2-0.9-2.8c0.1-1.2,0.9-2.3,1.2-3.5
		c0.2-0.9,0.1-1.8,0.2-2.4c2.1-0.6,4.3-0.6,6.3,1.1c0.1-0.2,0.1-0.4,0.2-0.6c-0.8-0.6-1.7-1.2-2.6-1.9c0.7-0.6,1.4-1.1,2.3-1.8
		c-2.2,0-3.9,0-5.6,0c-0.1,0.5-0.1,0.8-0.1,1C44.6,17.6,41.8,17.5,39.3,19.2z M82.3,28.8c0.1,0.3,0.3,0.6,0.4,0.9
		c0.1-0.1,0.2-0.2,0.4-0.3c-0.2-0.2-0.4-0.4-0.6-0.5c0.1-0.2,0.4-0.5,0.3-0.7c-0.5-2-1.1-3.9-1.6-5.9c0.5-0.1,0.8-0.1,1.3-0.1
		c-1.4-1.3-2.6-2.4-4-3.7c0.9,0,1.4-0.1,1.9-0.1c0-0.1,0-0.2,0-0.3c-1.8-0.6-3.5-1.1-5.3-1.7c0,0.1-0.1,0.3-0.1,0.4
		c1.1,0.4,2.2,0.7,3.3,1.1c0,0.2-0.1,0.4-0.1,0.6c-0.9-0.2-1.9-0.3-2.8-0.6c-2.6-0.8-5.2-1.1-7.9-0.7c-0.8,0.1-1.6,0.5-2.3,0.3
		c-2-0.5-3.4,0.3-4.8,1.7c1.7,1.7,2.8,4.2,5.4,4.5c1.7,0.2,2.8,0.6,2.2,2.3c0.4-0.4,0.9-1.6,1.5-1.6c3.2-0.3,6.4-0.2,9.4-0.3
		c-0.8,0.2-1.7,0.5-2.9,0.9c0.4,1.9,0.8,3.8,1.2,5.4c1.1,0.1,2,0.4,2.8,0.2C80.9,30.2,81.6,29.4,82.3,28.8z M83.3,13.4
		c-2.7-0.9-4.8-3.6-8-2.9c0.6,1.2,1.2,2.3,1.8,3.4c0.5,1.1,1.4,1.1,2.3,0.8C80.7,14.3,82,13.8,83.3,13.4z M52.3,13.4
		c0.9,1.2,1.4,2.2,2.1,2.7c1.9,1.2,3.8,0.6,5.3-1.4C57.4,13,54.9,13.9,52.3,13.4z M29.9,47c0.8-0.6,1.4-1,2.3-1.6
		c-1.6-1.1-3.1-2.1-4.6-3.1c-0.2,0.2-0.3,0.4-0.5,0.6C28.1,44.3,29,45.7,29.9,47z M95.4,23.1c1,2.5,1,2.5,3.1,3.2
		C98.9,23.8,97.4,23.1,95.4,23.1z M73.1,5.2c0,0.3,0.1,0.5,0.1,0.8c1.3-0.3,2.6-0.6,3.9-0.9c0-0.2-0.1-0.4-0.1-0.6
		C75.7,4.7,74.4,5,73.1,5.2z"/>
	<path fill="#7C9461" d="M60.3,53c2.2-0.7,4.2,0.6,6,2.2c1.4,1.3,2.1,3.2,1.8,5.2c-0.7,5.2-4.4,7.2-8.1,7.5c-2.3,0.1-4.6,1.1-7,0
		c-4.3-2-6-5.7-4.2-9.9c0.3-0.8,0.9-1.5,1.6-2C53.6,53.9,56,53.2,60.3,53z M58.4,62.8c-0.5-0.1-0.8-0.2-1.5-0.4
		c1.7-0.4,3.1-0.7,4.4-1.1c1-0.3,1.6-0.8,1.9-2.1c0.6-2.2,0.4-3.5-2.1-3.7c-0.5,0-1-0.5-1.6-0.9c0,0.3,0,0.5,0,0.6
		c0,0,0.1,0.1,0.1,0.1c0,0,0,0.1,0-0.1c-1.9,0.3-3.6,0.5-5.4,0.8c0-0.1,0-0.3-0.1-0.4c0.3-0.2,0.5-0.5,0.8-0.7
		c-0.1-0.1-0.1-0.2-0.2-0.3c-0.8,0.4-1.6,0.7-2.4,1.1c1.7,0.6,1.8,1.1,0.6,2.5c-1,1.2-1.2,2.4-0.3,3.6
		C53.6,63.2,56.6,63.6,58.4,62.8z M51.1,60.9c0.2-0.6,0.3-1.3,0.4-1.9c-0.2,0-0.5-0.1-0.7-0.1c-0.2,1-0.4,2-0.6,3.4
		c0.8-0.4,1.2-0.6,1.6-0.9C51.5,61.1,51.3,60.9,51.1,60.9z"/>
	<path fill="#7C9461" d="M99.9,61.5c0.2-1.3,0.4-2.4,0.5-3.6c-0.2,1.8,0.6,3.7-1.1,5.4c-2,1.9-4.3,2.5-6.7,2.5
		c-3.3-0.1-6.6-0.6-9.9-0.9c-1.9-0.2-3.4-0.9-4.4-2.8c-0.9-1.7-2-3.3-2.9-5c-0.5-1-0.9-2,0.1-3.1c0.9-0.9,0.7-1.2-0.7-3.6
		c-0.1,0.9-0.2,1.6-0.2,2.4c-0.7-4.2,1.4-7.2,5.3-7.8c3.1-0.5,6.2-0.6,9.1,1c-3.2-1.4-6.4-0.8-9.6-0.3c-1.1,0.2-1.5,0.6-1.4,1.9
		c0.1,1.6-0.2,3.2-0.3,4.9c0.9,0.4,2.1,0.8,3,1.5c2.2,1.7,3.8,3.8,2.8,7.1c-0.3,1.2,0.8,1.2,1.6,1.2c1.9,0.1,3.8,0.1,5.7,0.4
		c1,0.1,1.9,0.5,3,0.8C95.4,62,97.3,60.7,99.9,61.5z M80.3,54.5c-1.4-0.1-2.4-0.2-3.8-0.2c0.6,1.1,1.1,2,1.8,3.2
		C79,56.4,79.5,55.6,80.3,54.5z M76.2,56.6c1.1,2.7,2.5,5.1,4.7,6.9C79.3,61.2,77.7,58.9,76.2,56.6z"/>
</g>
</svg>
