<?xml version="1.0" encoding="utf-8"?>
<!-- Generator: Adobe Illustrator 18.0.0, SVG Export Plug-In . SVG Version: 6.00 Build 0)  -->
<!DOCTYPE svg PUBLIC "-//W3C//DTD SVG 1.1//EN" "http://www.w3.org/Graphics/SVG/1.1/DTD/svg11.dtd">
<svg version="1.1" id="Layer_1" xmlns="http://www.w3.org/2000/svg" xmlns:xlink="http://www.w3.org/1999/xlink" x="0px" y="0px"
	 viewBox="0 0 140 72" enable-background="new 0 0 140 72" xml:space="preserve">
<path fill="#D2FAA5" d="M115.2,60.8H22.8c-2.1,0-3.8-1.7-3.8-3.8V13.4c0-2.1,1.7-3.8,3.8-3.8h92.4c2.1,0,3.8,1.7,3.8,3.8V57
	C119,59.1,117.3,60.8,115.2,60.8z"/>
<g>
	<path fill="#7C9461" d="M84.9,54.1c-0.4,0.1-0.7,0.2-1.1,0.3c-0.8,0.2-1.6,0.3-2.4,0.4c0,0.2,0,0.3,0,0.5c1,0,1.9,0.1,2.9,0
		c1.8-0.3,3.5-0.9,5.2-1.2c0.3-0.1,0.8,0.3,1.2,0.5c-0.2,0.3-0.3,0.6-0.5,0.8c-0.3,0.5-0.7,1.1-1,1.6c0.1,0.1,0.2,0.1,0.3,0.2
		c0.3-0.4,0.5-0.9,0.8-1.2c0.2-0.2,0.6-0.1,0.9-0.1c-0.1,0.3-0.1,0.7-0.3,0.9c-0.5,0.4-1,0.8-1.6,0.9c-0.5,0.2-1,0-1.6,0
		c-0.1,0.2-0.3,0.6-0.5,1.1c1.7,0.1,3.2-0.7,4.5-1.8c2.1-1.8,1.2-4,0.9-6.1c-0.1-0.5-0.3-1-0.3-1.5c1.3,2,1.4,4.3,1,6.5
		c-0.2,1-1.3,1.9-2.2,2.7c-0.7,0.6-1.5,1-2,2c-0.7,1.5-2.4,1.7-3.9,1.8c-1.4,0.1-2.8,0-4.2,0c-0.4,0-0.9,0.1-1.1,0.3
		c-1.4,1.7-3.2,2.5-5.2,3.2c-1.4,0.5-2.9,1-4.4,1.5c0,0.1,0.1,0.3,0.2,0.5c0.9,1.3,0.8,1.8-0.7,2.4c-2.8,1.1-5.6,0.9-8.4-0.1
		C60.1,69.6,60,69,61,67.4c-2.1-0.9-4.2-1.7-6.2-2.6c-2.1-0.9-3.6-2.6-4.6-4.5c-0.8-1.5-0.3-2.7,1.4-4.3c0.4-0.4,1.1-0.6,1.7-1
		c-0.3-0.4-0.5-0.7-0.8-1.1c0.3-0.6,0.6-1.2,1-1.9c-2.5-1.5-5.3-2.8-6.4-6.1c0.5,0.3,0.8,0.6,1.1,0.8c0.1-0.1,0.2-0.1,0.2-0.2
		c-0.5-0.6-0.9-1.3-1.4-1.9c-0.1,0-0.1,0.1-0.2,0.1c0.1,0.3,0.1,0.6,0.2,0.8c-0.1,0-0.3,0-0.4,0.1c-0.1-0.7-0.2-1.4-0.2-2
		c0-0.3,0.1-0.7,0.2-1c0.4-1.5,0.8-3.1,2.3-4c0.6-0.4,0.7-0.8,0.2-1.5c-1.8-2.7-1.3-7.9,0.8-10.4c0.9-1,1.9-1.6,3.2-1.2
		c0.3-2.5,2.4-1.7,3.8-2.2c-0.4-2.3-1-4.7-0.3-7c0.8-2.8,2.8-4.6,5.1-6.2c0.3-0.2,0.6-0.6,0.8-1c0.7-1.7,1.6-3,3.7-3
		c-0.9-0.3-1.7-0.5-2.6-0.8c-0.4-0.2-1-0.6-1-0.9c0-0.5,0.2-1.3,0.6-1.6c0.8-0.5,1.8-1,2.8-1.1C72.1,0.7,78.1,0.8,84,1.9
		c1.1,0.2,2.2,0.8,3.3,1.2c0,0.1-0.1,0.2-0.1,0.4c-0.8-0.3-1.6-0.6-2.4-0.9c-3.9-1.2-7.8-1.1-11.8-1.2c-2.6,0-5.1,0.3-7.6,1
		c-0.3,0.1-0.6,0.1-0.9,0.3c-0.3,0.3-0.5,0.6-0.8,1c0.4,0.3,0.7,0.7,1.1,0.8c0.9,0.3,1.9,0.5,2.9,0.6c-1-0.4-2.1-0.7-3.1-1.1
		c0-0.1,0.1-0.2,0.1-0.3c0.8,0.2,1.6,0.4,2.3,0.6c0.2,0.1,0.6,0.1,0.7,0c1.5-1.3,3.3-0.5,5-0.9c0.8-0.2,1.5-0.5,2.4-0.8
		c-1.1-0.1-1.9-0.2-2.8-0.3c4.7-0.4,9.3-0.3,14.1,1.4C84.6,5,82.8,5,81.1,5.1c-3.3,0.2-6.7,0-10,0c-0.4,0-0.8,0.1-1.2,0.2
		C74.9,5.4,80,6.3,85,5c0.8-0.2,1.6-0.6,2.4-0.9c0.4,1.1-0.6,1.2-1.3,1.5c-0.7,0.3-1.5,0.4-2.2,0.6c1.9,0.3,3,1.3,3.5,3.1
		c0.1,0.6,0.8,1.1,1.3,1.4c2.5,1.4,4.3,3.4,4.7,6.2c0.3,2,0.1,4.2-0.2,6.3c-0.8,4.6-2,9.2-3.7,13.6c-0.5,1.4-1,2.8-1.6,4.2
		c-0.3,0.7-0.2,1.2,0.5,1.6c0.8,0.4,1.7,0.8,2.3,1.5c0.5,0.5,0.9,1.3,1.1,2c0.2,0.7,0,1.5,0,2.3c-0.2-0.1-0.5-0.3-0.9-0.6
		c-0.8,0.5-1.6,1-2.2,1.3c-0.7,0.1-1.2,0.1-1.7,0.2c0,0.1,0,0.2-0.1,0.4c0.4,0.2,0.8,0.4,1.1,0.6c0,0.1,0,0.1-0.1,0.2
		c-0.4-0.2-0.8-0.4-1.3-0.5c-0.5-0.1-1.1-0.3-1.4-0.1c-0.8,0.6-1.6,1.3-2.3,2.1c-1,1.2-1,1.3-2.4,1.2c0.5,0.9,1.2,1.1,2,0.4
		c0.5-0.5,0.8-1.1,1.2-1.6c0.5-0.5,1-1.1,1.7-1.5c0.6-0.3,1,0,1.2,0.6c0.3,0.7-0.2,1.1-0.6,1.5c0,0-0.3-0.1-0.4-0.2
		c-0.1-0.1,0-0.4,0-0.4c0.2-0.1,0.5-0.2,0.7-0.3c0-0.1,0-0.2,0-0.3c-0.4,0-1.1-0.2-1.3,0c-0.4,0.4-0.5,1-0.6,1.6
		c-0.1,0.2,0,0.5,0,0.8C84.8,53.9,84.8,54,84.9,54.1z M65.9,59c0.3-0.5,0.6-1,0.8-1.5c0-0.1-0.5-0.4-0.8-0.7
		c0.6-0.8,0.8-0.2,1.1,0.3c0.6,0.9,1,2.3,1.8,2.6c0.8,0.3,2-0.6,3.1-0.9c0.9-0.3,1.9-0.6,2.9-1c-0.6,1.4-1.1,2.7-1.7,4.1
		c1.8,0,3.4,0.5,4.9-0.4c0-0.1,0-0.2,0-0.4c-1.1,0-2.1,0-3.3,0c0.5-1.3,0.9-2.5,1.3-3.6c-0.4-0.1-0.7-0.1-1-0.2c0-0.1,0-0.3,0-0.4
		c-1.2,0.4-2.5,0.8-3.7,1.2c-1.7,0.6-1.7,0.6-2.8-0.9c-0.3-0.4-0.7-0.9-0.9-1.3c-0.5-0.9-1.2-0.9-1.9-0.4c-0.7,0.5-1.4,1.3-2.2,1.3
		c-2,0.1-3.9,1-5.9,0.2c-0.8-0.3-2.1,0.6-2.1,1.4c0,0-0.1,0.1-0.1,0.1c-0.2-0.2-0.3-0.5-0.5-0.7c-0.1,0.1-0.2,0.1-0.3,0.2
		c-0.1,0.3-0.1,0.6-0.2,0.9c-0.6-0.1-1.1-0.1-2-0.2c0.6,0.7,1.6,1,1.1,1.9c0.9,0.3,0.6,1.3,1,1.8c-0.5-0.3-1.1-0.5-1.6-0.8
		c-1.5-1-1.9-3.3-0.5-4.2c1.7-1.2,3.2-3,5.6-2.8c-0.4-0.2-0.9-0.5-1.3-0.3c-1.9,0.7-3.8,1.2-5.2,2.9c-1.2,1.4-1.3,3.2,0.2,4.2
		c1.1,0.8,2.3,1.3,3.5,1.9c0.4,0.2,0.9,0.1,1.3,0.2c0-0.1,0-0.2,0.1-0.3c-0.7-0.3-1.4-0.5-2.1-0.8c0.4,0,0.8,0,1.2,0
		c0.7,0,1.5-0.1,2.2,0.2c2.1,1,4.3,1.2,6.5,0.5c1.3-0.4,2.5-0.6,3.7,0c1.8,0.9,3.4,0.4,5.1,0.1c0-0.1,0-0.3,0-0.4
		c-1-0.1-1.9-0.2-3-0.3c0.4-0.4,0.7-0.7,1-1.1c0.3-0.3,0.5-0.7,0.8-1.1c-0.1-0.1-0.1-0.2-0.2-0.2c-0.8,0.3-1.6,0.6-2.4,0.9
		c-0.2,0.1-0.5,0.2-0.7,0.2c-0.7-0.1-1.3-0.3-2-0.4c0,0.1,0,0.2-0.1,0.3C66.4,60.3,66.2,59.7,65.9,59C65.9,59,65.9,59,65.9,59z
		 M53.4,34.4c0.6-1.2,1.3-2.3,1.8-3.6c0.4-1-0.4-2.1-1.5-2.6c-0.8-0.4-1.6-0.3-2.2,0.4c-1.4,1.6-1.8,5.9-0.8,7.6
		c0.8-0.5,1.6-1,2.4-1.5c-1.1,1.1-2.2,2.2-3.1,3.3c-0.2,0.3-0.1,0.8-0.2,1.3c0.2,0.1,0.3,0.1,0.5,0.2c0.5-0.7,1.1-1.4,1.7-2.2
		c0.4,0.5,0.6,0.8,0.8,1.1c0,0,0,0,0,0c0.2,0.4,0.3,0.9,0.6,1.2c0.2,0.2,0.7,0.4,0.9,0.3c0.7-0.3,1.3-0.7,1.9-1
		c0.7-0.4,0.9-0.1,0.9,0.6c0,0.7-0.1,1.4-0.2,2.2c0.5,0.1,0.9,0.1,1.4,0.2c0.1-1,0.2-1.8,0.3-2.7c0.5,0.7,0.5,1.5,0.9,2
		c0.5,0.4,1.4,0.4,2.3,0.6c-3.1,0.7-6,0.6-8.8-0.1c-0.2,0.4-0.3,0.8-0.5,1.2c0.9,0.2,2.2-0.2,2.9,0.9c0,0,0.1,0,0.2,0
		c1.6-0.1,3.1-0.2,4.7-0.3l0,0c1,1.2,2.4,1.1,3.6,0c0.3-0.3,0.8-0.6,1.2-0.9c0.1,0.1,0.2,0.3,0.4,0.4c-0.6,0.6-1,1.4-1.7,1.8
		c-1.6,1-3.2,0.5-4.7-0.4c-0.4-0.3-0.9-0.4-1.7-0.6c0.7,1.6,1.5,2.3,2.8,2.6c2.9,0.6,5.1-0.3,6.3-3c0.7,0.3,1.3,0.5,1.9,0.7
		c0.1-0.9-1.4-1.8-2.5-1.6c0.6-0.4,1.2-0.9,1.8-1.4c0.1-0.1,0.1-0.5,0.1-0.8c-0.2,0-0.5,0-0.7,0c-1.1,0.4-2.2,0.8-3.2,1.2
		c-0.2,0.1-0.4-0.1-0.9-0.1c1.3-0.5,2.3-0.9,3.3-1.3c-1-1.5-2.1-2.8-3-4.3c-0.4-0.7-0.6-0.6-1.2-0.5c-1.2,0.3-2.3,0.5-3.5,0.7
		c-0.3,0-0.8,0-0.9-0.2c-0.2-0.4-0.3-0.9-0.4-1.4c0.5-0.4,1.1-0.9,1.9-1.5c-0.8-0.4-1.5-0.6-2.1-0.9c0,0.4,0,0.8,0,1.3
		c-0.3,0.2-0.7,0.5-1.2,0.9c0.4,0.6,0.7,1.2,1.1,1.8C57,35.8,57,35.9,56.9,36C55.7,35.5,54.6,34.9,53.4,34.4z M89,14.4
		c0.3-0.3,0.7-0.6,1-1c-0.5-0.3-1.1-0.6-1.6-1c-0.1,0.1-0.1,0.2-0.2,0.3C88.5,13.3,88.8,13.9,89,14.4c0.1,0.2,0.1,0.5,0.2,0.5
		c-3.1,0.9-5.6,0.6-6.6-2.8c-5.2,0.6-10.3,0.9-15.4,0.2c1.4,0.4,2.8,0.8,4.3,1.2c-0.3,3.1,1.9,4.8,4.2,6.3c-2,1.1-4.3-0.2-6.2,1.5
		c1.4,0.1,2.4,0.2,3.5,0.2c2.5,0,5-0.2,7.5-0.2c1,0,2.1-0.5,3.2,0.1c0.1,0.1,0.3,0,0.6,0.1c-0.3-0.3-0.6-0.4-0.8-0.6
		c1.3-0.5,2.7-0.2,3.9-0.9c1.4-0.9,3-1.5,4.4-2.4c1.1-0.7,1-1.6,0.1-2.5c-0.4,0.3-0.7,0.6-1.1,0.8c-0.1-0.5-0.1-1.1-0.3-1.2
		C90.1,14.4,89.5,14.5,89,14.4z M88.2,25c0-0.1,0-0.2,0-0.3c-0.2-0.1-0.5-0.2-0.7-0.3c-0.1-0.1-0.2-0.4-0.1-0.5
		c0.2-0.1,0.5-0.2,0.6-0.2c0.4,0.3,0.6,0.6,1,1c-0.1,0.2-0.3,0.4-0.5,0.8c0.5-0.1,0.8-0.2,1-0.2c-0.4,1,0.4,1.1,1,1.4
		c0.1,0.1,0.3,0.1,0.3,0.1c0.1,0.2,0.1,0.3,0.2,0.5c0.2-0.1,0.5-0.1,0.6-0.2c0.2-0.8,0.9-1.7,0.1-2.2c0.2-0.3,0.5-0.6,0.6-0.9
		c0.3-1.3,0.5-2.6,0.7-3.9c0.1-0.7,0-1.5,0-2.2c-0.8,1.5-2,2.4-3.5,2.9c-2.8,0.9-5.3,2.5-8.4,2.5c-3.2,0-6.4,0.5-9.5,0.7
		c-0.4,0-0.8,0.1-1.1,0.2c0,0.1,0,0.2,0,0.3c0.9,0.3,1.8,0.5,2.7,0.8c-0.3,0.2-0.4,0.4-0.6,0.6c0.5,0.1,0.9,0.2,1.4,0.3
		c-0.3,0.3-0.5,0.5-0.9,0.8c1.1-0.3,1.4-0.2,1,0.7c0.7,0.4,1.3,0.8,1.9,1.1c-0.2,0.3-0.3,0.6-0.6,1c1.7-1.1,2.7,0.8,4.1,0.4
		c0.1,0.5,0.1,0.8,0.2,1.2c0.3-1.6,1.5-1,2.3-1.2c0.2,0.4,0.4,0.7,0.6,1c0.1-0.6,0.2-1,0.3-1.4c0.4,0.2,0.8,0.3,1.3,0.5
		c0-0.1,0.1-0.2,0.1-0.2c-0.2-0.2-0.3-0.4-0.5-0.7c0.2-0.2,0.5-0.3,0.7-0.5c0.3,0.2,0.5,0.4,1,0.9c-0.1-0.7-0.2-1-0.3-1.4
		c0.3,0.2,0.6,0.4,1.1,0.6c-0.1-0.4-0.1-0.7-0.1-0.9c0-0.3,0-0.5,0.1-0.9c0.4,0.2,0.7,0.4,1.1,0.6c-0.2-0.7-0.3-1.2-0.4-1.8
		c0.6,0,0.9-0.1,1.5-0.1c-0.5-0.3-0.8-0.6-1.2-0.8C87.6,25.1,87.9,25,88.2,25z M83.1,45.4c0,0.3-0.1,0.6-0.1,1.2
		c-0.6-1.1-2.2-1.4-2.7-0.7c0.3,0.2,0.9,0.4,0.9,0.7c0.1,1.1,0.9,1.4,1.8,1.5c0.9,0.1,1.7,0,2.6,0c-0.3,0.2-0.5,0.3-0.8,0.5
		c1.1,0.3,2.2,0.2,3.1-0.5c0.4-0.3,0.9-0.3,1.4-0.5c0.6-0.3,1.4-0.5,1.8-1c0.2-0.3,0-1.2-0.3-1.6c-1.5-1.8-3.7-2.4-5.9-3
		c0,0-0.1,0.1,0,0.1c0.6,0.5,1.1,0.9,1.7,1.4c-1.7,1.4-3.7,1.5-7.6,0.5c0-0.3-0.1-0.5-0.1-1c-0.6,1.1-0.2,1.5,0.6,1.6
		C80.7,45,81.9,45.2,83.1,45.4z M57.3,63.6c0,0.2,0,0.3,0,0.5c1.5,0.1,3,0.2,4.5,0.4c3.8,0.4,7.6,0.4,11.5-0.1c2.6-0.4,5-1.1,7-2.9
		c1.5-1.4,1.6-2.8,0.2-4.3c-0.5-0.5-1.2-1-1.9-1.3c-4.8-2-9.9-2.4-15.1-2.2c-0.1,0-0.2,0.1-0.3,0.2c2.2,0.3,4.3,0.1,6.4,0.3
		c3.5,0.4,7.1,0.9,10,3.3c1.3,1.1,1.3,2.5,0,3.7c-1.7,1.6-3.9,2.1-6,2.4c-3.1,0.4-6.2,0.4-9.3,0.5c-1.8,0-3.5-0.3-5.3-0.4
		C58.4,63.6,57.8,63.6,57.3,63.6z M62.6,52.3c0,0.8,0.4,1,1.1,1c1.7,0,3.5,0,5.2,0.1c0.6,0,1.2,0.1,1.9,0.2c0-0.5,0-0.9,0-1.3
		c-2,0-4.1,0.4-5.8-1.1c-0.1-0.1-0.4-0.1-0.6,0C63.8,51.5,63.2,51.9,62.6,52.3z M53.7,24.3c0,0.2,0,0.4,0,0.6
		c0.6,0.2,1.2,0.7,1.9,0.7c2.2,0.1,4.3,0,6.5-0.1c0.3,0,0.6-0.5,1-0.7c-0.3-0.3-0.7-0.7-1-0.7c-1.9-0.2-3.9-0.3-5.9-0.3
		C55.4,23.7,54.6,24.1,53.7,24.3z M79.8,47.8c-0.2-0.4-0.4-0.8-0.7-1.1c-0.3-0.4-1.1-0.9-1-1.1c0.5-1.4-0.6-1-1.3-1.4
		c0.3,0.9-0.9,1.8,0.2,2.6C77.8,47.4,78.4,48.3,79.8,47.8z M68,7.1c-1.7-0.6-3.9-0.6-4.2,1.3C64.4,8.6,65,8.9,65.4,9
		C66.3,8.3,67.2,7.7,68,7.1z M79.6,11.4c0-0.1,0-0.2,0-0.3c-3.5,0-6.9,0-10.4,0c0,0.1,0,0.2,0,0.3C72.6,11.1,76.1,12.4,79.6,11.4z
		 M58.8,22.5c0.6-1.8-1.1-2.6-1.6-3.9c-0.1,0-0.2,0-0.3,0.1c0.2,1.4,0.3,2.8,0.4,4.1C57.9,22.6,58.3,22.6,58.8,22.5z M63.3,48
		c0,0.1,0,0.1,0,0.2c0.7,0,1.4-0.1,2.1,0c1.5,0.2,2.6-0.4,3-1.8C66.7,46.9,65,47.4,63.3,48z M85.1,9.4c0.5,0.1,1,0.1,1.7,0.2
		c-0.4-0.3-0.7-0.4-0.8-0.5c0.2-0.4,0.5-0.8,0.4-0.9c-0.8-1.2-2.1-1-3-0.9C83.9,8,84.6,8.8,85.1,9.4z M47.8,40.2
		c0.9,0.6,1.7,1.1,2.5,1.6c0.1-0.1,0.1-0.2,0.2-0.3c-0.2-0.1-0.4-0.3-0.6-0.5c0.8-0.4,0.8-0.4-0.8-2.1
		C48.7,39.2,48.4,39.6,47.8,40.2z M59.2,55.6c2.1,1.4,3.5,1.1,4.1-0.7c-0.8,0.5-1.5,0.9-2-0.5c-0.2,0.6-0.3,0.9-0.4,1.2
		C60.4,55.6,59.9,55.6,59.2,55.6z M60.6,30.7c-0.1,0-0.2,0.1-0.3,0.1c0.2,0.6,0.6,1.2,0.5,1.7c-0.3,1.1,0,1.8,1.2,2.2
		c0.1-0.2,0.4-0.5,0.3-0.7C61.8,32.9,61.2,31.8,60.6,30.7z M69.7,55.6c0.4,1.9,1.3,2.1,3.1,1c-0.3-0.4-0.6-0.7-0.9-1.1
		c-0.4,0.2-0.8,0.5-1.2,0.9C70.3,56.1,70,55.9,69.7,55.6z M57.4,15.6c-0.6,1.5-0.4,2,1.3,2.8C59.2,17,58.1,16.5,57.4,15.6z
		 M84.9,43.3c-0.3-0.8-1.1-0.9-1.4-0.4c-0.7,1-1.6,0.8-2.6,0.6C82.2,44.3,83.6,44.2,84.9,43.3z M67.5,30.5c0,1.8,0,3.3,0,4.8
		C68.3,34.2,68.4,31.6,67.5,30.5z M50,36.1c-0.1-1.9-0.2-3.4-0.3-5C49.2,32.7,49.2,34.3,50,36.1z M50.5,27.2
		c0.9-0.4,1.7-0.8,2.4-1.1C51.4,25.4,50.8,25.8,50.5,27.2z M86,13.5c0.7,0.4,1.2,0.7,1.7,1c1-0.8-0.3-1-0.3-1.6
		C87,13.2,86.6,13.3,86,13.5z M48.8,41.6c-0.3,1.3-0.3,1.8,0.4,2.3C49.3,41.9,49.3,41.9,48.8,41.6z M72.9,49.5c-0.2,0-0.4,0-0.5,0
		c0.1,0.7,0.1,1.3,0.2,2c0.2,0,0.4,0,0.6,0C73,50.7,73,50.1,72.9,49.5z M72.9,53.2c0.1-0.1,0.3-0.2,0.4-0.4c-0.5-0.5-0.9-1-1.4-1.5
		c-0.1,0.1-0.2,0.2-0.3,0.3C72,52.1,72.4,52.7,72.9,53.2z M82.6,39.5c-0.1,0.1-0.2,0.2-0.3,0.3c0.4,1.6,0.4,1.6,1.4,1.4
		C83.3,40.6,82.9,40,82.6,39.5z"/>
	<path fill="#7C9461" d="M84.9,54.1c0-0.1-0.1-0.2-0.1-0.4c0.3,0,0.6-0.1,0.9-0.1c1.8,0.1,2-0.1,2.5-1.8c0.7,0.1,1.5,0.1,2.2,0.2
		c0,0.1,0,0.2,0,0.3c-0.6,0-1.2-0.1-2-0.1c0,0.4-0.1,0.8-0.1,1.5C87.3,53.8,86.1,53.9,84.9,54.1z"/>
	<path fill="#7C9461" d="M71.3,2.3C69.7,2.7,68,3,66.4,3.4c0-0.1,0-0.2-0.1-0.3c1.7-0.3,3.3-0.7,5-1C71.3,2.2,71.3,2.2,71.3,2.3z"/>
	<path fill="#7C9461" d="M52.8,38.4c1.2-0.9-0.3-1.6-0.2-2.5c1.3,0.5,2.5,1,3.8,1.6C55.4,38.6,54.3,39.2,52.8,38.4
		C52.8,38.3,52.8,38.4,52.8,38.4z"/>
	<path fill="#7C9461" d="M76.1,18.6c-0.5,0-1,0.2-1.2,0.1c-1.7-1.2-3.2-2.6-2.6-5.1c1.1,0.1,2.3,0.1,3.6,0.2c-1,0.7-0.9,0.6-1.8,0.2
		c-0.3-0.2-0.8-0.1-1.2-0.2c0,0.1,0,0.2-0.1,0.3c0.4,0.1,0.7,0.2,1.3,0.4c-0.4,0.1-0.6,0.2-0.9,0.3c0.3,0.5,0.6,1,0.9,1.5
		c0.1,0,0.4-0.1,0.8-0.2c0,0.1,0,0.1,0.1,0.2c-0.4,0.2-0.7,0.3-1,0.4C74.5,17.3,75.2,17.8,76.1,18.6z"/>
	<path fill="#7C9461" d="M60.3,43.4c1.1-0.1,2.1-0.3,3.1-0.4C62.7,44,62.2,44.1,60.3,43.4C60.3,43.4,60.3,43.4,60.3,43.4z"/>
	<path fill="#7C9461" d="M59.7,60.5c-0.4-0.2-0.9-0.3-1.3-0.5c0.1-0.2,0.1-0.3,0.2-0.5c1,0.2,2,0.5,3,0.7c0,0,0,0.1,0,0.1
		C60.9,60.4,60.3,60.5,59.7,60.5C59.7,60.5,59.7,60.5,59.7,60.5z"/>
	<path fill="#7C9461" d="M64.1,60.9c-1.6-0.5-3.2-1.1-4.8-1.6c0-0.1,0.1-0.2,0.1-0.3c1.6,0.5,3.1,1.1,4.7,1.6
		C64.2,60.7,64.1,60.8,64.1,60.9z"/>
	<path fill="#7C9461" d="M59.7,60.5C59.7,60.5,59.7,60.5,59.7,60.5c0.6,0.6,1.2,1.2,1.8,1.8c-0.5,0-1.1,0-1.6,0
		C59.9,61.7,59.8,61.1,59.7,60.5z"/>
	<path fill="#7C9461" d="M65.9,59c-0.6-0.2-1.2-0.4-1.8-0.6C66.3,58.1,66.3,58.1,65.9,59C65.9,59,65.9,59,65.9,59z"/>
	<path fill="#7C9461" d="M74.2,25c1.4-0.4,1.8,0.4,2.5,0.9c3,2.7,5.8,2.2,8.2-0.5c0.3-0.3,0.2-0.9,0.4-1.4c0.1-0.3,0.3-0.5,0.5-0.7
		c0.2,0.3,0.5,0.5,0.5,0.8c-0.1,3-4.1,6.1-6.7,5c-1.2-0.5-2.4-0.8-3.4-1.5C75.3,27,74.9,26,74.2,25z"/>
	<path fill="#7C9461" d="M84,23.9c0.1,0.9-1.4,2.4-2.9,2.7c-1.3,0.3-3.1-0.6-3.5-2C80,26.2,82.1,26.2,84,23.9z"/>
	<path fill="#7C9461" d="M91.1,23c-0.1,0.3-0.3,0.7-0.6,1.3c-0.5-0.7-1-1.2-1.5-1.9C89.8,22.6,90.4,22.8,91.1,23z"/>
	<path fill="#7C9461" d="M54.8,24.8c2.7-1,5.1-0.8,7.6,0C59.9,25.4,57.5,25.7,54.8,24.8z"/>
</g>
</svg>
